<?xml version="1.0" encoding="UTF-8"?>
<svg width="794px" height="547px" viewBox="0 0 794 547" version="1.1" xmlns="http://www.w3.org/2000/svg" xmlns:xlink="http://www.w3.org/1999/xlink">
    <!-- Generator: Sketch 43.2 (39069) - http://www.bohemiancoding.com/sketch -->
    <title>Chat Ai Robot</title>
    <desc>Created with Sketch.</desc>
    <defs>
        <linearGradient x1="55.5655043%" y1="-0.128857841%" x2="44.5581971%" y2="98.9397401%" id="linearGradient-1">
            <stop stop-color="#1B3244" offset="0%"></stop>
            <stop stop-color="#196193" offset="99.46%"></stop>
        </linearGradient>
        <linearGradient x1="55.0758253%" y1="-1.28924289%" x2="45.1571933%" y2="98.917831%" id="linearGradient-2">
            <stop stop-color="#45B2F5" offset="0%"></stop>
            <stop stop-color="#6AECFE" offset="99.46%"></stop>
        </linearGradient>
        <linearGradient x1="48.1101952%" y1="-19.0206393%" x2="52.4681911%" y2="140.791416%" id="linearGradient-3">
            <stop stop-color="#6AECFE" stop-opacity="0" offset="0%"></stop>
            <stop stop-color="#FFFFFF" offset="100%"></stop>
        </linearGradient>
        <linearGradient x1="49.9538153%" y1="20.5737864%" x2="49.9538153%" y2="103.438511%" id="linearGradient-4">
            <stop stop-color="#1D1F22" offset="0%"></stop>
            <stop stop-color="#1D2225" offset="16.71%"></stop>
            <stop stop-color="#1F2C30" offset="30.55%"></stop>
            <stop stop-color="#213D41" offset="43.37%"></stop>
            <stop stop-color="#255459" offset="55.57%"></stop>
            <stop stop-color="#297279" offset="67.34%"></stop>
            <stop stop-color="#2F989F" offset="78.77%"></stop>
            <stop stop-color="#35C3CC" offset="89.73%"></stop>
            <stop stop-color="#3CF2FD" offset="100%"></stop>
        </linearGradient>
        <linearGradient x1="49.0875303%" y1="17.0790179%" x2="51.0139225%" y2="89.6885417%" id="linearGradient-5">
            <stop stop-color="#1D1F22" offset="0%"></stop>
            <stop stop-color="#5B4641" offset="100%"></stop>
        </linearGradient>
        <radialGradient cx="49.7668874%" cy="50.052657%" fx="49.7668874%" fy="50.052657%" r="59.9337748%" gradientTransform="translate(0.497669,0.500527),scale(1.000000,0.729469),translate(-0.497669,-0.500527)" id="radialGradient-6">
            <stop stop-color="#8DC63F" offset="0%"></stop>
            <stop stop-color="#88C33F" offset="14.67%"></stop>
            <stop stop-color="#7AB93E" offset="32.02%"></stop>
            <stop stop-color="#62A93D" offset="50.74%"></stop>
            <stop stop-color="#41933B" offset="70.42%"></stop>
            <stop stop-color="#167739" offset="90.65%"></stop>
            <stop stop-color="#006838" offset="100%"></stop>
        </radialGradient>
        <linearGradient x1="49.9578755%" y1="2.79069767%" x2="49.9578755%" y2="151.91814%" id="linearGradient-7">
            <stop stop-color="#1D1F22" offset="0%"></stop>
            <stop stop-color="#1E2327" offset="12.16%"></stop>
            <stop stop-color="#203034" offset="25.62%"></stop>
            <stop stop-color="#23464A" offset="39.72%"></stop>
            <stop stop-color="#276369" offset="54.26%"></stop>
            <stop stop-color="#2D8A91" offset="69.14%"></stop>
            <stop stop-color="#34B9C2" offset="84.3%"></stop>
            <stop stop-color="#3CF0FB" offset="99.43%"></stop>
            <stop stop-color="#3CF2FD" offset="100%"></stop>
        </linearGradient>
        <linearGradient x1="49.9578755%" y1="15.1934884%" x2="49.9578755%" y2="98.9293023%" id="linearGradient-8">
            <stop stop-color="#1D1F22" offset="0%"></stop>
            <stop stop-color="#1D2225" offset="16.71%"></stop>
            <stop stop-color="#1F2C30" offset="30.55%"></stop>
            <stop stop-color="#213D41" offset="43.37%"></stop>
            <stop stop-color="#255459" offset="55.57%"></stop>
            <stop stop-color="#297279" offset="67.34%"></stop>
            <stop stop-color="#2F989F" offset="78.77%"></stop>
            <stop stop-color="#35C3CC" offset="89.73%"></stop>
            <stop stop-color="#3CF2FD" offset="100%"></stop>
        </linearGradient>
        <linearGradient x1="76.0457375%" y1="11.9307275%" x2="23.1069613%" y2="82.6462594%" id="linearGradient-9">
            <stop stop-color="#1D1F22" offset="0%"></stop>
            <stop stop-color="#5B4641" offset="100%"></stop>
        </linearGradient>
        <linearGradient x1="49.3086435%" y1="14.2110788%" x2="50.548834%" y2="65.5140604%" id="linearGradient-10">
            <stop stop-color="#5B4641" offset="0%"></stop>
            <stop stop-color="#1D1F22" offset="100%"></stop>
        </linearGradient>
        <linearGradient x1="64.4760253%" y1="-10.7080568%" x2="53.9170078%" y2="38.5175474%" id="linearGradient-11">
            <stop stop-color="#C9B1A6" offset="0%"></stop>
            <stop stop-color="#D4BCB0" offset="12.22%"></stop>
            <stop stop-color="#ECD2C6" offset="44.52%"></stop>
            <stop stop-color="#FAE0D3" offset="74.58%"></stop>
            <stop stop-color="#FFE5D8" offset="100%"></stop>
        </linearGradient>
        <linearGradient x1="49.8639249%" y1="24.1069762%" x2="51.6611687%" y2="73.6152009%" id="linearGradient-12">
            <stop stop-color="#5B4641" offset="0%"></stop>
            <stop stop-color="#1D1F22" offset="100%"></stop>
        </linearGradient>
        <linearGradient x1="59.6140223%" y1="6.05595642%" x2="51.8081415%" y2="41.38258%" id="linearGradient-13">
            <stop stop-color="#C9B1A6" offset="0%"></stop>
            <stop stop-color="#D4BCB0" offset="12.22%"></stop>
            <stop stop-color="#ECD2C6" offset="44.52%"></stop>
            <stop stop-color="#FAE0D3" offset="74.58%"></stop>
            <stop stop-color="#FFE5D8" offset="100%"></stop>
        </linearGradient>
        <linearGradient x1="49.0577197%" y1="11.4929867%" x2="50.754465%" y2="68.2804013%" id="linearGradient-14">
            <stop stop-color="#5B4641" offset="0%"></stop>
            <stop stop-color="#1D1F22" offset="100%"></stop>
        </linearGradient>
        <linearGradient x1="58.6644559%" y1="8.20556182%" x2="42.7544257%" y2="64.3910138%" id="linearGradient-15">
            <stop stop-color="#C9B1A6" offset="0%"></stop>
            <stop stop-color="#D4BCB0" offset="12.22%"></stop>
            <stop stop-color="#ECD2C6" offset="44.52%"></stop>
            <stop stop-color="#FAE0D3" offset="74.58%"></stop>
            <stop stop-color="#FFE5D8" offset="100%"></stop>
        </linearGradient>
        <linearGradient x1="3.03308184%" y1="15.6447256%" x2="100.407986%" y2="89.0571458%" id="linearGradient-16">
            <stop stop-color="#5B4641" offset="0%"></stop>
            <stop stop-color="#1D1F22" offset="100%"></stop>
        </linearGradient>
        <linearGradient x1="-1.75013506%" y1="42.8432322%" x2="110.795954%" y2="61.0654398%" id="linearGradient-17">
            <stop stop-color="#C9B1A6" offset="0%"></stop>
            <stop stop-color="#D4BCB0" offset="12.22%"></stop>
            <stop stop-color="#ECD2C6" offset="44.52%"></stop>
            <stop stop-color="#FAE0D3" offset="74.58%"></stop>
            <stop stop-color="#FFE5D8" offset="100%"></stop>
        </linearGradient>
        <linearGradient x1="49.0040229%" y1="-10.8138025%" x2="50.3331929%" y2="65.4746685%" id="linearGradient-18">
            <stop stop-color="#5B4641" offset="0%"></stop>
            <stop stop-color="#1D1F22" offset="100%"></stop>
        </linearGradient>
        <linearGradient x1="-2.58331972%" y1="38.2260735%" x2="101.889378%" y2="62.8001084%" id="linearGradient-19">
            <stop stop-color="#5B4641" offset="0%"></stop>
            <stop stop-color="#1D1F22" offset="100%"></stop>
        </linearGradient>
        <linearGradient x1="52.2112625%" y1="1.93204158%" x2="49.8658163%" y2="58.9868421%" id="linearGradient-20">
            <stop stop-color="#C9B1A6" offset="0%"></stop>
            <stop stop-color="#D4BCB0" offset="12.22%"></stop>
            <stop stop-color="#ECD2C6" offset="44.52%"></stop>
            <stop stop-color="#FAE0D3" offset="74.58%"></stop>
            <stop stop-color="#FFE5D8" offset="100%"></stop>
        </linearGradient>
        <linearGradient x1="49.8622916%" y1="0.96847129%" x2="50.1025751%" y2="87.7831185%" id="linearGradient-21">
            <stop stop-color="#C9B1A6" offset="0%"></stop>
            <stop stop-color="#D4BCB0" offset="12.22%"></stop>
            <stop stop-color="#ECD2C6" offset="44.52%"></stop>
            <stop stop-color="#FAE0D3" offset="74.58%"></stop>
            <stop stop-color="#FFE5D8" offset="100%"></stop>
        </linearGradient>
        <linearGradient x1="3.36892499%" y1="5.87130609%" x2="100.24399%" y2="64.2370728%" id="linearGradient-22">
            <stop stop-color="#C9B1A6" offset="0%"></stop>
            <stop stop-color="#D4BCB0" offset="12.22%"></stop>
            <stop stop-color="#ECD2C6" offset="44.52%"></stop>
            <stop stop-color="#FAE0D3" offset="74.58%"></stop>
            <stop stop-color="#FFE5D8" offset="100%"></stop>
        </linearGradient>
        <linearGradient x1="69.6851136%" y1="33.7334757%" x2="34.3056738%" y2="66.8057886%" id="linearGradient-23">
            <stop stop-color="#C9B1A6" offset="0%"></stop>
            <stop stop-color="#D4BCB0" offset="12.22%"></stop>
            <stop stop-color="#ECD2C6" offset="44.52%"></stop>
            <stop stop-color="#FAE0D3" offset="74.58%"></stop>
            <stop stop-color="#FFE5D8" offset="100%"></stop>
        </linearGradient>
        <linearGradient x1="-5.24287523%" y1="41.035587%" x2="102.621145%" y2="66.1484833%" id="linearGradient-24">
            <stop stop-color="#C9B1A6" offset="0%"></stop>
            <stop stop-color="#D4BCB0" offset="12.22%"></stop>
            <stop stop-color="#ECD2C6" offset="44.52%"></stop>
            <stop stop-color="#FAE0D3" offset="74.58%"></stop>
            <stop stop-color="#FFE5D8" offset="100%"></stop>
        </linearGradient>
        <linearGradient x1="63.9215618%" y1="14.4229374%" x2="27.1257317%" y2="71.6374391%" id="linearGradient-25">
            <stop stop-color="#FFE5D8" offset="0%"></stop>
            <stop stop-color="#FAE0D3" offset="25.42%"></stop>
            <stop stop-color="#ECD2C6" offset="55.48%"></stop>
            <stop stop-color="#D4BCB0" offset="87.78%"></stop>
            <stop stop-color="#C9B1A6" offset="100%"></stop>
        </linearGradient>
        <linearGradient x1="50.3914634%" y1="8.33831522%" x2="46.8793341%" y2="74.6339674%" id="linearGradient-26">
            <stop stop-color="#BC9486" offset="0%"></stop>
            <stop stop-color="#BB9385" stop-opacity="0" offset="100%"></stop>
        </linearGradient>
        <linearGradient x1="50.0163754%" y1="7.76631242%" x2="50.0163754%" y2="81.7781146%" id="linearGradient-27">
            <stop stop-color="#FFE5D8" offset="0%"></stop>
            <stop stop-color="#FAE0D3" offset="25.42%"></stop>
            <stop stop-color="#ECD2C6" offset="55.48%"></stop>
            <stop stop-color="#D4BCB0" offset="87.78%"></stop>
            <stop stop-color="#C9B1A6" offset="100%"></stop>
        </linearGradient>
        <linearGradient x1="49.1761637%" y1="-6.65184248%" x2="50.45313%" y2="73.4237244%" id="linearGradient-28">
            <stop stop-color="#BC9486" offset="0%"></stop>
            <stop stop-color="#BB9385" stop-opacity="0" offset="100%"></stop>
        </linearGradient>
        <linearGradient x1="50.1088996%" y1="-8.46903351%" x2="50.1088996%" y2="87.6300617%" id="linearGradient-29">
            <stop stop-color="#FFB19C" offset="0%"></stop>
            <stop stop-color="#FEA592" stop-opacity="0" offset="100%"></stop>
        </linearGradient>
        <linearGradient x1="49.33088%" y1="-9.54418014%" x2="50.0128%" y2="84.1006754%" id="linearGradient-30">
            <stop stop-color="#FEA592" stop-opacity="0" offset="0%"></stop>
            <stop stop-color="#FFB19C" offset="100%"></stop>
        </linearGradient>
        <linearGradient x1="0.268907124%" y1="49.9154229%" x2="100.407513%" y2="49.9154229%" id="linearGradient-31">
            <stop stop-color="#C9B1A6" offset="0%"></stop>
            <stop stop-color="#D4BCB0" offset="12.22%"></stop>
            <stop stop-color="#ECD2C6" offset="44.52%"></stop>
            <stop stop-color="#FAE0D3" offset="74.58%"></stop>
            <stop stop-color="#FFE5D8" offset="100%"></stop>
        </linearGradient>
        <linearGradient x1="90.8219193%" y1="0.326632448%" x2="30.8296824%" y2="76.4520058%" id="linearGradient-32">
            <stop stop-color="#1D1F22" offset="0%"></stop>
            <stop stop-color="#5B4641" offset="100%"></stop>
        </linearGradient>
        <linearGradient x1="24.3003843%" y1="1.52329876%" x2="57.3526735%" y2="91.0537488%" id="linearGradient-33">
            <stop stop-color="#1D1F22" offset="0%"></stop>
            <stop stop-color="#5B4641" offset="100%"></stop>
        </linearGradient>
        <linearGradient x1="50.0363755%" y1="34.5255633%" x2="50.0363755%" y2="87.7878788%" id="linearGradient-34">
            <stop stop-color="#1D1F22" offset="0%"></stop>
            <stop stop-color="#5B4641" offset="100%"></stop>
        </linearGradient>
        <linearGradient x1="49.951377%" y1="10.3552237%" x2="49.951377%" y2="94.4940163%" id="linearGradient-35">
            <stop stop-color="#C9B1A6" offset="0%"></stop>
            <stop stop-color="#D4BCB0" offset="12.22%"></stop>
            <stop stop-color="#ECD2C6" offset="44.52%"></stop>
            <stop stop-color="#FAE0D3" offset="74.58%"></stop>
            <stop stop-color="#FFE5D8" offset="100%"></stop>
        </linearGradient>
        <linearGradient x1="51.7961538%" y1="19.1951178%" x2="46.1015625%" y2="116.494497%" id="linearGradient-36">
            <stop stop-color="#FEA592" stop-opacity="0" offset="0%"></stop>
            <stop stop-color="#FFB19C" offset="100%"></stop>
        </linearGradient>
        <linearGradient x1="70.859704%" y1="2.10215385%" x2="31.7563792%" y2="91.2946154%" id="linearGradient-37">
            <stop stop-color="#BC9486" offset="0%"></stop>
            <stop stop-color="#B99184" offset="23.51%"></stop>
            <stop stop-color="#AE897C" offset="43.11%"></stop>
            <stop stop-color="#9D7B70" offset="61.29%"></stop>
            <stop stop-color="#85685F" offset="78.62%"></stop>
            <stop stop-color="#664E48" offset="95.2%"></stop>
            <stop stop-color="#5B4641" offset="100%"></stop>
        </linearGradient>
        <radialGradient cx="39.6936266%" cy="29.909658%" fx="39.6936266%" fy="29.909658%" r="67.0706077%" gradientTransform="translate(0.396936,0.299097),scale(1.000000,0.473335),translate(-0.396936,-0.299097)" id="radialGradient-38">
            <stop stop-color="#8DC63F" offset="0%"></stop>
            <stop stop-color="#88C33F" offset="14.67%"></stop>
            <stop stop-color="#7AB93E" offset="32.02%"></stop>
            <stop stop-color="#62A93D" offset="50.74%"></stop>
            <stop stop-color="#41933B" offset="70.42%"></stop>
            <stop stop-color="#167739" offset="90.65%"></stop>
            <stop stop-color="#006838" offset="100%"></stop>
        </radialGradient>
        <linearGradient x1="50.2075229%" y1="3.5192978%" x2="50.2075229%" y2="91.1468401%" id="linearGradient-39">
            <stop stop-color="#FEA592" stop-opacity="0" offset="0%"></stop>
            <stop stop-color="#FFB19C" offset="100%"></stop>
        </linearGradient>
        <linearGradient x1="97.618695%" y1="84.6427349%" x2="5.84467127%" y2="13.9579889%" id="linearGradient-40">
            <stop stop-color="#5B4641" offset="0%"></stop>
            <stop stop-color="#1D1F22" offset="100%"></stop>
        </linearGradient>
        <linearGradient x1="58.2598989%" y1="1.84369466%" x2="32.4157272%" y2="102.270027%" id="linearGradient-41">
            <stop stop-color="#FFE5D8" offset="0%"></stop>
            <stop stop-color="#FAE0D3" offset="25.42%"></stop>
            <stop stop-color="#ECD2C6" offset="55.48%"></stop>
            <stop stop-color="#D4BCB0" offset="87.78%"></stop>
            <stop stop-color="#C9B1A6" offset="100%"></stop>
        </linearGradient>
        <linearGradient x1="57.1579208%" y1="4.86669561%" x2="35.254631%" y2="138.682357%" id="linearGradient-42">
            <stop stop-color="#FEA592" stop-opacity="0" offset="0%"></stop>
            <stop stop-color="#FFB19C" offset="100%"></stop>
        </linearGradient>
        <linearGradient x1="30.4925532%" y1="45.5710173%" x2="97.8680851%" y2="52.4259665%" id="linearGradient-43">
            <stop stop-color="#5B4641" offset="0%"></stop>
            <stop stop-color="#1D1F22" offset="100%"></stop>
        </linearGradient>
        <linearGradient x1="32.0959538%" y1="41.1577889%" x2="67.7416185%" y2="63.7708543%" id="linearGradient-44">
            <stop stop-color="#5B4641" offset="0%"></stop>
            <stop stop-color="#1D1F22" offset="100%"></stop>
        </linearGradient>
        <linearGradient x1="-0.233333333%" y1="49.9813472%" x2="99.9618182%" y2="49.9813472%" id="linearGradient-45">
            <stop stop-color="#C9B1A6" offset="0%"></stop>
            <stop stop-color="#D4BCB0" offset="12.22%"></stop>
            <stop stop-color="#ECD2C6" offset="44.52%"></stop>
            <stop stop-color="#FAE0D3" offset="74.58%"></stop>
            <stop stop-color="#FFE5D8" offset="100%"></stop>
        </linearGradient>
        <linearGradient x1="16.0716418%" y1="36.9986547%" x2="77.0171642%" y2="51.1991031%" id="linearGradient-46">
            <stop stop-color="#5B4641" offset="0%"></stop>
            <stop stop-color="#1D1F22" offset="100%"></stop>
        </linearGradient>
        <linearGradient x1="32.1359281%" y1="44.6828854%" x2="70.060479%" y2="60.1219431%" id="linearGradient-47">
            <stop stop-color="#5B4641" offset="0%"></stop>
            <stop stop-color="#1D1F22" offset="100%"></stop>
        </linearGradient>
        <linearGradient x1="-0.0954286022%" y1="49.6589744%" x2="99.5748976%" y2="49.6589744%" id="linearGradient-48">
            <stop stop-color="#C9B1A6" offset="0%"></stop>
            <stop stop-color="#D4BCB0" offset="12.22%"></stop>
            <stop stop-color="#ECD2C6" offset="44.52%"></stop>
            <stop stop-color="#FAE0D3" offset="74.58%"></stop>
            <stop stop-color="#FFE5D8" offset="100%"></stop>
        </linearGradient>
        <linearGradient x1="0.309016393%" y1="50.0781719%" x2="100.551639%" y2="50.0781719%" id="linearGradient-49">
            <stop stop-color="#C9B1A6" offset="0%"></stop>
            <stop stop-color="#D4BCB0" offset="12.22%"></stop>
            <stop stop-color="#ECD2C6" offset="44.52%"></stop>
            <stop stop-color="#FAE0D3" offset="74.58%"></stop>
            <stop stop-color="#FFE5D8" offset="100%"></stop>
        </linearGradient>
        <linearGradient x1="0.404065041%" y1="49.6099057%" x2="100.17561%" y2="49.6099057%" id="linearGradient-50">
            <stop stop-color="#C9B1A6" offset="0%"></stop>
            <stop stop-color="#D4BCB0" offset="12.22%"></stop>
            <stop stop-color="#ECD2C6" offset="44.52%"></stop>
            <stop stop-color="#FAE0D3" offset="74.58%"></stop>
            <stop stop-color="#FFE5D8" offset="100%"></stop>
        </linearGradient>
        <linearGradient x1="-0.415843563%" y1="50.0842086%" x2="99.8845072%" y2="50.0842086%" id="linearGradient-51">
            <stop stop-color="#5B4641" offset="0%"></stop>
            <stop stop-color="#1D1F22" offset="100%"></stop>
        </linearGradient>
        <linearGradient x1="24.696306%" y1="32.0339332%" x2="47.5385219%" y2="50.0287918%" id="linearGradient-52">
            <stop stop-color="#C9B1A6" offset="0%"></stop>
            <stop stop-color="#D4BCB0" offset="12.22%"></stop>
            <stop stop-color="#ECD2C6" offset="44.52%"></stop>
            <stop stop-color="#FAE0D3" offset="74.58%"></stop>
            <stop stop-color="#FFE5D8" offset="100%"></stop>
        </linearGradient>
        <linearGradient x1="-0.131219887%" y1="50.0139747%" x2="99.8754575%" y2="50.0139747%" id="linearGradient-53">
            <stop stop-color="#C9B1A6" offset="0%"></stop>
            <stop stop-color="#D4BCB0" offset="12.22%"></stop>
            <stop stop-color="#ECD2C6" offset="44.52%"></stop>
            <stop stop-color="#FAE0D3" offset="74.58%"></stop>
            <stop stop-color="#FFE5D8" offset="100%"></stop>
        </linearGradient>
        <linearGradient x1="0.0190348525%" y1="49.9608333%" x2="99.9281501%" y2="49.9608333%" id="linearGradient-54">
            <stop stop-color="#5B4641" offset="0%"></stop>
            <stop stop-color="#1D1F22" offset="100%"></stop>
        </linearGradient>
        <linearGradient x1="99.1962467%" y1="52.7134732%" x2="-10.2574975%" y2="47.034075%" id="linearGradient-55">
            <stop stop-color="#C9B1A6" offset="0%"></stop>
            <stop stop-color="#D4BCB0" offset="12.22%"></stop>
            <stop stop-color="#ECD2C6" offset="44.52%"></stop>
            <stop stop-color="#FAE0D3" offset="74.58%"></stop>
            <stop stop-color="#FFE5D8" offset="100%"></stop>
        </linearGradient>
        <linearGradient x1="50.0050048%" y1="0.360344828%" x2="50.0050048%" y2="100.2%" id="linearGradient-56">
            <stop stop-color="#1B3244" offset="0%"></stop>
            <stop stop-color="#196193" offset="99.46%"></stop>
        </linearGradient>
        <linearGradient x1="0%" y1="50.0276178%" x2="100%" y2="50.0276178%" id="linearGradient-57">
            <stop stop-color="#FFE5D8" offset="0%"></stop>
            <stop stop-color="#FAE0D3" offset="25.42%"></stop>
            <stop stop-color="#ECD2C6" offset="55.48%"></stop>
            <stop stop-color="#D4BCB0" offset="87.78%"></stop>
            <stop stop-color="#C9B1A6" offset="100%"></stop>
        </linearGradient>
        <linearGradient x1="-0.164642857%" y1="50.0276178%" x2="99.8353571%" y2="50.0276178%" id="linearGradient-58">
            <stop stop-color="#FFE5D8" offset="0%"></stop>
            <stop stop-color="#FAE0D3" offset="25.42%"></stop>
            <stop stop-color="#ECD2C6" offset="55.48%"></stop>
            <stop stop-color="#D4BCB0" offset="87.78%"></stop>
            <stop stop-color="#C9B1A6" offset="100%"></stop>
        </linearGradient>
    </defs>
    <g id="Page-1" stroke="none" stroke-width="1" fill="none" fill-rule="evenodd">
        <g id="Chat-Ai-Robot" transform="translate(-4.000000, 0.000000)">
            <g id="XMLID_359_" transform="translate(239.000000, 0.000000)" fill-rule="nonzero">
                <g id="XMLID_142_" transform="translate(140.000000, 223.000000)">
                    <path d="M54.1,0.3 L363.6,0.3 C371.5,0.3 376.6,6.7 375,14.6 L339.4,182.4 C337.7,190.3 329.9,196.7 322,196.7 L12.5,196.7 C4.6,196.7 -0.5,190.3 1.1,182.4 L36.7,14.6 C38.3,6.7 46.1,0.3 54.1,0.3 Z" id="XMLID_323_" fill="url(#linearGradient-1)"></path>
                    <polygon id="XMLID_146_" fill="url(#linearGradient-2)" points="45.1 17.8 365.2 17.8 330 183.8 9.9 183.8"></polygon>
                    <path d="M365.2,17.8 L45.1,17.8 L21.9,127.3 C136.9,111.4 251.1,88.2 358.6,49 L365.2,17.8 Z" id="XMLID_157_" fill="url(#linearGradient-3)"></path>
                </g>
                <g id="XMLID_1_" transform="translate(59.000000, 0.000000)">
                    <g id="XMLID_135_" transform="translate(211.000000, 257.000000)">
                        <rect id="XMLID_42_" fill="url(#linearGradient-4)" x="31.1" y="57.1" width="24.9" height="92.7"></rect>
                        <ellipse id="XMLID_41_" fill="url(#linearGradient-5)" cx="41.8" cy="33.8" rx="41.3" ry="33.6"></ellipse>
                        <g id="XMLID_164_" transform="translate(0.000000, 36.000000)" fill="#211918">
                            <path d="M7.8,9.6 C19.2,21 36.2,26.7 52.2,24.3 C62.4,22.8 72,18.1 79.6,11.3 C73.2,23.1 58.7,31.4 41.8,31.4 C20.2,31.4 2.5,17.9 0.7,0.7 C2.7,3.9 5.1,6.9 7.8,9.6 Z" id="XMLID_177_"></path>
                        </g>
                        <path d="M9,23.3 C12.2,24.1 15.8,24.9 19.1,24.6 C17.8,30.1 20.2,36.3 25,39.5 C29.7,42.7 36.4,42.6 41,39.3 C45.6,36 47.9,30.2 46.4,24.7 L58.7,24.7 C48.7,12.5 32.5,6.1 17.6,11.5 C15,12.4 12.5,13.6 10.6,15.6 C8.8,17.4 8.7,20.6 9,23.3 Z" id="XMLID_35_" fill="#211918"></path>
                        <circle id="XMLID_31_" fill="#0E1316" cx="32.2" cy="26.9" r="11.1"></circle>
                        <g id="XMLID_175_" transform="translate(28.000000, 15.000000)" fill="url(#radialGradient-6)">
                            <path d="M0.3,10.6 C0.3,6.5 2.6,2.8 5.9,0.9 C11.3,1.7 15.4,6.3 15.4,11.9 C15.4,16 13.1,19.7 9.8,21.6 C4.4,20.8 0.3,16.2 0.3,10.6 Z" id="XMLID_176_"></path>
                        </g>
                        <g id="XMLID_34_" transform="translate(29.000000, 73.000000)">
                            <path d="M0.5,9.2 C9.5,11.4 18.8,11.4 27.8,9.2 L27.8,0.1 C18.8,2.3 9.5,2.3 0.5,0.1 L0.5,9.2 Z" id="XMLID_100_" fill="#211918"></path>
                            <path d="M27.8,0 C27.8,0 27.4,0.1 26.6,0.2 C25.9,0.3 24.8,0.4 23.5,0.6 C22.9,0.7 22.2,0.8 21.4,0.8 C20.7,0.9 19.9,0.9 19.1,1 C17.5,1.1 15.8,1.2 14.1,1.2 C12.4,1.2 10.7,1.1 9.1,1 C8.3,0.9 7.5,0.9 6.8,0.8 C6.1,0.7 5.4,0.7 4.7,0.6 C3.4,0.4 2.4,0.3 1.6,0.2 C0.9,0.1 0.4,0 0.4,0 C0.4,0 0.8,0.1 1.5,0.4 C1.9,0.5 2.3,0.6 2.8,0.8 C3.3,0.9 3.9,1.1 4.5,1.2 C5.8,1.5 7.3,1.7 8.9,1.9 C9.7,2 10.5,2.1 11.4,2.1 C12.3,2.2 13.1,2.2 14,2.2 C14.9,2.2 15.7,2.2 16.6,2.1 C17.5,2.1 18.3,2 19.1,1.9 C20.7,1.7 22.2,1.5 23.5,1.2 C24.1,1.1 24.7,0.9 25.2,0.8 C25.7,0.7 26.2,0.6 26.5,0.4 C27.4,0.2 27.8,0 27.8,0 Z" id="XMLID_98_" fill="#FCE4D8"></path>
                        </g>
                        <path d="M31.1,24.8 C31.2,22.7 31.9,20.7 33,19 C31.3,20.6 30.1,22.5 30,24.8 C30.4,24.8 31.2,25 31.1,24.8 Z" id="XMLID_32_" fill="#FFFFFF"></path>
                        <path d="M31.7,29.8 C31.3,28.5 31.2,27.1 31.2,25.8 L30.1,25.8 C30.2,27.2 30.9,28.5 31.7,29.8 Z" id="XMLID_37_" fill="#FFFFFF"></path>
                        <g id="XMLID_38_" transform="translate(29.000000, 93.000000)">
                            <path d="M28.2,9.7 C19.2,11.9 9.9,11.9 0.9,9.7 L0.9,0.6 C9.9,2.8 19.2,2.8 28.2,0.6 L28.2,9.7 Z" id="XMLID_40_" fill="#211918"></path>
                            <path d="M0.9,0.6 C0.9,0.6 1.3,0.7 2.1,0.8 C2.8,0.9 3.9,1 5.2,1.2 C5.8,1.3 6.5,1.4 7.3,1.4 C8,1.5 8.8,1.5 9.6,1.6 C11.2,1.7 12.9,1.8 14.6,1.8 C16.3,1.8 18,1.7 19.6,1.6 C20.4,1.5 21.2,1.5 21.9,1.4 C22.6,1.3 23.3,1.3 24,1.2 C25.3,1 26.3,0.9 27.1,0.8 C27.8,0.7 28.3,0.6 28.3,0.6 C28.3,0.6 27.9,0.7 27.2,1 C26.8,1.1 26.4,1.2 25.9,1.4 C25.4,1.5 24.8,1.7 24.2,1.8 C22.9,2.1 21.4,2.3 19.8,2.5 C19,2.6 18.2,2.7 17.3,2.7 C16.4,2.8 15.6,2.8 14.7,2.8 C13.8,2.8 13,2.8 12.1,2.7 C11.2,2.7 10.4,2.6 9.6,2.5 C8,2.3 6.5,2.1 5.2,1.8 C4.6,1.7 4,1.5 3.5,1.4 C3,1.3 2.5,1.2 2.2,1 C1.3,0.7 0.9,0.6 0.9,0.6 Z" id="XMLID_39_" fill="#FCE4D8"></path>
                        </g>
                        <g id="XMLID_108_" transform="translate(29.000000, 114.000000)">
                            <path d="M28.2,9.3 C19.2,11.5 9.9,11.5 0.9,9.3 L0.9,0.2 C9.9,2.4 19.2,2.4 28.2,0.2 L28.2,9.3 Z" id="XMLID_163_" fill="url(#linearGradient-7)"></path>
                            <path d="M0.9,0.1 C0.9,0.1 1.3,0.2 2.1,0.3 C2.8,0.4 3.9,0.5 5.2,0.7 C5.8,0.8 6.5,0.9 7.3,0.9 C8,1 8.8,1 9.6,1.1 C11.2,1.2 12.9,1.3 14.6,1.3 C16.3,1.3 18,1.2 19.6,1.1 C20.4,1 21.2,1 21.9,0.9 C22.6,0.8 23.3,0.8 24,0.7 C25.3,0.5 26.3,0.4 27.1,0.3 C27.8,0.2 28.3,0.1 28.3,0.1 C28.3,0.1 27.9,0.2 27.2,0.5 C26.8,0.6 26.4,0.7 25.9,0.9 C25.4,1 24.8,1.2 24.2,1.3 C22.9,1.6 21.4,1.8 19.8,2 C19,2.1 18.2,2.2 17.3,2.2 C16.4,2.3 15.6,2.3 14.7,2.3 C13.8,2.3 13,2.3 12.1,2.2 C11.2,2.2 10.4,2.1 9.6,2 C8,1.8 6.5,1.6 5.2,1.3 C4.6,1.2 4,1 3.5,0.9 C3,0.8 2.5,0.7 2.2,0.5 C1.3,0.3 0.9,0.1 0.9,0.1 Z" id="XMLID_109_" fill="#FCE4D8"></path>
                        </g>
                        <g id="XMLID_170_" transform="translate(29.000000, 134.000000)">
                            <path d="M28.2,9.8 C19.2,12 9.9,12 0.9,9.8 L0.9,0.7 C9.9,2.9 19.2,2.9 28.2,0.7 L28.2,9.8 Z" id="XMLID_172_" fill="url(#linearGradient-8)"></path>
                            <path d="M0.9,0.7 C0.9,0.7 1.3,0.8 2.1,0.9 C2.8,1 3.9,1.1 5.2,1.3 C5.8,1.4 6.5,1.5 7.3,1.5 C8,1.6 8.8,1.6 9.6,1.7 C11.2,1.8 12.9,1.9 14.6,1.9 C16.3,1.9 18,1.8 19.6,1.7 C20.4,1.6 21.2,1.6 21.9,1.5 C22.6,1.4 23.3,1.4 24,1.3 C25.3,1.1 26.3,1 27.1,0.9 C27.8,0.8 28.3,0.7 28.3,0.7 C28.3,0.7 27.9,0.8 27.2,1.1 C26.8,1.2 26.4,1.3 25.9,1.5 C25.4,1.6 24.8,1.8 24.2,1.9 C22.9,2.2 21.4,2.4 19.8,2.6 C19,2.7 18.2,2.8 17.3,2.8 C16.4,2.9 15.6,2.9 14.7,2.9 C13.8,2.9 13,2.9 12.1,2.8 C11.2,2.8 10.4,2.7 9.6,2.6 C8,2.4 6.5,2.2 5.2,1.9 C4.6,1.8 4,1.6 3.5,1.5 C3,1.4 2.5,1.3 2.2,1.1 C1.3,0.8 0.9,0.7 0.9,0.7 Z" id="XMLID_171_" fill="#FCE4D8"></path>
                        </g>
                    </g>
                    <g id="XMLID_138_">
                        <path d="M186.3,251 C179.5,263.8 172.3,276.5 165.5,289.3 C162.6,284.7 150.8,271.9 147.9,267.4 C160.8,248.3 169.3,233.3 177.4,217.6 C179,214.4 186.8,220.8 190.3,221.4 C193.8,222.1 196.4,225.4 196.9,228.9 C197.4,232.4 196.2,236 194.2,239 C192.4,241.8 188,247.8 186.3,251 Z" id="XMLID_14_" fill="url(#linearGradient-9)"></path>
                        <path d="M197,228.8 C196.5,225.3 193.8,222 190.4,221.3 C186.9,220.6 179.1,214.3 177.5,217.5 C175.4,221.6 173.2,225.7 171,229.9 C175.4,239.3 179.6,248.8 182.3,258.6 C183.7,256.1 185.1,253.5 186.4,250.9 C188.1,247.8 192.4,241.8 194.4,238.8 C196.3,235.9 197.5,232.3 197,228.8 Z" id="XMLID_112_" fill="#211918"></path>
                        <g id="XMLID_79_" transform="translate(0.000000, 158.000000)">
                            <path d="M52.5,37.7 C52.7,38 52.9,38.3 53.1,38.6 C52.7,35.3 52.4,32 52,28.7 C41.6,31.2 30.9,32.2 20.2,31.6 C20.9,35 22,39 22.7,42.4 C32.3,43.1 43.4,40.8 52.5,37.7 Z" id="XMLID_71_" fill="url(#linearGradient-10)"></path>
                            <path d="M4.1,31.1 C10.8,28.8 18.3,29 24.9,31.7 C24.9,35 25,38.3 25,41.6 C17.1,40.9 9.1,37.2 4.1,31.1 Z" id="XMLID_70_" fill="url(#linearGradient-11)"></path>
                            <path d="M49.7,43.6 C49.4,40.2 49.9,36.5 49.6,33.1 C40,36.2 29.9,37.9 19.8,38 C19.7,41.2 20.1,44.6 21.3,47.5 C30.9,46.2 40.1,44.9 49.7,43.6 Z" id="XMLID_69_" fill="url(#linearGradient-12)"></path>
                            <path d="M22.6,47.5 C22.9,44.1 22.1,41.2 22.4,37.8 C16.3,32.3 8.4,30.4 0.3,31.3 C1.8,33.9 3.9,36.2 6.5,38 C11.6,41.5 16.6,45.6 22.6,47.5 Z" id="XMLID_68_" fill="url(#linearGradient-13)"></path>
                            <path d="M46.9,50 C46.7,47.2 46.6,44.4 46.4,41.6 C36.4,42 26.4,43.3 16.5,45.5 C17.4,48.2 18.2,50.6 19.1,53.3 C28.6,53.8 37.7,52.5 46.9,50 Z" id="XMLID_66_" fill="url(#linearGradient-14)"></path>
                            <path d="M13.4,48.8 C9.1,44.7 4.8,40.6 0.5,36.5 C4.9,35.7 9.5,35.6 13.4,37.7 C16,39.1 18.3,41.3 19.3,44 C20.3,46.8 19.8,50.2 17.5,52.1 C16.4,51.5 14.3,49.6 13.4,48.8 Z" id="XMLID_65_" fill="url(#linearGradient-15)"></path>
                            <path d="M50.5,55.6 C41.2,56 32,55.8 22.7,56.3 C22.3,54.1 22.6,53 22.2,50.8 C31.2,49.7 40.2,48.1 49,45.9 C49.7,49 49.8,52.5 50.5,55.6 Z" id="XMLID_63_" fill="url(#linearGradient-16)"></path>
                            <path d="M45.9,33.3 C44.9,37.4 45.3,41.6 45.8,45.8 C46,47.9 46.7,50.4 48.7,50.9 C49.5,51.1 50.3,50.9 51.2,50.8 C53.4,50.3 55.7,49.8 57.9,49.4 C58.6,49.3 59.3,49.1 59.6,48.5 C59.9,48 59.8,47.4 59.8,46.9 C59,40.4 62.2,31.7 57.4,27.3 C52,22.3 46.9,29.6 45.9,33.3 Z" id="XMLID_67_" fill="url(#linearGradient-17)"></path>
                            <path d="M78.9,27.1 C72.8,24 67.3,19.9 62.6,15 C58.9,15.7 55.3,16.7 52.3,18.9 C57.3,23 60.9,25.3 64,30.5 C69.6,29.2 73.4,28.4 78.9,27.1 Z" id="XMLID_62_" fill="url(#linearGradient-18)"></path>
                            <path d="M97.4,43.5 C97.4,43.5 77.9,53 71.6,73.7 L97.3,75.6 L97.4,43.5 Z" id="XMLID_58_" fill="#211918"></path>
                            <path d="M88,72.4 C93.8,72.1 98.9,67.6 99.1,61.8 C93.8,55.4 88.6,49 83.3,42.6 C80.2,45.7 76.9,48.2 73.8,51.2 C78.6,59 83.4,64.7 88,72.4 Z" id="XMLID_59_" fill="url(#linearGradient-19)"></path>
                            <path d="M50.6,46.4 C49.4,39.5 49.9,32.4 51.9,25.9 C56.5,24.9 61.4,24 66.1,23.9 C70.8,23.8 75.7,24.9 79.8,27.7 C83.9,30.5 87.9,35.7 88.3,41 C88.9,49 78.3,53.2 71.2,54.1 C64.1,55 52,54.3 50.6,46.4 Z" id="XMLID_61_" fill="url(#linearGradient-20)"></path>
                            <path d="M46.5,57.9 C45.9,53.6 45.9,47.4 45.3,43.1 C50.8,37.5 58,37.1 65.9,37.3 C73.8,37.5 81.5,41.1 86.7,47 C83.1,53.8 76.1,57.4 68.6,58.9 C61,60.5 54.1,58.6 46.5,57.9 Z" id="XMLID_60_" fill="url(#linearGradient-21)"></path>
                            <path d="M24,50.6 C20.9,48.8 17.4,48.5 13.9,47.9 C10.3,47.3 6.2,48.2 4,51 C10.5,52.7 16.9,55.4 23.4,57 C23.8,54.9 24.5,52.6 24,50.6 Z" id="XMLID_64_" fill="url(#linearGradient-22)"></path>
                            <g id="XMLID_144_" transform="translate(71.000000, 43.000000)">
                                <path d="M98.4,60 C75.2,38.9 51.2,19.6 26.4,0.5 C21.7,13.2 12.4,24.1 0.6,30.7 C14.4,54 30.2,75.6 47.6,96.1 C58.6,109.1 78.7,109.9 90.3,97.4 C90.6,97.1 90.9,96.7 91.2,96.4 C99.1,87.1 107.5,68.3 98.4,60 Z" id="XMLID_57_" fill="url(#linearGradient-23)"></path>
                                <path d="M95.4,59 C74,39.6 51.9,21.8 29,4.1 C28.1,6.4 27.1,8.7 25.9,10.9 C50.2,34.7 75.8,57.8 90.6,90.1 C97.3,81 103.1,66 95.4,59 Z" id="XMLID_143_" fill="#FCFDF8" opacity="0.3"></path>
                                <g id="XMLID_137_" transform="translate(4.000000, 24.000000)" fill="#FFFFFF">
                                    <g id="XMLID_145_" transform="translate(0.000000, 4.000000)">
                                        <polygon id="XMLID_151_" points="75.7 76.8 66.1 68.4 56.6 60 56.8 60.1 47.9 60.7 47.7 60.7 47.6 60.6 32 44.4 31.8 44.2 31.9 44 34.3 35.6 34.3 36 25.9 27.1 17.4 18.2 9 9.3 0.6 0.3 9.3 9 17.8 17.8 26.4 26.6 34.9 35.4 35 35.6 35 35.8 32.7 44.2 32.6 43.9 48.1 60.2 47.8 60 56.8 59.5 56.9 59.5 57 59.6 66.3 68.2"></polygon>
                                    </g>
                                    <g id="XMLID_141_" transform="translate(5.000000, 0.000000)">
                                        <path d="M78.9,75.8 C78.9,75.8 77.6,74.7 75.2,72.9 C74.1,71.9 72.7,70.8 71.1,69.4 C69.5,68 67.8,66.5 65.9,64.8 C62.1,61.4 57.7,57.3 53.1,53 C48.5,48.6 43.6,43.9 38.7,39.2 C33.9,34.4 29,29.7 24.5,25.2 C20,20.7 15.8,16.5 12.2,12.9 C8.6,9.3 5.7,6.2 3.6,4.1 C1.5,2 0.4,0.7 0.4,0.7 C0.4,0.7 19.9,19.7 39.3,38.6 C44.2,43.4 49,48.1 53.6,52.5 C55.9,54.7 58.1,56.8 60.2,58.9 C62.3,60.9 64.3,62.8 66.2,64.6 C68.1,66.3 69.8,67.9 71.3,69.3 C72.8,70.7 74.2,71.9 75.3,72.9 C77.6,74.7 78.9,75.8 78.9,75.8 Z" id="XMLID_149_"></path>
                                    </g>
                                </g>
                                <g id="XMLID_136_" transform="translate(4.000000, 24.000000)" fill="#5B4641">
                                    <g id="XMLID_73_" transform="translate(0.000000, 3.000000)">
                                        <polygon id="XMLID_140_" points="75.7 77.8 56.8 60.8 47.8 61.4 32.3 45.1 34.6 36.7 0.6 1.3 1.2 0.8 35.5 36.5 33.2 44.9 48.2 60.6 57.1 60 57.2 60.1 76.2 77.2"></polygon>
                                    </g>
                                    <g id="XMLID_72_" transform="translate(5.000000, 0.000000)">
                                        <path d="M78.9,75.8 C62.2,62.7 1,1.2 0.4,0.6 L1,0 C1.6,0.6 62.8,62.1 79.4,75.1 L78.9,75.8 Z" id="XMLID_139_"></path>
                                    </g>
                                </g>
                                <path d="M93.1,72.4 C94.7,69.5 94.2,65.8 92.7,62.9 C91.2,60 88.8,57.6 86.3,55.4 C81.4,50.9 76.2,46.6 70.8,42.6 C77.5,50.4 83.1,59.6 87.8,68.8 C88.4,69.9 89,71.1 90,71.8 C91,72.5 92.5,73.5 93.1,72.4 Z" id="XMLID_134_" fill="#FFFFFF"></path>
                            </g>
                            <path d="M52.4,21.2 C56.4,18.6 60,17.1 64.6,15.8 C62.2,14.2 60.6,11.3 59.4,8.7 C58.1,6.1 57.1,3.4 55.4,1 C52.9,0.3 49.9,0.7 48.5,3 C45.1,8.3 50.2,15.4 52.4,21.2 Z" id="XMLID_75_" fill="url(#linearGradient-24)"></path>
                            <path d="M50.4,12.5 C48.4,9.8 48.2,5.9 49.8,3 C50,2.6 50.8,2.1 51.1,2.4 C51.5,2.7 51.6,3.2 51.5,3.7 C51.4,4.2 51.2,4.6 51,5 C50,7.4 49.7,10 50.4,12.5 Z" id="XMLID_77_" fill="#FCFDF8" opacity="0.3"></path>
                            <path d="M72,42.9 C65.7,40.1 58,40.4 52,43.9 C52.1,45 51.8,46.4 51.9,47.5 C57.9,44.2 65.3,42 72,42.9 Z" id="XMLID_78_" fill="#FFFFFF"></path>
                        </g>
                        <g id="XMLID_81_" transform="translate(171.000000, 172.000000)">
                            <path d="M39.9,15.9 C31.5,14.8 22.6,16.8 15.6,21.5 C8.5,26.2 3.2,33.6 1.1,41.8 C-2.7,56.2 12.2,68.4 22.2,79.4 L39.9,15.9 Z" id="XMLID_36_" fill="url(#linearGradient-25)"></path>
                            <path d="M0.8,42.7 C9.2,48.2 20.1,48.3 30.6,48.9 L22,79.5 C12.3,68.7 -2.2,56.7 0.8,42.7 Z" id="XMLID_121_" fill="url(#linearGradient-26)"></path>
                            <path d="M134.1,102.5 C146.5,86.1 152.7,65.1 151.2,44.5 C150.4,34.3 148.6,23.9 141.4,16.6 C138.5,13.7 134.1,11.1 130.5,13.1 C128,14.4 126.9,17.4 126.2,20.2 C118.9,47.2 121.5,77.6 134.1,102.5 Z" id="XMLID_76_" fill="#BC9486"></path>
                            <path d="M129,100.7 C141.4,84.3 147.6,63.3 146.1,42.7 C145.3,32.5 143.5,22.1 136.3,14.8 C133.4,11.9 129,9.3 125.4,11.3 C122.9,12.6 121.8,15.6 121.1,18.4 C113.8,45.4 116.3,75.8 129,100.7 Z" id="XMLID_74_" fill="#5B4641"></path>
                            <path d="M23.7,18.5 C60.7,-3.5 109.1,-5.1 147.4,14.5 C141.2,15.1 136.4,18.3 132.3,23 C128.2,27.7 125.7,33.7 124.5,39.8 C120.8,58 128.9,78 144.1,88.5 C141.2,101.5 137.3,113.9 129.9,125 C126.2,130.6 114.9,126.7 109,123.6 C103.1,120.5 98.5,115.5 93.6,110.9 C88.7,106.3 83.3,101.9 76.7,100.6 C67.2,98.6 56.7,104.2 53,113.1 C51.3,117.2 50.7,122.2 47.1,124.9 C43.8,127.3 39.1,126.8 35.4,125 C27.9,121.4 23.3,113.7 20.1,106 C8.8,78.9 5.7,44.6 23.7,18.5 Z" id="XMLID_33_" fill="url(#linearGradient-27)"></path>
                            <path d="M39.8,77.7 C58.2,70.7 79.2,71.9 97.8,78.4 C113.3,83.8 127.4,92.5 140.4,102.6 C137.9,110.5 134.6,118.1 129.9,125.1 C126.2,130.7 114.9,126.8 109,123.7 C103.1,120.6 98.5,115.6 93.6,111 C88.7,106.4 83.3,102 76.7,100.7 C67.2,98.7 56.7,104.3 53,113.2 C51.3,117.3 50.7,122.3 47.1,125 C43.8,127.4 39.1,126.9 35.4,125.1 C27.9,121.5 23.3,113.8 20.1,106.1 C18.5,102.2 17,98.1 15.8,94 C22.4,86.8 30.7,81.1 39.8,77.7 Z" id="XMLID_120_" fill="url(#linearGradient-28)"></path>
                            <path d="M121.3,46.1 C122.4,32.7 129.4,19.9 139.4,10.8 C142.1,11.9 144.8,13.2 147.4,14.5 C141.2,15.1 136.4,18.3 132.3,23 C128.2,27.7 125.7,33.7 124.5,39.8 C120.8,58 128.9,78 144.1,88.5 C141.2,101.5 137.3,113.9 129.9,125 C128.3,127.4 125.3,128.1 121.9,127.8 C128.3,115 133.3,101.3 136.4,87.6 C126.2,76.6 120.1,61.1 121.3,46.1 Z" id="XMLID_119_" fill="url(#linearGradient-29)"></path>
                            <path d="M23.7,18.5 C60.7,-3.5 109.1,-5.1 147.4,14.5 C144.8,14.7 142.4,15.4 140.3,16.5 C101.9,5.3 60,6.8 22.4,20.4 C22.8,19.8 23.3,19.2 23.7,18.5 Z" id="XMLID_110_" fill="url(#linearGradient-30)"></path>
                            <path d="M54.6,41.7 C55.7,33.2 56.2,31.6 58.3,26.3 C47.8,28.1 36.8,29.2 26.3,30.9 C23.8,35.8 23.4,38.1 22.5,45 L54.6,41.7 Z" id="XMLID_28_" fill="#5B4641"></path>
                            <g id="XMLID_114_" transform="translate(22.000000, 30.000000)" fill="#BC9486">
                                <path d="M4.3,1 C5.5,0.8 6.6,0.6 7.8,0.4 C5.8,4.9 4.6,9.8 4.3,14.7 L0.6,15.1 C1.4,8.2 1.8,5.9 4.3,1 Z" id="XMLID_117_"></path>
                            </g>
                            <path d="M53.4,39.5 C53.8,36 54.5,32.5 55.7,29.1 C54.4,29.3 52.1,29.5 50.8,29.8 C49.5,33.6 49,36.5 48.8,40.2 L53.4,39.5 Z" id="XMLID_27_" fill="#D7DF23"></path>
                            <path d="M45.8,40.2 C46.2,36.7 46.9,33.2 48.1,29.8 C46.8,30 44.5,30.2 43.2,30.5 C41.9,34.3 41.4,37.2 41.2,40.9 L45.8,40.2 Z" id="XMLID_29_" fill="#D7DF23"></path>
                            <path d="M38.2,40.9 C38.6,37.4 39.3,33.9 40.5,30.5 C39.2,30.7 36.9,30.9 35.6,31.2 C34.3,35 33.8,37.9 33.6,41.6 L38.2,40.9 Z" id="XMLID_30_" fill="#D7DF23"></path>
                            <g id="XMLID_116_" transform="translate(66.000000, 35.000000)">
                                <path d="M7.9,0.1 C7.9,0.1 5.2,4.5 4.4,7.8 C4.2,8.5 4,9.2 3.8,10 C3.6,10.8 3.4,11.5 3.2,12.4 C3,13.2 2.8,14.1 2.6,14.9 C2.4,15.8 2.2,16.7 2.1,17.6 C1.9,18.5 1.8,19.5 1.6,20.4 C1.4,22.3 1.1,24.3 1,26.4 C0.8,28.4 0.8,30.5 0.7,32.6 C0.7,34.7 0.7,36.7 0.9,38.8 C1,40.8 1.2,42.8 1.4,44.8 C1.5,45.8 1.7,46.7 1.8,47.6 C1.9,48.5 2.1,49.4 2.3,50.3 C2.5,51.2 2.6,52 2.8,52.8 C3,53.6 3.2,54.4 3.4,55.2 C3.6,56 3.8,56.7 4,57.4 C4.2,58.1 4.4,58.7 4.6,59.3 C5,60.5 7.4,65.1 7.4,65.1 C7.4,65.1 4.9,57.9 4.8,57.2 C4.7,56.5 4.5,55.8 4.4,55 C4.1,53.5 3.9,51.8 3.6,50.1 C3.5,49.2 3.3,48.3 3.3,47.4 C3.2,46.5 3.1,45.5 3,44.6 C2.9,42.7 2.7,40.7 2.6,38.7 C2.5,36.7 2.5,34.6 2.5,32.6 C2.6,30.6 2.6,28.5 2.7,26.5 C2.8,24.5 3,22.5 3.2,20.6 C3.3,19.6 3.5,18.7 3.6,17.8 C3.7,16.9 3.8,16 4,15.1 C4.1,14.2 4.3,13.4 4.4,12.6 C4.5,11.8 4.7,11 4.9,10.2 C5.1,9.4 5.2,8.7 5.3,8 C5.3,7.3 7.9,0.1 7.9,0.1 Z" id="XMLID_23_" fill="#FFB19C"></path>
                                <path d="M7.9,0.1 C7.9,0.1 7.5,1.1 6.9,2.8 C6.6,3.6 6.2,4.7 5.8,5.9 C5.6,6.5 5.4,7.1 5.2,7.8 C5,8.5 4.8,9.2 4.6,10 C4.4,10.8 4.2,11.5 4,12.4 C3.8,13.2 3.6,14.1 3.4,14.9 C3.2,15.8 3,16.7 2.9,17.6 C2.7,18.5 2.6,19.5 2.4,20.4 C2.2,22.3 1.9,24.3 1.8,26.4 C1.6,28.4 1.6,30.5 1.5,32.6 C1.5,34.7 1.5,36.7 1.7,38.8 C1.8,40.8 2,42.8 2.2,44.8 C2.3,45.8 2.5,46.7 2.6,47.6 C2.7,48.5 2.9,49.4 3.1,50.3 C3.3,51.2 3.4,52 3.6,52.8 C3.8,53.6 4,54.4 4.2,55.2 C4.4,56 4.6,56.7 4.8,57.4 C5,58.1 5.2,58.7 5.4,59.3 C5.8,60.5 6.1,61.6 6.4,62.4 C7,64.1 7.4,65.1 7.4,65.1 C7.4,65.1 7.2,64.1 6.7,62.3 C6.5,61.4 6.2,60.4 6,59.1 C5.9,58.5 5.7,57.8 5.6,57.1 C5.5,56.4 5.3,55.7 5.2,54.9 C4.9,53.4 4.7,51.7 4.4,50 C4.3,49.1 4.1,48.2 4.1,47.3 C4,46.4 3.9,45.4 3.8,44.5 C3.7,42.6 3.5,40.6 3.4,38.6 C3.3,36.6 3.3,34.5 3.3,32.5 C3.4,30.5 3.4,28.4 3.5,26.4 C3.6,24.4 3.8,22.4 4,20.5 C4.1,19.5 4.3,18.6 4.4,17.7 C4.5,16.8 4.6,15.9 4.8,15 C4.9,14.1 5.1,13.3 5.2,12.5 C5.3,11.7 5.5,10.9 5.7,10.1 C5.9,9.3 6,8.6 6.1,7.9 C6.3,7.2 6.4,6.6 6.6,6 C6.9,4.8 7.1,3.7 7.4,2.8 C7.7,1.1 7.9,0.1 7.9,0.1 Z" id="XMLID_24_" fill="#5B4641"></path>
                            </g>
                            <path d="M58.3,26.3 L50.3,27.3 L46.3,27.8 C45,27.9 43.6,28.1 42.3,28.3 C39.6,28.6 37,29 34.3,29.4 C31.6,29.8 29,30.2 26.3,30.7 L26.1,30.7 L26,30.9 C24.9,33.1 24,35.4 23.5,37.8 C23.2,39 23.1,40.2 22.9,41.4 C22.8,42.6 22.6,43.8 22.6,45.1 C23,42.7 23.3,40.2 23.9,37.9 C24.2,36.7 24.6,35.6 25,34.5 C25.5,33.4 26,32.3 26.6,31.2 L26.4,31.4 C29.1,31 31.7,30.6 34.4,30.2 L42.4,29.1 C45.1,28.7 47.7,28.3 50.4,27.9 C53,27.4 55.6,26.9 58.3,26.3 Z" id="XMLID_123_" fill="#FFFFFF"></path>
                        </g>
                        <g id="XMLID_97_" transform="translate(192.000000, 0.000000)">
                            <path d="M1,82 C-0.4,93.1 3,102.1 8.4,102.1 C13.9,102.1 19.4,93.1 20.8,82 C22.2,70.9 18.8,61.9 13.4,61.9 C8,61.9 2.4,70.9 1,82 Z" id="XMLID_25_" fill="url(#linearGradient-31)"></path>
                            <path d="M14.9,71.1 L22.5,8.2 C22.5,7.9 22.7,7.6 23,7.5 L23,7.5 C23.3,7.4 23.6,7.8 23.5,8.2 C21.8,29.8 19.4,51.3 16.7,72.8 C16.1,71.9 15.6,72.1 14.9,71.1 Z" id="XMLID_20_" fill="url(#linearGradient-32)"></path>
                            <path d="M100.8,71.3 L100.4,1.5 C100.4,1.1 100.7,0.8 101,0.7 L101,0.7 C101.5,0.6 102,0.9 102,1.4 C103.5,25.3 104.1,49.2 104,73.1 C102.8,72 102.1,72.3 100.8,71.3 Z" id="XMLID_18_" fill="url(#linearGradient-33)"></path>
                            <path d="M11.3,119.3 C12.2,97.4 31.9,79.6 55.3,79.6 C78.7,79.6 97,97.4 96.1,119.3 C95.4,136.9 82.5,151.9 65.3,157.1 C65.1,166.9 65,176.6 64.8,186.4 C64.7,191.6 64.8,196.2 61.9,200.6 C59.1,205 54.2,208.3 49,208.3 C43.8,208.3 38.9,206.7 38.2,199 C37.7,194.2 41.2,190 44.5,186.5 L44.5,158.4 C24.9,155 10.5,138.8 11.3,119.3 Z" id="XMLID_16_" fill="url(#linearGradient-34)"></path>
                            <path d="M86.8,143 C66.6,152.8 43,155.3 22,146.7 C27.8,152.6 35.6,156.8 44.6,158.3 L44.6,158.7 L65.4,158.1 L65.4,157 C73.9,154.5 81.4,149.5 86.8,143 Z" id="XMLID_155_" fill="#211918"></path>
                            <path d="M96.2,119.3 C97.1,97.4 78.8,79.6 55.4,79.6 C32,79.6 12.3,97.4 11.4,119.3 C11.3,121.3 11.4,123.3 11.6,125.2 C36.2,126.3 62.5,133 83.4,146.7 C90.9,139.6 95.7,129.9 96.2,119.3 Z" id="XMLID_156_" fill="#211918"></path>
                            <path d="M49.2,204.6 C52.3,205.5 55.5,205.5 58.4,204.6 C55.8,206.8 52.6,208.2 49.2,208.2 C44,208.2 39.1,206.6 38.4,198.9 C38.1,196.4 39,194 40.4,191.8 C40.7,197.5 43.7,202.7 49.2,204.6 Z" id="XMLID_180_" fill="#1C252B"></path>
                            <path d="M62,200.5 C62,200.5 61.9,200.6 61.7,200.9 C61.5,201.2 61.2,201.5 60.7,202 C60.3,202.5 59.7,203 59.1,203.6 C58.5,204.2 57.7,204.7 56.8,205.3 C55,206.4 52.7,207.4 50.1,207.5 L49.1,207.5 L48.1,207.5 C47.4,207.4 46.8,207.4 46.1,207.3 C44.8,207.1 43.5,206.6 42.4,205.9 C41.3,205.2 40.5,204.1 40,202.9 C39.5,201.7 39.1,200.4 39,199.1 C39,198.8 38.9,198.5 38.9,198.1 L38.9,197.2 C39,196.6 39,196 39.2,195.4 C39.5,194.3 40,193.2 40.5,192.3 C41.5,190.4 42.6,189 43.4,188 C44.2,187 44.6,186.4 44.6,186.4 C44.6,186.4 44.1,186.9 43.2,187.8 C42.8,188.3 42.2,188.8 41.6,189.5 C41,190.2 40.4,190.9 39.8,191.9 C39.2,192.8 38.6,193.9 38.2,195.1 C38,195.7 37.8,196.4 37.7,197.1 C37.7,197.5 37.6,197.8 37.6,198.2 L37.6,199.2 C37.7,200.6 38,202.1 38.6,203.5 C39.2,204.9 40.2,206.2 41.5,207.1 C42.8,208 44.3,208.5 45.8,208.7 C46.5,208.8 47.3,208.9 48,208.9 L49.1,208.9 C49.5,208.9 49.8,208.9 50.2,208.8 C51.6,208.7 53,208.3 54.1,207.8 C55.3,207.3 56.3,206.7 57.2,206 C58.1,205.3 58.8,204.6 59.4,204 C60,203.4 60.5,202.7 60.9,202.2 C61.3,201.7 61.5,201.2 61.7,200.9 C61.9,200.7 62,200.5 62,200.5 Z" id="XMLID_26_" fill="#FFB19C"></path>
                            <path d="M108.2,121.4 C106.2,99.5 101.4,77.8 94,57.2 C91,48.8 87.4,40.4 81.9,33.4 C76.4,26.4 68.5,20.8 59.7,19.7 C50,18.4 40.2,22.5 32.9,29 C25.6,35.5 20.6,44.1 16.5,52.9 C7.9,71.7 3.2,92.2 2.9,112.9 C7.1,117 10.6,120.6 15.9,123.1 C22,117.5 30.9,115.5 38.8,117.8 C46.7,120.1 53.4,125.7 58.5,132.3 C74.9,134.4 93.4,129.2 108.2,121.4 Z" id="XMLID_15_" fill="url(#linearGradient-35)"></path>
                            <path d="M51.1,96.5 C64.8,84.5 77.4,64.6 94.6,58.9 C94.4,58.3 94.2,57.8 94,57.2 C91,48.8 87.4,40.4 81.9,33.4 C76.4,26.4 68.5,20.8 59.7,19.7 C50,18.4 40.2,22.5 32.9,29 C25.6,35.5 20.6,44.1 16.5,52.9 C14.6,57.1 12.9,61.4 11.4,65.7 C11.9,76.2 14.8,86 21.8,94.9 C29.6,104.4 43.1,104.4 51.1,96.5 Z" id="XMLID_99_" fill="url(#linearGradient-36)"></path>
                            <path d="M55.5,19.4 C55.5,19.4 49.7,26.2 49.2,27 C48.9,27.4 48.7,27.8 48.4,28.2 C48.1,28.6 47.9,29.1 47.6,29.6 C47.1,30.5 46.5,31.5 45.9,32.6 C45.8,32.9 45.6,33.1 45.5,33.4 C45.4,33.7 45.2,33.9 45.1,34.2 C44.8,34.8 44.6,35.3 44.3,35.9 C43.8,37.1 43.1,38.2 42.6,39.5 C41.6,42 40.4,44.6 39.5,47.5 C38.4,50.3 37.7,53.2 36.8,56.2 C36.4,57.7 36.1,59.2 35.7,60.8 C35.5,61.6 35.3,62.3 35.2,63.1 L34.8,65.4 C34.5,67 34.2,68.5 33.9,70.1 C33.7,71.7 33.5,73.2 33.2,74.8 C33.1,75.6 33,76.3 32.9,77.1 C32.8,77.9 32.8,78.6 32.7,79.4 C32.6,80.2 32.6,80.9 32.5,81.7 C32.5,82.1 32.4,82.4 32.4,82.8 C32.4,83.2 32.4,83.5 32.3,83.9 C32.2,86.9 32,89.7 32,92.5 L32,96.5 C32.1,97.8 32.1,99 32.2,100.2 C32.3,101.4 34.8,116 34.8,116 C34.8,116 32.6,110.6 32.1,106.8 C31.9,105.8 31.8,104.8 31.6,103.7 C31.4,102.6 31.4,101.5 31.2,100.3 C31.1,99.1 31,97.9 30.9,96.6 C30.8,95.3 30.8,94 30.8,92.6 C30.7,89.9 30.8,87 30.9,84 L30.9,82.9 C30.9,82.5 31,82.1 31,81.8 C31.1,81 31.1,80.3 31.2,79.5 C31.3,78 31.4,76.4 31.6,74.8 C31.8,73.2 32,71.7 32.2,70.1 C32.4,68.5 32.8,67 33,65.4 L33.5,63 C33.7,62.2 33.9,61.4 34.1,60.7 C34.5,59.2 34.8,57.6 35.3,56.1 C36.2,53.1 37.1,50.1 38.2,47.3 C38.5,46.6 38.7,45.9 39,45.2 C39.1,44.9 39.3,44.5 39.4,44.2 C39.5,43.9 39.7,43.5 39.8,43.2 C40.4,41.9 41,40.6 41.5,39.3 C41.8,38.7 42.1,38.1 42.4,37.5 C42.7,36.9 43,36.3 43.3,35.8 C43.6,35.2 43.9,34.7 44.2,34.1 C44.3,33.8 44.5,33.6 44.6,33.3 C44.8,33 44.9,32.8 45.1,32.5 C45.7,31.5 46.3,30.5 46.9,29.6 C47.2,29.1 47.5,28.7 47.8,28.3 C48.1,27.9 48.4,27.5 48.7,27.1 C49.3,26.3 49.8,25.6 50.3,24.9 C52,22.2 55.5,19.4 55.5,19.4 Z" id="XMLID_10_" fill="#DDAB9F"></path>
                            <path d="M55.5,19.4 C55.5,19.4 54.5,20.7 52.8,22.9 C52.6,23.2 52.4,23.5 52.1,23.8 C51.9,24.1 51.7,24.5 51.4,24.8 C50.9,25.5 50.4,26.2 49.9,27.1 C49.6,27.5 49.4,27.9 49.1,28.3 C48.8,28.7 48.6,29.2 48.3,29.7 C47.8,30.6 47.2,31.6 46.6,32.7 C46.5,33 46.3,33.2 46.2,33.5 C46.1,33.8 45.9,34 45.8,34.3 C45.5,34.9 45.3,35.4 45,36 C44.5,37.2 43.8,38.3 43.3,39.6 C42.3,42.1 41.1,44.7 40.2,47.6 C39.1,50.4 38.4,53.3 37.5,56.3 C37.1,57.8 36.8,59.3 36.4,60.9 C36.2,61.7 36,62.4 35.9,63.2 L35.5,65.5 C35.2,67.1 34.9,68.6 34.6,70.2 C34.4,71.8 34.2,73.3 33.9,74.9 C33.8,75.7 33.7,76.4 33.6,77.2 C33.5,78 33.5,78.7 33.4,79.5 C33.3,80.3 33.3,81 33.2,81.8 C33.2,82.2 33.1,82.5 33.1,82.9 C33.1,83.3 33.1,83.6 33,84 C32.9,87 32.7,89.8 32.7,92.6 L32.7,96.6 C32.8,97.9 32.8,99.1 32.9,100.3 C33,101.5 33,102.6 33.1,103.7 C33.2,104.8 33.3,105.8 33.4,106.8 C33.5,107.8 33.6,108.7 33.7,109.5 C33.8,110.3 34,111.1 34.1,111.8 C34.5,114.6 34.8,116.1 34.8,116.1 C34.8,116.1 34.4,114.5 33.8,111.8 C33.7,111.1 33.5,110.4 33.3,109.5 C33.2,108.7 33,107.8 32.9,106.8 C32.7,105.8 32.6,104.8 32.4,103.7 C32.2,102.6 32.2,101.5 32,100.3 C31.9,99.1 31.8,97.9 31.7,96.6 C31.6,95.3 31.6,94 31.6,92.6 C31.5,89.9 31.6,87 31.7,84 L31.7,82.9 C31.7,82.5 31.8,82.1 31.8,81.8 C31.9,81 31.9,80.3 32,79.5 C32.1,78 32.2,76.4 32.4,74.8 C32.6,73.2 32.8,71.7 33,70.1 C33.2,68.5 33.6,67 33.8,65.4 L34.3,63 C34.5,62.2 34.7,61.4 34.9,60.7 C35.3,59.2 35.6,57.6 36.1,56.1 C37,53.1 37.9,50.1 39,47.3 C39.3,46.6 39.5,45.9 39.8,45.2 C39.9,44.9 40.1,44.5 40.2,44.2 C40.3,43.9 40.5,43.5 40.6,43.2 C41.2,41.9 41.8,40.6 42.3,39.3 C42.6,38.7 42.9,38.1 43.2,37.5 C43.5,36.9 43.8,36.3 44.1,35.8 C44.4,35.2 44.7,34.7 45,34.1 C45.1,33.8 45.3,33.6 45.4,33.3 C45.6,33 45.7,32.8 45.9,32.5 C46.5,31.5 47.1,30.5 47.7,29.6 C48,29.1 48.3,28.7 48.6,28.3 C48.9,27.9 49.2,27.5 49.5,27.1 C50.1,26.3 50.6,25.6 51.1,24.9 C51.4,24.6 51.6,24.2 51.8,23.9 C52,23.6 52.3,23.3 52.5,23.1 C54.4,20.6 55.5,19.4 55.5,19.4 Z" id="XMLID_8_" fill="#5B4641"></path>
                            <path d="M58.7,69.3 C56.7,87.2 47.6,101.8 38.4,101.8 C29.2,101.8 23.3,87.3 25.3,69.3 C27.3,51.3 36.4,36.8 45.6,36.8 C54.8,36.8 60.6,51.3 58.7,69.3 Z" id="XMLID_4_" fill="url(#linearGradient-37)"></path>
                            <path d="M56.7,47.3 C54.8,45.7 52.7,44.8 50.4,44.8 C41.8,44.8 34,57.3 33,72.7 C32.1,86.2 36.8,97.5 43.8,100.1 C50.9,95.8 57.1,83.6 58.7,69.2 C59.6,60.8 58.8,53.1 56.7,47.3 Z" id="XMLID_7_" fill="url(#radialGradient-38)"></path>
                            <g id="XMLID_83_" transform="translate(2.000000, 112.000000)" fill="#DDAB9F">
                                <path d="M12.7,8.5 C8.5,6.3 4.5,3.7 0.8,0.8 C0.8,0.8 0.8,0.8 0.8,0.9 C5,5 8.5,8.6 13.8,11.1 C19.9,5.5 28.8,3.5 36.7,5.8 C38.6,6.3 40.4,7.1 42.1,7.9 C39.2,6 36.1,4.6 32.7,3.8 C25.8,2.3 17.5,3.3 12.7,8.5 Z" id="XMLID_84_"></path>
                            </g>
                            <path d="M113.5,89.9 C114.2,102.2 108,112.2 99.6,112.2 C91.2,112.2 83.8,102.2 83,89.9 C82.3,77.6 88.5,67.6 96.9,67.6 C105.3,67.6 112.8,77.6 113.5,89.9 Z" id="XMLID_9_" fill="#5B4641"></path>
                            <path d="M116.6,89.2 C117.3,101.5 111.1,111.5 102.7,111.5 C94.3,111.5 86.9,101.5 86.1,89.2 C85.4,76.9 91.6,66.9 100,66.9 C108.5,67 115.9,76.9 116.6,89.2 Z" id="XMLID_11_" fill="#FCE4D8"></path>
                            <path d="M100,67 C91.8,67 85.7,76.4 86,88.3 C92.4,89.5 100.9,85.6 107.5,84.6 C110.9,83.9 113.9,84.9 116.3,86.8 C114.9,75.6 107.9,67 100,67 Z" id="XMLID_92_" fill="url(#linearGradient-39)"></path>
                            <path d="M113.4,89.3 C113.9,97.4 110.9,103.9 106.8,103.9 C102.6,103.9 98.9,97.4 98.4,89.3 C97.9,81.2 100.9,74.7 105,74.7 C109.1,74.6 112.9,81.2 113.4,89.3 Z" id="XMLID_12_" fill="#BC9486"></path>
                            <path d="M112,89.3 C112.2,93.3 110.8,96.6 108.7,96.6 C106.6,96.6 104.7,93.3 104.5,89.3 C104.3,85.3 105.7,82 107.8,82 C109.8,82 111.7,85.2 112,89.3 Z" id="XMLID_13_" fill="#FCE4D8"></path>
                            <g id="XMLID_17_" transform="translate(104.000000, 83.000000)" fill="#5B4641">
                                <path d="M4.2,6.3 C4,3.6 3.1,1.3 1.9,0 C0.9,1.3 0.3,3.6 0.4,6.3 C0.5,9 1.5,11.3 2.7,12.6 C3.8,11.3 4.4,8.9 4.2,6.3 Z" id="XMLID_86_"></path>
                            </g>
                            <g id="XMLID_22_" transform="translate(43.000000, 165.000000)">
                                <path d="M0.7,7.9 C8.1,9.7 15.8,9.7 23.2,7.9 L23.2,0.3 C15.8,2.1 8.1,2.1 0.7,0.3 L0.7,7.9 Z" id="XMLID_19_" fill="#211918"></path>
                                <path d="M23.2,0.3 C23.2,0.3 22.8,0.4 22.2,0.4 C21.6,0.5 20.7,0.6 19.7,0.7 C19.2,0.8 18.6,0.8 18,0.9 C17.4,1 16.8,1 16.1,1 C14.8,1.1 13.4,1.1 12,1.1 C10.6,1.1 9.2,1 7.9,1 C7.2,0.9 6.6,0.9 6,0.9 C5.4,0.8 4.8,0.8 4.3,0.7 C3.2,0.6 2.4,0.5 1.8,0.4 C1.2,0.3 0.8,0.3 0.8,0.3 C0.8,0.3 1.1,0.4 1.7,0.6 C2,0.7 2.4,0.8 2.8,0.9 C3.2,1 3.7,1.1 4.2,1.2 C5.2,1.4 6.5,1.6 7.8,1.8 C8.5,1.9 9.2,1.9 9.9,2 C10.6,2 11.3,2 12,2.1 C12.7,2.1 13.4,2.1 14.1,2 C14.8,2 15.5,1.9 16.2,1.8 C17.5,1.6 18.8,1.4 19.8,1.2 C20.3,1.1 20.8,1 21.2,0.9 C21.6,0.8 22,0.7 22.3,0.6 C22.9,0.4 23.2,0.3 23.2,0.3 Z" id="XMLID_102_" fill="#FCE4D8"></path>
                            </g>
                            <g id="XMLID_105_" transform="translate(43.000000, 180.000000)">
                                <path d="M0.7,7.6 C8.1,9.4 15.8,9.4 23.2,7.6 L23.2,0 C15.8,1.8 8.1,1.8 0.7,0 L0.7,7.6 Z" id="XMLID_107_" fill="#211918"></path>
                                <path d="M23.2,0 C23.2,0 22.8,0.1 22.2,0.1 C21.6,0.2 20.7,0.3 19.7,0.4 C19.2,0.5 18.6,0.5 18,0.6 C17.4,0.7 16.8,0.7 16.1,0.7 C14.8,0.8 13.4,0.8 12,0.8 C10.6,0.8 9.2,0.7 7.9,0.7 C7.2,0.6 6.6,0.6 6,0.6 C5.4,0.5 4.8,0.5 4.3,0.4 C3.2,0.3 2.4,0.2 1.8,0.1 C1.2,0 0.8,0 0.8,0 C0.8,0 1.1,0.1 1.7,0.3 C2,0.4 2.4,0.5 2.8,0.6 C3.2,0.7 3.7,0.8 4.2,0.9 C5.2,1.1 6.5,1.3 7.8,1.5 C8.5,1.6 9.2,1.6 9.9,1.7 C10.6,1.7 11.3,1.7 12,1.8 C12.7,1.8 13.4,1.8 14.1,1.7 C14.8,1.7 15.5,1.6 16.2,1.5 C17.5,1.3 18.8,1.1 19.8,0.9 C20.3,0.8 20.8,0.7 21.2,0.6 C21.6,0.5 22,0.4 22.3,0.3 C22.9,0.1 23.2,0 23.2,0 Z" id="XMLID_106_" fill="#FCE4D8"></path>
                            </g>
                            <path d="M43.7,159.6 C51.1,161.4 58.8,161.4 66.2,159.6 L66.2,152 C58.8,153.8 51.1,153.8 43.7,152 L43.7,159.6 Z" id="XMLID_21_" fill="#211918"></path>
                            <path d="M38.4,101.8 L37.5,101.8 C36.9,101.7 36,101.7 35,101.3 C34,100.9 32.8,100.2 31.6,99.2 C30.4,98.2 29.3,96.8 28.4,95.1 C27.4,93.5 26.6,91.5 26,89.5 C25.3,87.4 24.9,85.2 24.6,82.8 C24.3,80.5 24.1,78 24.1,75.5 C24.1,73 24.3,70.5 24.6,68 C24.9,65.5 25.4,63 26,60.6 C26.6,58.2 27.4,55.9 28.2,53.7 C29.1,51.5 30.1,49.4 31.2,47.6 C32.3,45.7 33.5,44 34.7,42.6 C35.9,41.2 37.2,40 38.5,39.1 C39.8,38.2 41,37.6 42,37.3 C43,36.9 43.9,36.9 44.5,36.8 L45.4,36.8 C45.4,36.8 45.1,36.8 44.5,36.9 C43.9,37 43.1,37.2 42.1,37.6 C41.1,38 40,38.7 38.8,39.6 C37.6,40.5 36.5,41.8 35.3,43.2 C33,46.1 31,49.9 29.4,54.2 C28.6,56.4 27.9,58.6 27.3,61 C26.7,63.3 26.3,65.8 26,68.2 C25.4,73.1 25.3,78 25.8,82.6 C26.3,87.2 27.4,91.4 29.1,94.6 C29.9,96.2 30.9,97.6 31.9,98.7 C32.9,99.8 34,100.5 35,101 C36,101.4 36.8,101.6 37.4,101.7 C38.1,101.7 38.4,101.8 38.4,101.8 Z" id="XMLID_85_" fill="#FFFFFF"></path>
                            <path d="M27.6,39.3 C27.3,40.1 27.1,41.1 27.5,41.9 C28,42.7 29,42.8 29.9,42.6 C30.8,42.4 31.5,41.8 32.2,41.2 C39.6,35.3 48.3,31 57.5,28.8 C58.7,28.5 60,28.2 61,27.4 C62,26.6 62.7,25.2 62.1,24.1 C61.6,23 60.4,22.6 59.2,22.3 C46.1,19.3 32.1,26.5 27.6,39.3 Z" id="XMLID_87_" fill="#FCFDF8" opacity="0.3"></path>
                            <path d="M35.9,29.1 C34.8,30.1 34,31.5 34,33 C36.8,30.6 39.9,28.5 42.8,26.2 C40.3,25.9 37.6,27.5 35.9,29.1 Z" id="XMLID_89_" fill="#FFFFFF"></path>
                            <path d="M35.6,73.1 C35.4,69.9 35.8,66.1 37,63.1 L38.8,63.1 C37.2,65.8 36.1,70.1 35.6,73.1 Z" id="XMLID_91_" fill="#FFFFFF"></path>
                            <path d="M47.2,47.2 C42.9,50.6 38.8,55.5 37.5,60.8 L39.5,60.8 C40.8,56.2 44.6,51.3 47.2,47.2 Z" id="XMLID_93_" fill="#FFFFFF"></path>
                            <g id="XMLID_95_" opacity="0.5" transform="translate(22.000000, 47.000000)" fill="#FFFFFF">
                                <path d="M2.4,2.4 C2,3.6 1.2,4.6 0.7,4.6 C0.2,4.6 0.1,3.6 0.6,2.4 C1,1.2 1.8,0.2 2.3,0.2 C2.8,0.2 2.8,1.2 2.4,2.4 Z" id="XMLID_94_"></path>
                                <path d="M1.4,8.3 C1,9.1 0.5,9.8 0.3,9.8 C-2.77555756e-17,9.8 0.1,9.1 0.5,8.3 C0.9,7.5 1.4,6.8 1.6,6.8 C1.8,6.9 1.7,7.5 1.4,8.3 Z" id="XMLID_96_"></path>
                            </g>
                        </g>
                        <g id="XMLID_80_" transform="translate(290.000000, 178.000000)">
                            <path d="M61.5,34.1 C57.6,41.8 51.5,48.5 43.9,52.7 C36.3,56.9 27.2,58.3 18.8,56.1 C16.6,45.2 18.3,33.5 23.5,23.7 C28.3,14.7 38.6,2.4 50.3,3 C67.9,3.8 66.9,23.7 61.5,34.1 Z" id="XMLID_56_" fill="#5B4641"></path>
                            <path d="M20.1,34.2 C37.1,56 53.2,77.7 70.3,99.5 C76.8,93.9 83.7,88.4 91.6,85.1 C74.6,63.6 59.2,40.9 45.3,17.2 C35,18.5 25.6,25.5 20.1,34.2 Z" id="XMLID_55_" fill="url(#linearGradient-40)"></path>
                            <path d="M45.2,17.2 C35,18.6 25.6,25.5 20,34.2 C26.8,42.8 33.4,51.5 40,60.1 C44.1,50.4 49,40.9 54,31.7 C51.1,26.9 48.1,22.1 45.2,17.2 Z" id="XMLID_158_" fill="#211918"></path>
                            <path d="M50.6,1.4 C43.7,-0.6 36.3,-0.2 29.2,1 C24,2 18.7,3.5 14.4,6.5 C9.1,10.3 5.6,16.1 3.4,22.1 C1.3,27.8 0.1,33.9 0.9,40 C1.6,46 4.4,51.9 9,55.8 C13.6,59.7 20.3,61.4 26,59.4 C32.7,57.1 37,50.7 39.7,44.1 C42.4,37.5 43.8,30.5 47.3,24.4 C49,21.4 51.3,18.6 54.1,16.6 C56.4,14.9 60.1,13.8 61.9,11.5 C65.4,6.8 54,2.4 50.6,1.4 Z" id="XMLID_54_" fill="url(#linearGradient-41)"></path>
                            <path d="M3.3,22.2 C5.6,16.1 9.1,10.3 14.3,6.6 C18.6,3.5 23.9,2 29.1,1.1 C36.2,-0.2 43.6,-0.6 50.5,1.5 C54,2.5 65.3,6.9 61.6,11.8 C59.9,14.1 56.1,15.2 53.8,16.9 C51.9,18.3 50.3,20 48.9,21.8 C44.3,26.3 40.1,31.2 34.7,34.5 C29.7,37.5 23.6,39 17.8,38.3 C12,37.5 6.4,34.3 3.2,29.4 C2.7,28.6 2.2,27.7 1.8,26.8 C2.3,25.2 2.7,23.7 3.3,22.2 Z" id="XMLID_133_" fill="url(#linearGradient-42)"></path>
                            <path d="M24.4,7.7 C23.8,8 23.2,8.4 23.3,9 C23.4,9.5 23.9,9.8 24.4,10 C27.5,11.3 30.7,12.6 34,12.6 C37.4,12.7 40.8,11.4 44,10.2 C46.8,9.1 50.1,8.3 52.6,6.8 C49.7,4.1 42.3,4.2 38.5,4.3 C33.6,4.4 28.8,5.6 24.4,7.7 Z" id="XMLID_6_" fill="#FCFDF8" opacity="0.3"></path>
                        </g>
                        <g id="XMLID_46_" transform="translate(348.000000, 106.000000)">
                            <path d="M31.7,76.3 C31.7,76.3 53.9,69.2 65.2,81.5 L50.2,96.4 L31.7,76.3 Z" id="XMLID_179_" fill="#211918"></path>
                            <g id="XMLID_130_" transform="translate(36.000000, 0.000000)">
                                <polygon id="XMLID_115_" fill="#211918" points="58.5 37.4 53.1 32.4 26.4 26.2 22.6 28 29.7 37"></polygon>
                                <path d="M29.7,35 C29.7,35.3 29.7,26 30,20.7 C27.9,20.9 25.6,22.1 23.5,22.3 C23.1,26.3 22.1,30.3 20.6,34.1 C23.2,35.6 26.8,35.4 29.7,35 Z" id="XMLID_49_" fill="url(#linearGradient-43)"></path>
                                <path d="M50,43.9 C54.6,38.9 58.5,33.3 61.7,27.3 C59.5,26.1 57,25.2 54.8,24 C51.3,29.9 47.9,35.8 44.4,41.6 C46.5,41.9 48.1,43.7 50,43.9 Z" id="XMLID_52_" fill="url(#linearGradient-44)"></path>
                                <path d="M52.5,23.9 C55.6,25.7 58.8,27.5 61.9,29.3 C64.1,23.9 66.8,18.4 69,13 C67.4,12.1 65.5,10.9 63.9,10 C62.1,11.4 59.9,13.1 58.2,14.5 C55.5,16.6 54,20.8 52.5,23.9 Z" id="XMLID_103_" fill="url(#linearGradient-45)"></path>
                                <path d="M37.8,40.7 C39.7,33.7 41.2,26.4 43.1,19.4 C40,19.2 36.8,18.6 33.7,18.4 C32.4,24.6 31,30.8 29.7,37.1 C31.6,38.1 35.8,39.5 37.8,40.7 Z" id="XMLID_50_" fill="url(#linearGradient-46)"></path>
                                <path d="M45.1,39.7 C48.5,34.2 51.2,27.8 53.7,22 C51.3,21.1 49.4,21 46.8,21.1 C43.5,27.6 40.2,34 37,40.5 C38.7,40.2 43.5,39.9 45.1,39.7 Z" id="XMLID_51_" fill="url(#linearGradient-47)"></path>
                                <path d="M22.7,23.8 C25.6,23.8 28.5,23.3 31.2,22.3 C30.2,16.4 29.5,10.2 28.5,4.3 C26.1,4.8 23.9,5.3 22,6.9 C21.2,11.9 21.8,18.7 22.7,23.8 Z" id="XMLID_53_" fill="url(#linearGradient-48)"></path>
                                <path d="M31.9,19.4 C35.9,20.6 40,21.2 44.1,21.1 L44.1,4.7 C43.1,3.4 42.2,1.5 41.2,0.1 C39.1,0.3 36.7,0.7 34.6,0.8 C34.7,6.8 33.5,13.7 31.9,19.4 Z" id="XMLID_82_" fill="url(#linearGradient-49)"></path>
                                <path d="M44.6,22.1 C47.9,22.5 51.1,22.9 54.4,23.3 C54.9,17.7 56.4,11.4 56.9,5.8 C56,4.5 55.2,3.9 54.4,2.6 C53.2,2.4 51.8,2.3 50.7,2.1 C49.9,3.5 48.7,4.9 47.9,6.3 C47.8,6.2 46.6,16.8 44.6,22.1 Z" id="XMLID_90_" fill="url(#linearGradient-50)"></path>
                                <path d="M16.2,86.5 C18.3,80.3 21,74 24.2,68.2 C19.4,66.5 14.3,65.8 9.3,66.2 C8.2,66.3 6.9,66.2 6.6,67.3 C5.2,71.5 3.7,75.8 2.3,80 C1.4,82.7 0.2,85.4 1.2,88 C2.3,90.6 4.8,92.6 7.6,93 C9.5,93.3 11.6,92.7 13.1,91.5 C14.6,90.3 15.5,88.4 16.2,86.5 Z" id="XMLID_111_" fill="url(#linearGradient-51)"></path>
                                <path d="M3.4,69.5 C0.3,65.5 -0.2,58.5 1.5,53.7 C3.2,48.9 6.6,44.8 10.2,41.3 C13.8,37.7 17.8,34.5 21.2,30.6 C25.5,32.8 29.5,33.6 34.1,34.9 C23.9,46.4 13.7,57.9 3.4,69.5 Z" id="XMLID_48_" fill="url(#linearGradient-52)"></path>
                                <path d="M26.6,73.1 C37.3,61.8 46.1,51.3 56.8,40 C46.9,37.1 37,34.9 27,32.4 C23.2,38.9 17.4,43.8 12.4,49.4 C7.4,55 3.2,62 3.5,69.4 C9.6,72.9 19.6,74 26.6,73.1 Z" id="XMLID_47_" fill="url(#linearGradient-53)"></path>
                                <polygon id="XMLID_104_" fill="url(#linearGradient-54)" points="21.2 30.5 26.4 33.2 56.7 40 58.5 37.4 29.2 28 22.6 28"></polygon>
                                <polygon id="XMLID_113_" fill="#FFFFFF" points="56.7 40 54.3 42.6 25 35.3 20.1 31.8 21.2 30.5 26.4 33.2"></polygon>
                            </g>
                            <g id="XMLID_128_" transform="translate(0.000000, 76.000000)">
                                <path d="M31.7,0.3 C19.5,28.7 8.7,58.8 1.5,89 C-0.4,96.8 2.1,105.1 8.1,110.4 C13.3,115 19.6,118.3 26.4,119.7 C32.4,120.9 38.8,120.4 44.7,118.6 C53.7,115.9 59.9,107.8 60.4,98.4 L65.2,5.5 C54.8,10.8 41.4,6.9 31.7,0.3 Z" id="XMLID_45_" fill="url(#linearGradient-55)"></path>
                                <path d="M44.3,116.3 C52.3,113.8 58,106.6 58.4,98.2 L62.7,14.7 C61.4,15.4 60,15.9 58.5,16.2 C53.1,51.2 47.3,88.3 26.5,117.1 C26.9,117.2 27.3,117.3 27.7,117.4 C33.2,118.4 38.9,117.9 44.3,116.3 Z" id="XMLID_131_" fill="#FCFDF8" opacity="0.3"></path>
                                <g id="XMLID_122_" transform="translate(19.000000, 6.000000)" fill="#FFFFFF">
                                    <path d="M0.3,111.7 C0.3,111.7 0.5,109.9 0.9,106.8 C1.1,105.3 1.5,103.4 1.8,101.2 C2.1,99.1 2.6,96.6 3.1,94 C3.6,91.4 4.2,88.5 4.8,85.5 C5.4,82.5 6.1,79.3 6.8,76.1 C8.3,69.6 9.9,62.6 11.6,55.7 C13.3,48.8 15.1,41.9 16.7,35.4 C18.4,28.9 20,22.9 21.4,17.7 C22.8,12.5 24,8.3 24.9,5.3 C25.8,2.3 26.3,0.6 26.3,0.6 C26.3,0.6 24.6,7.5 22,17.9 C20.7,23.1 19.2,29.1 17.6,35.6 C16,42.1 14.3,49 12.6,55.9 C10.9,62.8 9.2,69.7 7.7,76.2 C6.9,79.5 6.2,82.6 5.5,85.6 C4.8,88.6 4.2,91.4 3.6,94 C3.1,96.6 2.5,99 2.1,101.1 C1.7,103.2 1.3,105.1 1,106.6 C0.6,109.9 0.3,111.7 0.3,111.7 Z" id="XMLID_129_"></path>
                                </g>
                                <g id="XMLID_43_" transform="translate(19.000000, 6.000000)" fill="#5B4641">
                                    <path d="M26.3,0.7 L27.2,0.9 C27,1.7 4.6,84.9 1.2,111.7 L0.3,111.6 C3.7,84.8 26.1,1.5 26.3,0.7 Z" id="XMLID_124_"></path>
                                </g>
                                <path d="M54.1,95.1 C53.6,100 52.6,105.2 49.1,108.7 C48.3,109.5 47.3,110.2 46.2,110.1 C44.8,110 43.8,108.6 43.7,107.2 C43.6,105.8 44.1,104.5 44.6,103.2 C47.9,94.9 50.6,85.5 54.9,77.7 C55.2,83.4 54.7,89.4 54.1,95.1 Z" id="XMLID_118_" fill="#FFFFFF"></path>
                                <path d="M41.3,5.4 L38.2,16.4 L35,27.4 L31.8,38.4 L28.6,49.4 L28.5,49.6 L28.3,49.7 L18.6,53.1 L18.9,52.8 C17.6,57.9 16.3,63 15,68 L11.1,83.2 L11,82.8 L17.5,87.9 L17.7,88 L17.7,88.2 L15.8,101.5 L13.8,114.8 L15.4,101.4 L17,88.1 L17.1,88.4 L10.6,83.4 L10.4,83.2 L10.5,82.9 L14.4,67.6 C15.7,62.5 17,57.4 18.3,52.4 L18.4,52.2 L18.6,52.1 L28.3,48.7 L28,49 L31.3,38 L34.7,27.1 L38.1,16.2 L41.3,5.4 Z" id="XMLID_127_" fill="#FFFFFF"></path>
                                <g id="XMLID_44_" transform="translate(10.000000, 5.000000)" fill="#5B4641">
                                    <polygon id="XMLID_125_" points="31.3 0.4 32.2 0.7 19 45 9.3 48.4 1.8 77.8 8.2 82.8 4.7 110 3.7 109.9 7.2 83.2 0.7 78.2 8.5 47.7 18.2 44.3"></polygon>
                                </g>
                            </g>
                        </g>
                    </g>
                </g>
                <rect id="XMLID_320_" fill="#FFFFFF" x="166.7" y="415.6" width="284.3" height="11.3"></rect>
                <rect id="XMLID_267_" fill="#1C252B" x="28.9" y="444.9" width="37.3" height="9.3"></rect>
                <rect id="XMLID_263_" fill="#1C252B" x="456.2" y="444.9" width="37.3" height="9.3"></rect>
                <g id="XMLID_321_" transform="translate(0.000000, 426.000000)">
                    <polygon id="XMLID_319_" fill="url(#linearGradient-56)" points="494.4 18.9 27.2 18.9 0 7.3 521.5 7.3"></polygon>
                    <rect id="XMLID_148_" fill="#1C252B" x="0" y="0.2" width="521.5" height="7.1"></rect>
                </g>
            </g>
            <rect id="XMLID_360_" fill="#FFE3D7" fill-rule="nonzero" x="4.5" y="454.3" width="792.8" height="16.2"></rect>
            <g id="XMLID_363_" transform="translate(70.000000, 470.000000)" fill-rule="nonzero">
                <rect id="XMLID_361_" fill="url(#linearGradient-57)" x="0.5" y="0.5" width="28" height="76.4"></rect>
                <polygon id="XMLID_362_" fill="#BC9486" points="28.5 14.6 0.5 7.6 0.5 0.5 28.5 0.5"></polygon>
            </g>
            <g id="XMLID_365_" transform="translate(672.000000, 470.000000)" fill-rule="nonzero">
                <rect id="XMLID_370_" fill="url(#linearGradient-58)" x="0.6" y="0.5" width="28" height="76.4"></rect>
                <polygon id="XMLID_366_" fill="#BC9486" points="28.6 14.6 0.6 7.6 0.6 0.5 28.6 0.5"></polygon>
            </g>
            <g id="XMLID_372_" transform="translate(512.000000, 470.000000)" fill-rule="nonzero">
                <rect id="XMLID_378_" fill="#BC9486" x="0.5" y="0.5" width="28" height="76.4"></rect>
                <polygon id="XMLID_374_" fill="#5B4641" points="28.5 14.6 0.5 7.6 0.5 0.5 28.5 0.5"></polygon>
            </g>
            <rect id="XMLID_379_" x="0.8" y="69.5" width="401.3" height="87.2"></rect>
        </g>
    </g>
</svg>