<?xml version="1.0" encoding="UTF-8"?>
<svg width="946px" height="568px" viewBox="0 0 946 568" version="1.1" xmlns="http://www.w3.org/2000/svg" xmlns:xlink="http://www.w3.org/1999/xlink">
    <!-- Generator: Sketch 43.2 (39069) - http://www.bohemiancoding.com/sketch -->
    <title>Group 2</title>
    <desc>Created with Sketch.</desc>
    <defs>
        <radialGradient cx="50%" cy="100%" fx="50%" fy="100%" r="100%" gradientTransform="translate(0.500000,1.000000),scale(0.600423,1.000000),rotate(90.000000),translate(-0.500000,-1.000000)" id="radialGradient-1">
            <stop stop-color="#2575FC" offset="0%"></stop>
            <stop stop-color="#6A11CB" offset="100%"></stop>
        </radialGradient>
        <linearGradient x1="36.7513069%" y1="83.1519781%" x2="44.8618372%" y2="42.0768178%" id="linearGradient-2">
            <stop stop-color="#FAFAFA" stop-opacity="0.5" offset="0%"></stop>
            <stop stop-color="#FAFAFA" stop-opacity="0" offset="100%"></stop>
        </linearGradient>
        <linearGradient x1="49.9976421%" y1="-17.659919%" x2="49.9976421%" y2="96.1619433%" id="linearGradient-3">
            <stop stop-color="#FAFAFA" stop-opacity="0.5" offset="0%"></stop>
            <stop stop-color="#FAFAFA" stop-opacity="0.1" offset="100%"></stop>
        </linearGradient>
        <linearGradient x1="28441%" y1="23648.9186%" x2="27007%" y2="19352.3024%" id="linearGradient-4">
            <stop stop-color="#FAFAFA" stop-opacity="0.5" offset="0%"></stop>
            <stop stop-color="#FAFAFA" stop-opacity="0" offset="100%"></stop>
        </linearGradient>
        <linearGradient x1="11722.2708%" y1="29156%" x2="13397.4932%" y2="24575%" id="linearGradient-5">
            <stop stop-color="#FAFAFA" stop-opacity="0.5" offset="0%"></stop>
            <stop stop-color="#FAFAFA" stop-opacity="0" offset="100%"></stop>
        </linearGradient>
        <linearGradient x1="16132%" y1="20916.6802%" x2="14465%" y2="15925.7624%" id="linearGradient-6">
            <stop stop-color="#FAFAFA" stop-opacity="0.5" offset="0%"></stop>
            <stop stop-color="#FAFAFA" stop-opacity="0" offset="100%"></stop>
        </linearGradient>
        <linearGradient x1="50.0234412%" y1="92.4458855%" x2="50.0234412%" y2="-34.4842696%" id="linearGradient-7">
            <stop stop-color="#004D40" offset="0%"></stop>
            <stop stop-color="#73105F" offset="100%"></stop>
        </linearGradient>
        <linearGradient x1="47.7144692%" y1="97.7388022%" x2="48.2927056%" y2="86.8214565%" id="linearGradient-8">
            <stop stop-color="#FFE2D9" offset="0%"></stop>
            <stop stop-color="#F8AA92" offset="100%"></stop>
        </linearGradient>
        <linearGradient x1="49.7866678%" y1="320.783462%" x2="49.7866678%" y2="-10.6485968%" id="linearGradient-9">
            <stop stop-color="#F05A5B" offset="0%"></stop>
            <stop stop-color="#96157C" offset="100%"></stop>
        </linearGradient>
        <linearGradient x1="3739.22327%" y1="21762%" x2="3744.94575%" y2="21145%" id="linearGradient-10">
            <stop stop-color="#FFE2D9" offset="0%"></stop>
            <stop stop-color="#F8AA92" offset="100%"></stop>
        </linearGradient>
        <linearGradient x1="49.9833005%" y1="86.9504414%" x2="49.9833005%" y2="-42.6536142%" id="linearGradient-11">
            <stop stop-color="#00695C" offset="0%"></stop>
            <stop stop-color="#96157C" offset="100%"></stop>
        </linearGradient>
        <linearGradient x1="25342%" y1="26101%" x2="25342%" y2="16068%" id="linearGradient-12">
            <stop stop-color="#F05A5B" offset="0%"></stop>
            <stop stop-color="#96157C" offset="100%"></stop>
        </linearGradient>
        <linearGradient x1="24820%" y1="16029%" x2="25821%" y2="16029%" id="linearGradient-13">
            <stop stop-color="#FFE2D9" offset="0%"></stop>
            <stop stop-color="#F8AA92" offset="100%"></stop>
        </linearGradient>
        <linearGradient x1="25122%" y1="15671%" x2="25122%" y2="15195%" id="linearGradient-14">
            <stop stop-color="#FFE2D9" offset="0%"></stop>
            <stop stop-color="#F8AA92" offset="100%"></stop>
        </linearGradient>
        <linearGradient x1="27998%" y1="5462.19854%" x2="27653%" y2="5292.493%" id="linearGradient-15">
            <stop stop-color="#FFE2D9" offset="0%"></stop>
            <stop stop-color="#F8AA92" offset="100%"></stop>
        </linearGradient>
        <linearGradient x1="27313%" y1="26101%" x2="27313%" y2="16068%" id="linearGradient-16">
            <stop stop-color="#F05A5B" offset="0%"></stop>
            <stop stop-color="#96157C" offset="100%"></stop>
        </linearGradient>
        <linearGradient x1="13461.0203%" y1="24081%" x2="13277.0594%" y2="23370%" id="linearGradient-17">
            <stop stop-color="#FFE2D9" offset="0%"></stop>
            <stop stop-color="#F8AA92" offset="100%"></stop>
        </linearGradient>
        <linearGradient x1="49.9967386%" y1="22.3133409%" x2="49.9967386%" y2="134.901695%" id="linearGradient-18">
            <stop stop-color="#455A64" offset="0%"></stop>
            <stop stop-color="#73105F" offset="100%"></stop>
        </linearGradient>
    </defs>
    <g id="Page-1" stroke="none" stroke-width="1" fill="none" fill-rule="evenodd">
        <g id="Group-2">
            <rect id="Rectangle" fill="url(#radialGradient-1)" x="0" y="0" width="946" height="568"></rect>
            <g id="augmented-reality" transform="translate(141.000000, 31.000000)" fill-rule="nonzero">
                <polygon id="Shape" fill="url(#linearGradient-2)" points="478.698165 414.524925 510.479587 271.295015 306.865596 203.661201 307.382615 318.035435"></polygon>
                <polygon id="Shape" fill="url(#linearGradient-3)" points="156.245986 400.87964 307.382615 318.035435 478.698165 414.524925 332.458005 505.696096"></polygon>
                <polygon id="Shape" fill="url(#linearGradient-4)" points="499.850298 312.261261 478.698165 414.524925 331.530413 505.817658 341.368968 405.195075 445.791468 343.958438 448.254908 342.514895"></polygon>
                <polygon id="Shape" fill="url(#linearGradient-5)" points="331.530413 505.817658 156.245986 400.87964 121.59055 303.554414 341.368968 404.693634"></polygon>
                <polygon id="Shape" fill="url(#linearGradient-6)" points="156.245986 400.87964 307.382615 318.035435 306.865596 203.661201 121.59055 303.554414"></polygon>
                <polygon id="Shape" fill="url(#linearGradient-7)" points="333.294358 212.216096 336.4725 234.188348 333.294358 255.963063 331.880161 300.1203 336.4725 327.69958 332.990229 383.678679 322.710688 385.608468 313.130642 312.291652 304.037202 242.150631 304.523807 214.966426"></polygon>
                <path d="M330.739679,108.736817 L312.978578,175.914775 C312.349673,178.668584 309.905146,180.62654 307.078486,180.64048 L254.737982,175.565285 L255.437477,167.815736 L293.362294,163.257177 C296.05383,163.05964 295.749702,161.88961 296.297133,159.260841 L307.914839,103.980721 C308.505024,98.5830724 313.126853,94.5320612 318.559335,94.6508709 C322.21303,94.4064097 325.769507,95.8908237 328.163682,98.6595654 C330.557858,101.428307 331.511746,105.159899 330.739679,108.736817 L330.739679,108.736817 Z" id="Shape" fill="url(#linearGradient-8)"></path>
                <path d="M301.710619,133.854474 L307.990872,103.980721 C308.581056,98.5830724 313.202885,94.5320612 318.635367,94.6508709 C322.286486,94.4114396 325.838432,95.8980152 328.228998,98.6660382 C330.619564,101.434061 331.571638,105.162666 330.800505,108.736817 L323.80555,140.494775 C315.578876,141.330511 308.264587,138.002763 301.710619,133.854474 Z" id="Shape" fill="url(#linearGradient-9)"></path>
                <path d="M225.678509,166.281021 C225.275715,166.299929 224.885462,166.138372 224.61406,165.84036 L223.412752,164.594354 L238.299839,162.938078 L255.376651,167.815736 L254.935665,175.534895 L245.112317,176.68973 L237.083326,173.787447 L231.426537,177.419099 C231.072653,177.625278 230.65049,177.680064 230.255642,177.571051 L228.811032,177.115195 L235.897225,171.918438 L235.79078,171.401802 L228.582936,175.033453 C228.199718,175.223442 227.74964,175.223442 227.366422,175.033453 L225.84578,174.34967 L235.243349,168.864204 L235.167317,168.423544 L224.659679,170.854775 C224.224116,170.953514 223.767472,170.840846 223.427959,170.550871 L222.287477,169.547988 L234.695917,165.931532 L234.695917,165.825165 L225.678509,166.281021 Z" id="Shape" fill="url(#linearGradient-10)"></path>
                <path d="M367.508807,221.348408 L368.147477,223.688468 C371.55364,236.46774 371.55364,249.915263 368.147477,262.694535 L367.508807,265.095375 L366.109817,309.252613 L370.671743,336.816697 L367.904174,395.196637 L355.891101,394.725586 L347.329885,321.408769 L327.728807,249.763423 L325.341399,224.919279 L367.508807,221.348408 Z" id="Shape" fill="url(#linearGradient-11)"></path>
                <path d="M333.644106,378.512312 L332.655688,378.512312 C330.950944,379.757504 328.881757,380.403981 326.770803,380.350931 C325.14968,380.379365 323.54645,380.008859 322.102431,379.272072 L321.798303,379.272072 C321.064888,379.334386 320.429386,379.804781 320.156009,380.487688 L319.532546,382.128769 C319.532546,382.128769 305.025619,395.135856 300.129151,399.603243 C295.232683,404.070631 289.241353,405.574955 298.836606,406.851351 C308.431858,408.127748 313.556422,406.638619 323.790344,397.901381 C332.534037,397.05045 335.529702,393.859459 335.529702,393.859459 L335.529702,380.183784 C335.510514,379.70896 335.298631,379.262423 334.942876,378.947067 C334.58712,378.63171 334.118178,378.474735 333.644106,378.512312 L333.644106,378.512312 Z" id="Shape" fill="#FAFAFA"></path>
                <path d="M368.208303,391.54979 L368.208303,391.54979 C366.399361,393.193469 364.022152,394.070643 361.578303,393.996216 C359.626906,394.058996 357.702303,393.529194 356.058372,392.476697 L355.93672,392.476697 C355.199311,392.528324 354.558737,393.002473 354.294427,393.692312 L353.625344,395.43976 C353.625344,395.43976 338.525367,408.978679 333.416009,413.673994 C328.306651,418.369309 322.102431,419.888829 332.09305,421.271592 C342.08367,422.654354 347.405917,421.043664 358.065619,411.956937 C367.189472,411.06042 370.230757,407.732673 370.230757,407.732673 L370.230757,393.570751 C370.267024,393.024452 370.06562,392.489086 369.678193,392.101945 C369.290767,391.714805 368.755005,391.513549 368.208303,391.54979 L368.208303,391.54979 Z" id="Shape" fill="#FAFAFA"></path>
                <path d="M307.367408,120.072432 C305.557844,145.676336 300.85906,185.6397 302.623005,221.348408 C303.200849,230.267988 345.200986,245.584745 370.702156,223.369369 C362.962087,177.783784 368.77094,152.772492 375.264083,116.486366 C376.29405,110.67464 374.016402,104.771171 369.348784,101.154414 L348.135826,87.0228829 L333.993853,88.1017417 L322.969197,91.5966366 C318.559335,92.9945946 308.568716,102.886667 307.367408,120.072432 Z" id="Shape" fill="url(#linearGradient-12)"></path>
                <path d="M327.728807,88.4816216 L328.367477,80.4433634 L347.071376,72.8457658 L347.527569,79.2733333 C342.479037,84.8043844 334.951858,89.4389189 327.728807,88.4816216 Z" id="Shape" fill="#FFAB91"></path>
                <path d="M347.527569,79.2125526 L348.196651,88.436036 L335.514495,98.2369369 C334.636436,98.9081175 333.518769,99.1845559 332.428778,99.0001435 C331.338787,98.815731 330.374481,98.1870495 329.766468,97.2644444 L328.017729,94.5900901 C327.612015,93.989193 327.399783,93.2787406 327.409472,92.5539339 L327.728807,88.4816216 C334.951858,89.4389189 342.479037,84.8043844 347.527569,79.2125526 Z" id="Shape" fill="url(#linearGradient-13)"></path>
                <path d="M306.120482,44.4611411 C306.716802,43.3304217 307.098331,42.0990946 307.245757,40.8294895 C308.163662,37.865465 311.045038,35.9586778 314.134266,36.2709309 L311.533968,35.344024 C312.450289,35.4235238 313.35091,35.069166 313.966995,34.3867267 C314.33195,33.9612613 314.560046,33.4446246 314.879381,32.9887688 C316.612913,30.4511712 320.156009,30.0864865 323.227706,29.9497297 C320.648824,28.5753911 317.509852,28.7998598 315.153096,30.5271471 C319.199575,27.1201544 324.56569,25.7139442 329.764599,26.6981493 C334.963508,27.6823544 339.443044,30.9524442 341.962018,35.6023423 C342.016676,35.6940351 342.062501,35.7907048 342.098876,35.8910511 C344.45471,36.3588631 346.706174,37.2495169 348.744083,38.5198198 C353.306009,41.4372973 355.526147,47.3178378 355.845482,52.5297898 C356.161998,58.4036914 354.97393,64.2611972 352.393624,69.5484084 C351.116284,71.9796396 350.32555,75.4593393 348.151032,77.146006 C346.631311,78.0420436 344.78942,78.2093647 343.132913,77.6018619 C342.220528,76.0823423 338.829495,73.6055255 337.506537,72.3595195 C335.149541,70.141021 332.610069,68.1200601 330.313899,65.8255856 C328.625986,64.1389189 326.192959,60.4160961 323.790344,59.8842643 C323.518357,59.6315822 323.217169,59.4122338 322.893165,59.2308709 C321.847063,61.0828065 321.321635,63.1829684 321.372523,65.3089489 C318.069345,64.3269515 315.805238,61.2918262 315.806972,57.8481081 C315.692158,58.9920738 315.149005,60.0504403 314.28633,60.8111712 C314.768013,57.8008302 313.379849,54.7983649 310.773647,53.2135736 C310.864885,53.8517718 310.956124,54.5051652 311.032156,55.1433634 C307.229071,52.4791924 305.867518,47.4841292 307.793188,43.2607207 L306.120482,44.4611411 Z" id="Shape" fill="#BE3A26"></path>
                <path d="M318.83305,46.1478078 L342.767959,46.1478078 L343.558693,54.0341141 L345.292225,57.2706907 L345.292225,65.1873874 L347.618807,64.4124324 C348.044587,63.4703303 348.470367,59.2004805 349.51961,58.9421622 C355.176399,57.5442042 352.317592,65.3393393 351.876606,66.8132733 C351.653819,67.5393314 351.104311,68.1196586 350.391135,68.3820565 C349.67796,68.6444544 348.883048,68.5587783 348.242271,68.1504505 L348.242271,77.2675676 C348.242271,77.2675676 340.791124,85.7009009 331.347936,85.7009009 C326.068518,85.9202332 321.251118,82.7089571 319.426101,77.7538138 L318.179174,56.1614414 L318.83305,46.1478078 Z" id="Shape" fill="url(#linearGradient-14)"></path>
                <path d="M373.53055,106.63988 L399.03172,171.28024 C400.163581,173.872338 399.356748,176.902026 397.085298,178.589129 L351.891812,205.484625 L347.86211,198.829129 L375.705069,172.693393 C377.742729,170.961141 376.799931,170.186186 375.705069,167.73976 L352.317592,116.34961 C349.60521,111.657106 350.924519,105.671867 355.358876,102.552372 C358.15087,100.186235 361.892642,99.2673222 365.464162,100.070694 C369.035681,100.874066 372.022493,103.306496 373.53055,106.63988 L373.53055,106.63988 Z" id="Shape" fill="url(#linearGradient-15)"></path>
                <path d="M364.984541,144.111231 L352.317592,116.34961 C349.60521,111.657106 350.924519,105.671867 355.358876,102.552372 C358.152657,100.154832 361.915486,99.2166068 365.508955,100.021548 C369.102424,100.826489 372.10437,103.280032 373.606583,106.63988 L386.805757,136.376877 C380.647156,141.877538 372.785436,143.549009 364.984541,144.111231 Z" id="Shape" fill="url(#linearGradient-16)"></path>
                <path d="M323.090849,215.179159 C322.777274,215.437603 322.364959,215.543389 321.965573,215.467868 L320.247248,215.163964 L331.271904,205.028769 L347.922936,198.829129 L352.150321,205.317477 L344.912064,212.048949 L336.68539,214.510571 L334.282775,220.786186 C334.132538,221.170894 333.821415,221.470684 333.431216,221.606727 L332.001812,222.108168 L334.617317,213.72042 L334.237156,213.355736 L330.587615,220.558258 C330.388334,220.940687 330.023602,221.209829 329.599197,221.287628 L328.078555,221.591532 L332.397179,211.608288 L332.062638,211.304384 L325.052477,219.479399 C324.75941,219.815061 324.326406,219.994878 323.881583,219.965646 L322.36094,219.828889 L330.222661,209.572132 L330.146628,209.496156 L323.090849,215.179159 Z" id="Shape" fill="url(#linearGradient-17)"></path>
                <path d="M315.259541,56.3741742 C314.651284,61.267027 315.457225,70.1562162 320.277661,72.3291291 C324.216124,74.106967 337.689014,70.6272673 340.198073,70.0498498 C341.992431,69.6547748 345.915688,70.5057057 346.919312,68.5303303 C347.213539,67.8449904 347.393332,67.116084 347.451537,66.3726126 C347.907944,63.763625 347.907944,61.0952939 347.451537,58.4863063 C346.523945,54.5963363 344.12133,54.8394595 341.247317,55.8879279 C335.934476,57.7788457 330.245002,58.3676962 324.65711,57.604985 C322.315321,57.2099099 319.654197,56.7996396 318.361651,54.5659459 C317.114725,53.7454054 315.396399,55.5232432 315.259541,56.3741742 Z" id="Shape" fill="#212121"></path>
                <path d="M340.319725,56.7844444 C340.015596,56.8604204 339.711468,56.9667868 339.392133,57.0731532 C333.745419,59.000452 327.729535,59.5984761 321.813509,58.8206006 C319.319656,58.4255255 317.738188,58.1672072 316.354404,55.8879279 C315.107477,55.1433634 312.978578,56.7692492 312.537592,57.529009 C308.948876,63.6070871 312.127018,71.538979 317.22117,73.7422823 C321.481344,75.3055074 326.054207,75.8265435 330.557202,75.2618018 C333.061928,75.132539 335.555808,74.8432391 338.023555,74.3956757 C336.791835,68.4695495 336.061927,62.3003003 340.319725,56.7844444 Z" id="Shape" fill="url(#linearGradient-18)"></path>
                <path d="M345.976514,59.6715315 C345.094541,56.1310511 342.935229,55.9790991 340.319725,56.7540541 C336.061927,62.3003003 336.791835,68.4695495 338.023555,74.3652853 L338.616606,74.2437237 C340.517408,73.8334535 344.395046,71.8580781 345.459495,69.8523123 C345.784498,69.1644274 345.980359,68.4227649 346.037339,67.6642042 C346.496478,65.0178586 346.475875,62.3105935 345.976514,59.6715315 Z" id="Shape" fill="#37474F"></path>
                <polygon id="Shape" fill="#F8AA92" opacity="0.42" style="mix-blend-mode: multiply;" points="235.866812 164.898258 237.509106 166.858438 243.409197 167.299099 245.705367 171.827267 252.989243 172.435075 246.678578 174.440841 242.770528 172.602222 241.995 168.332372 237.402661 167.876517"></polygon>
                <path d="M345.550734,56.7844444 C349.13945,55.9031231 352.687615,54.8901101 356.195229,53.7454054 C356.449491,55.228911 356.366335,56.7505794 355.951927,58.1975976 C355.951927,58.3343544 355.815069,58.3799399 355.693417,58.4559159 C352.981999,60.0841092 350.138546,61.481913 347.193028,62.6345946 L345.550734,56.7844444 Z" id="Shape" fill="#212121"></path>
                <g id="Group" opacity="0.43" transform="translate(349.747706, 77.495495)" fill="#EFEBE9">
                    <path d="M200.511881,208.204565 L184.256216,194.528889 C173.976674,216.212432 156.169954,231.529189 133.19305,235.236817 C87.2392431,242.743243 37.8639908,201.351532 23.1441743,142.986787 C8.4243578,84.622042 33.7886697,31.0133934 79.7880963,23.506967 C125.787523,16.0005405 175.10195,57.3922523 189.821766,115.772192 L189.821766,115.772192 L207.233119,113.006667 L207.233119,113.006667 C189.441606,42.4401802 129.756399,-7.5975976 74.2073394,1.47393393 C18.6582798,10.5454655 -12.0586927,75.3377778 5.77844037,145.828288 C23.6155734,216.318799 83.2095413,266.478138 138.758601,257.361021 C166.540734,252.802462 188.10344,234.355495 200.511881,208.204565 Z" id="Shape"></path>
                    <g opacity="0.54" transform="translate(25.330275, 30.390390)" id="Shape">
                        <path d="M139.628991,147.378198 C123.297294,182.555075 83.7149771,189.438498 51.4317431,162.71015 C19.1485092,135.981802 6.01016055,85.6553153 22.3266514,50.448048 C38.6431422,15.2407808 78.2406651,8.38774775 110.523899,35.1160961 L110.523899,35.1160961 L117.32117,20.4831231 L117.32117,20.4831231 C77.5563761,-12.3536937 28.8958257,-3.90516517 8.83855505,39.3403604 C-11.2187156,82.5858859 4.79364679,144.491111 44.5432339,177.343123 C84.2928211,210.195135 132.968578,201.731411 153.025849,158.485886 C163.062087,136.863123 164.065711,110.575435 157.587775,85.5489489 L143.293739,88.0257658 C148.646399,108.448108 147.779633,129.797357 139.628991,147.378198 Z"></path>
                    </g>
                    <g opacity="0.54" transform="translate(50.181193, 60.780781)" id="Shape">
                        <path d="M34.0775917,2.35525526 C5.90009174,10.7126126 -7.13181193,47.1962763 5.03332569,83.6799399 C17.1984633,120.163604 50.013922,143.047568 78.191422,134.69021 C92.2877752,130.511532 102.521697,119.297477 107.843945,104.573333 L103.388463,101.458318 C98.5832339,114.921261 89.1704587,125.162823 76.2906193,128.992012 C50.5461468,136.58961 20.5590826,115.711411 9.38236239,82.3731532 C-1.7943578,49.0348949 10.1730963,15.7118318 35.9327752,8.06864865 C61.6924541,0.425465465 91.6643119,21.3340541 102.765,54.6723123 L102.765,54.6723123 L107.174862,53.3655255 L107.174862,53.3655255 C95.0705505,16.8818619 62.2398853,-6.0021021 34.0775917,2.35525526 Z"></path>
                    </g>
                </g>
                <path d="M15.6169954,86.4302703 C15.6169954,88.1321321 14.2636239,88.3752553 12.7429817,87.3723724 C11.4772719,86.4893754 10.5158787,85.2367717 9.99061927,83.7863063 L10.2643349,83.9534535 C10.7544164,85.2609791 11.6358376,86.3858184 12.7886009,87.1748348 C14.3092431,88.1169369 15.4193119,87.8282282 15.4193119,86.3087087 C15.2386128,84.5714764 14.2685274,83.0137617 12.7886009,82.0844444 C11.8610092,81.4918318 10.9790367,81.3246847 10.4316055,81.7501502 L10.1426835,81.5526126 L11.1006881,77.4954955 L15.2216284,80.2002402 L15.2216284,80.4433634 L11.2679587,77.8753754 L10.4772248,81.3246847 C11.2765194,81.1262169 12.1226505,81.317865 12.7581881,81.8413213 C13.7976776,82.5581414 14.6270478,83.539013 15.1608028,84.6828228 C15.4319627,85.2275885 15.5872883,85.8225635 15.6169954,86.4302703 Z" id="Shape" fill="#FAFAFA"></path>
                <path d="M16.4989679,84.5004805 C16.4989679,82.4795195 17.7306881,81.4614414 19.4033945,82.6314715 C21.1713568,83.9896733 22.2326795,86.0716792 22.2926147,88.2992793 C22.2926147,90.2898498 21.1065138,91.1255856 19.4033945,90.0467267 C17.643339,88.7340279 16.5749229,86.6937977 16.4989679,84.5004805 L16.4989679,84.5004805 Z M19.4033945,89.8036036 C21.0761009,90.8976577 22.0493119,89.8036036 22.0493119,88.1473273 C21.99952,86.0831184 21.0290499,84.1491844 19.4033945,82.8745946 C17.7306881,81.7653453 16.7422706,82.9657658 16.7422706,84.6524324 C16.8082443,86.6821961 17.785706,88.5742812 19.4033945,89.8036036 L19.4033945,89.8036036 Z" id="Shape" fill="#FAFAFA"></path>
                <path d="M25.3338991,85.1386787 C26.2812294,85.7766903 26.8988071,86.7996668 27.0218119,87.9345946 C27.0218119,88.8615015 26.2614908,89.1198198 25.3338991,88.512012 C24.3711467,87.8607773 23.7516102,86.812247 23.6459862,85.6553153 C23.6459862,84.7891892 24.4063073,84.5308709 25.3338991,85.1386787 Z M23.6611927,92.6451051 L30.4888761,88.5727928 L30.6865596,88.8463063 L23.8588761,92.9186186 L23.6611927,92.6451051 Z M25.3338991,88.2688889 C26.1398394,88.8007207 26.8545413,88.5272072 26.8545413,87.7674474 C26.7238671,86.7873029 26.167546,85.9145236 25.3338991,85.3818018 C24.5279587,84.84997 23.8132569,85.1234835 23.8132569,85.8832432 C23.9439311,86.8633878 24.5002522,87.7361671 25.3338991,88.2688889 L25.3338991,88.2688889 Z M29.0290596,92.9945946 C29.9779412,93.6311307 30.5959972,94.6548996 30.7169725,95.7905105 C30.7169725,96.7174174 29.9566514,96.9757357 29.0290596,96.3679279 C28.0817293,95.7299163 27.4641516,94.7069398 27.3411468,93.572012 C27.3411468,92.6451051 28.1014679,92.3715916 29.0290596,92.9945946 Z M29.0290596,96.1248048 C29.835,96.6414414 30.5497018,96.3983183 30.5497018,95.6233634 C30.4150712,94.6446657 29.8597216,93.7734106 29.0290596,93.2377177 C28.2231193,92.7058859 27.5084174,92.9642042 27.5084174,93.723964 C27.6327989,94.7103863 28.1901186,95.5903015 29.0290596,96.1248048 L29.0290596,96.1248048 Z" id="Shape" fill="#FAFAFA"></path>
                <path d="M20.3918119,66.3118318 L20.3918119,72.2683483 C28.3751835,77.5106907 34.8835321,88.2840841 34.8835321,96.2615616 C34.8835321,104.239039 28.3751835,106.472733 20.3918119,101.23039 L20.3918119,107.186907 C31.6749771,114.586967 40.8444495,111.441562 40.8444495,100.181922 C40.8444495,88.9222823 31.7358028,73.7118919 20.3918119,66.3118318 Z" id="Shape" fill="#FAFAFA"></path>
                <g id="Group" opacity="0.23" transform="translate(0.000000, 62.300300)" fill="#FAFAFA">
                    <path d="M5.96091743,14.9368769 C5.96091743,6.9442042 12.4692661,4.72570571 20.4526376,9.96804805 L20.4526376,4.01153153 C9.16947248,-3.38852853 0,-0.243123123 0,11.0165165 C0,22.2761562 9.12385321,37.4865465 20.4526376,44.8866066 L20.4526376,38.9300901 C12.4692661,33.6877477 5.96091743,22.9143544 5.96091743,14.9368769 Z" id="Shape"></path>
                </g>
                <path d="M37.8183716,150.037357 L37.6206881,149.915796 C36.0111526,148.834967 34.9127092,147.144613 34.5794037,145.235676 L34.5794037,143.913694 C34.5794037,142.014294 35.1876606,139.461502 37.6206881,140.996216 L37.6206881,140.996216 C38.8554689,141.83658 39.7545676,143.084706 40.1601606,144.521502 L39.9320642,144.445526 C39.5485053,143.165843 38.7382187,142.055873 37.6358945,141.30012 L37.6358945,141.30012 C35.4005505,139.780601 34.913945,142.561321 34.913945,144.126426 C35.385344,143.275495 36.4345872,143.245105 37.7119266,144.05045 C39.3963903,145.176085 40.5067032,146.979012 40.753211,148.988889 C40.5251147,150.493213 39.3542202,150.994655 37.8183716,150.037357 Z M40.3730505,148.760961 C40.1679279,146.911995 39.1619349,145.245835 37.6206881,144.202402 C36.1000459,143.19952 34.8683257,143.670571 34.8683257,145.114114 C35.079377,146.961067 36.0839872,148.624938 37.6206881,149.672673 C39.1413303,150.59958 40.3730505,150.25009 40.3730505,148.760961 Z" id="Shape" fill="#FAFAFA"></path>
                <path d="M41.8024541,149.019279 C41.8024541,146.998318 43.0493807,146.056216 44.7068807,147.15027 C46.4754375,148.509695 47.541247,150.589556 47.6113073,152.818078 C47.6113073,154.808649 46.41,155.644384 44.7068807,154.565526 C42.9485499,153.251359 41.8805994,151.212018 41.8024541,149.019279 L41.8024541,149.019279 Z M44.7220872,154.322402 C46.3947936,155.416456 47.383211,154.322402 47.383211,152.666126 C47.3275983,150.599902 46.3517549,148.666372 44.7220872,147.393393 C43.0493807,146.284144 42.0609633,147.49976 42.0609633,149.186426 C42.1292987,151.211364 43.1067451,153.097838 44.7220872,154.322402 L44.7220872,154.322402 Z" id="Shape" fill="#FAFAFA"></path>
                <path d="M50.6373853,149.657477 C51.6001378,150.308712 52.2196742,151.357243 52.3252982,152.514174 C52.3252982,153.441081 51.5649771,153.699399 50.6373853,153.091592 C49.690055,152.45358 49.0724773,151.430603 48.9494725,150.295676 C48.9494725,149.307988 49.7097936,149.04967 50.6373853,149.657477 Z M48.9798853,157.163904 L55.7923624,153.091592 L55.9900459,153.365105 L49.1623624,157.452613 L48.9798853,157.163904 Z M50.6373853,152.787688 C51.4433257,153.31952 52.1580275,153.046006 52.1580275,152.286246 C52.0273533,151.306102 51.4710322,150.433322 50.6373853,149.900601 C49.831445,149.368769 49.1167431,149.642282 49.1167431,150.402042 C49.2533196,151.380025 49.8081944,152.250535 50.6373853,152.787688 Z M54.3325459,157.513393 C55.2798762,158.151405 55.8974539,159.174382 56.0204587,160.309309 C56.0204587,161.251411 55.2601376,161.494535 54.3325459,160.886727 C53.3836643,160.250191 52.7656083,159.226422 52.644633,158.090811 C52.644633,157.163904 53.4049541,156.905586 54.3325459,157.513393 L54.3325459,157.513393 Z M54.3325459,160.643604 C55.1384862,161.175435 55.8531881,160.917117 55.8531881,160.142162 C55.7185575,159.163464 55.1632079,158.292209 54.3325459,157.756517 C53.5266055,157.224685 52.8879358,157.498198 52.8879358,158.242763 C53.0003819,159.213796 53.5270007,160.089 54.3325459,160.643604 L54.3325459,160.643604 Z" id="Shape" fill="#FAFAFA"></path>
                <path d="M45.330344,130.557117 L45.330344,136.513634 C53.328922,141.755976 59.8220642,152.529369 59.8220642,160.506847 C59.8220642,168.484324 53.328922,170.718018 45.330344,165.475676 C42.7090612,163.706025 40.3624459,161.560816 38.3658028,159.108889 L35.491789,162.436637 C38.3126434,165.900538 41.6275714,168.931432 45.330344,171.432192 C56.6135092,178.832252 65.7829817,175.686847 65.7829817,164.427207 C65.7829817,153.167568 56.6135092,137.957177 45.330344,130.557117 Z" id="Shape" fill="#FAFAFA"></path>
                <g id="Group" opacity="0.23" transform="translate(24.330275, 126.120120)" fill="#FAFAFA">
                    <path d="M6.50834862,15.3623423 C6.50834862,7.36966967 13.0166972,5.15117117 21.0000688,10.3935135 L21.0000688,4.436997 C9.74731651,-2.96306306 0.623463303,0.182342342 0.623463303,11.441982 C0.623463303,19.1459459 4.92688073,28.6885285 11.2679587,36.3165165 L14.1419725,32.9887688 C9.54963303,27.5792793 6.50834862,20.8174174 6.50834862,15.3623423 Z" id="Shape"></path>
                </g>
                <path d="M37.7423394,54.1708709 L37.544656,54.0493093 C36.0070099,53.0743096 34.9523859,51.4963003 34.6402294,49.7034835 C34.6402294,48.4878679 35.6590596,48.3055255 36.6474771,48.6854054 C35.751471,47.8967942 35.1552726,46.8233558 34.9595642,45.6463664 C34.9595642,44.3091892 36.4802064,44.5219219 37.544656,45.2664865 C38.9075119,46.0997383 39.8567557,47.4674049 40.1601606,49.0348949 C40.1601606,50.0377778 39.2933945,50.1289489 38.4722477,49.8554354 C39.5682031,50.7887621 40.2825867,52.0920905 40.4794954,53.5174775 C40.3426376,54.9458258 39.0500917,54.9458258 37.7423394,54.1708709 Z M37.544656,49.3995796 C36.2521101,48.5486486 34.8835321,48.5334535 34.8835321,49.8554354 C35.173371,51.4884076 36.1397848,52.9231624 37.544656,53.8061862 C38.8219954,54.6419219 40.2057798,54.7027027 40.2057798,53.3503303 C39.9123636,51.7188048 38.9468392,50.2853705 37.544656,49.3995796 L37.544656,49.3995796 Z M37.544656,49.1412613 C38.6091055,49.8402402 39.886445,50.0225826 39.886445,48.8677477 C39.6073754,47.4676154 38.7593262,46.2460056 37.544656,45.4944144 C36.465,44.7954354 35.202867,44.6434835 35.202867,45.7983183 C35.4797747,47.2033199 36.3278376,48.4304523 37.544656,49.1868468 L37.544656,49.1412613 Z" id="Shape" fill="#FAFAFA"></path>
                <path d="M41.6808028,53.1224024 C41.6808028,51.1166366 42.9277294,50.0833634 44.5852294,51.2533934 C46.3561327,52.6175698 47.4219603,54.7030422 47.489656,56.9363964 C47.489656,58.9117718 46.2883486,59.7475075 44.5852294,58.6686486 C42.8251739,57.3559498 41.7567578,55.3157196 41.6808028,53.1224024 Z M44.5852294,58.4255255 C46.2579358,59.5347748 47.2463532,58.4255255 47.2463532,56.7692492 C47.182338,54.7051509 46.2081912,52.774983 44.5852294,51.4965165 C42.9125229,50.4024625 41.9241055,51.6028829 41.9241055,53.2895495 C41.9902753,55.3150524 42.9681755,57.2024023 44.5852294,58.4255255 Z" id="Shape" fill="#FAFAFA"></path>
                <path d="M50.5157339,53.7454054 C51.4608006,54.3786218 52.078371,55.3960266 52.2036468,56.5261261 C52.2036468,57.4682282 51.4433257,57.7265465 50.5157339,57.1187387 C49.5714672,56.4778212 48.9548272,55.4563978 48.8278211,54.3228228 C48.8278211,53.4111111 49.5881422,53.1527928 50.5157339,53.7454054 Z M48.8582339,61.343003 L55.670711,57.2706907 L55.8683945,57.5442042 L49.040711,61.6165165 L48.8582339,61.343003 Z M50.5157339,56.9515916 C51.3216743,57.4834234 52.0363761,57.2251051 52.0363761,56.4653453 C51.9097472,55.4837311 51.352424,54.6093796 50.5157339,54.0796997 C49.7097936,53.5478679 48.9950917,53.8061862 48.9950917,54.5659459 C49.1347022,55.5268254 49.691028,56.3773756 50.5157339,56.8908108 L50.5157339,56.9515916 Z M54.2108945,61.6772973 C55.1357772,62.2951704 55.7505194,63.2802455 55.8988073,64.382042 C55.8988073,65.3241441 55.1384862,65.5672673 54.2108945,64.9594595 C53.2620129,64.3229233 52.6439569,63.2991544 52.5229817,62.1635435 C52.5229817,61.343003 53.2833028,61.0087087 54.2108945,61.6165165 L54.2108945,61.6772973 Z M54.2108945,64.8075075 C55.0168349,65.3393393 55.7315367,65.081021 55.7315367,64.3212613 C55.6011146,63.3370176 55.0452797,62.4594468 54.2108945,61.9204204 C53.4049541,61.3885886 52.7662844,61.6621021 52.7662844,62.4218619 C52.8919107,63.3679649 53.4180066,64.2146306 54.2108945,64.7467267 L54.2108945,64.8075075 Z" id="Shape" fill="#FAFAFA"></path>
                <g id="Group" opacity="0.23" transform="translate(25.850917, 30.390390)" fill="#FAFAFA">
                    <path d="M18.5366284,9.67933934 L18.5366284,3.70762763 C10.7053211,-1.09405405 3.99928899,-0.698978979 0.897178899,4.02672673 L6.26504587,10.1048048 C8.40915138,6.83783784 13.0623165,6.50354354 18.5366284,9.67933934 Z" id="Shape"></path>
                </g>
                <path d="M45.330344,34.7514114 C45.0262156,34.5386787 44.7068807,34.3411411 44.3875459,34.1587988 L44.3875459,40.0697297 C44.7068807,40.2520721 45.0110092,40.4344144 45.330344,40.6471471 C53.328922,45.8894895 59.8220642,56.6476877 59.8220642,64.6403604 C59.8220642,72.633033 53.328922,74.8515315 45.330344,69.6091892 C37.3317661,64.3668468 30.8386239,53.5934535 30.8386239,45.615976 C30.7720038,43.8372077 31.2151625,42.0764253 32.1159633,40.5407808 L26.7480963,34.4627027 C25.4510972,36.6671064 24.8273906,39.2023449 24.9537385,41.7563964 C24.9537385,53.0312312 34.0775917,68.2112312 45.4063761,75.6264865 C56.7351606,83.0417417 65.8590138,79.8811411 65.8590138,68.6063063 C65.8590138,57.3314715 56.6135092,42.1514715 45.330344,34.7514114 Z" id="Shape" fill="#FAFAFA"></path>
                <polygon id="Shape" fill="#FAFAFA" points="39.9320642 192.325586 34.7162615 188.982643 34.7162615 188.73952 40.3426376 192.431952 35.887156 198.09976 35.5982339 197.917417"></polygon>
                <path d="M41.042133,196.428288 C41.042133,194.407327 42.2738532,193.389249 43.9465596,194.544084 C45.7134493,195.909875 46.7739028,197.995753 46.8357798,200.227087 C46.8357798,202.202462 45.6496789,203.053393 43.9465596,201.959339 C42.1836354,200.655868 41.1138101,198.618544 41.042133,196.428288 L41.042133,196.428288 Z M43.9465596,201.716216 C45.6192661,202.825465 46.5924771,201.716216 46.5924771,200.075135 C46.5387166,198.007668 45.5694992,196.070664 43.9465596,194.787207 C42.2738532,193.693153 41.2854358,194.893574 41.2854358,196.58024 C41.3472383,198.606879 42.3260566,200.496001 43.9465596,201.716216 L43.9465596,201.716216 Z" id="Shape" fill="#FAFAFA"></path>
                <path d="M49.8770642,197.066486 C50.8259458,197.703023 51.4440018,198.726792 51.5649771,199.862402 C51.5649771,200.789309 50.804656,201.047628 49.8770642,200.43982 C48.9327974,199.798902 48.3161574,198.777479 48.1891514,197.643904 C48.1891514,196.716997 48.9494725,196.443483 49.8770642,197.066486 Z M48.2043578,204.572913 L55.0320413,200.500601 L55.2297248,200.774114 L48.4020413,204.846426 L48.2043578,204.572913 Z M49.8770642,200.196697 C50.6830046,200.713333 51.3977064,200.455015 51.3977064,199.695255 C51.2670322,198.715111 50.7107111,197.842331 49.8770642,197.30961 C49.0711239,196.777778 48.356422,197.036096 48.356422,197.795856 C48.4828394,198.781546 49.0396566,199.660668 49.8770642,200.196697 L49.8770642,200.196697 Z M53.5722248,204.907207 C54.5164916,205.548125 55.1331316,206.569548 55.2601376,207.703123 C55.2601376,208.645225 54.4998165,208.888348 53.5722248,208.280541 C52.6170046,207.650062 51.996969,206.623014 51.8843119,205.484625 C51.8843119,204.557718 52.6294266,204.299399 53.5722248,204.907207 L53.5722248,204.907207 Z M53.5722248,208.037417 C54.3781651,208.569249 55.092867,208.310931 55.092867,207.551171 C54.9566,206.569056 54.4021832,205.693724 53.5722248,205.15033 C52.7662844,204.633694 52.1276147,204.892012 52.1276147,205.651772 C52.2303734,206.622016 52.7597798,207.496284 53.5722248,208.037417 L53.5722248,208.037417 Z" id="Shape" fill="#FAFAFA"></path>
                <path d="M45.330344,178.467568 L45.330344,184.424084 C53.328922,189.666426 59.8220642,200.424625 59.8220642,208.417297 C59.8220642,216.40997 53.328922,218.628468 45.330344,213.386126 C41.3529432,210.639135 37.9918799,207.094252 35.4613761,202.977417 L31.386055,204.648889 C34.9538053,210.476407 39.7039676,215.492229 45.330344,219.373033 C56.6135092,226.773093 65.7829817,223.627688 65.7829817,212.352853 C65.7829817,201.078018 56.6135092,185.943604 45.330344,178.467568 Z" id="Shape" fill="#FAFAFA"></path>
                <g id="Group" opacity="0.23" transform="translate(24.330275, 174.225225)" fill="#FAFAFA">
                    <path d="M6.50834862,15.1524925 C6.50834862,7.17501502 13.0166972,4.94132132 21.0000688,10.1988589 L21.0000688,4.24234234 C9.74731651,-3.17291291 0.623463303,-0.0275075075 0.623463303,11.2473273 C0.623463303,17.1278679 3.13252294,24.0720721 7.13181193,30.4236637 L11.207133,28.7521922 C8.44564865,24.7235972 6.82240535,20.0254414 6.50834862,15.1524925 Z" id="Shape"></path>
                </g>
                <g id="Group" opacity="0.4" transform="translate(49.660550, 189.685420)">
                    <polygon id="Shape" fill="#F57F17" points="0.322958716 2.86809309 2.9384633 0.239324324 168.049794 103.338724 168.110619 202.897643 165.495115 205.511216 165.419083 105.967492"></polygon>
                    <polygon id="Shape" fill="#FBC02D" points="165.297431 105.967492 165.312638 205.511216 0.0796559633 102.411817 0.0796559633 2.86809309"></polygon>
                </g>
                <g id="Group" opacity="0.4" transform="translate(18.247706, 242.868604)">
                    <polygon id="Shape" fill="#0D47A1" points="0.486605505 2.80731231 3.10211009 0.193738739 168.21344 103.293138 168.274266 202.836862 165.658761 205.465631 165.582729 105.906712"></polygon>
                    <polygon id="Shape" fill="#64B5F6" points="165.461078 105.906712 165.476284 205.465631 0.243302752 102.366231 0.243302752 2.80731231"></polygon>
                </g>
                <g id="Group" opacity="0.4" transform="translate(69.949541, 159.549550)">
                    <polygon id="Shape" fill="#FF1744" points="1.00362385 2.14252252 2.84360092 0.303903904 118.412408 72.4810811 118.458028 142.166246 116.633257 144.004865 116.587638 74.3196997"></polygon>
                    <polygon id="Shape" fill="#FF8A80" points="116.465986 74.3196997 116.45078 144.004865 0.760321101 71.8276877 0.760321101 2.14252252"></polygon>
                </g>
                <g id="Group" opacity="0.4" transform="translate(197.683486, 244.642643)">
                    <polygon id="Shape" fill="#37474F" points="0.425779817 2.40084084 2.52426606 0.303903904 69.2500459 40.9814414 69.3108716 120.741021 67.2123853 122.837958 67.1515596 43.0935736"></polygon>
                    <polygon id="Shape" fill="#B0BEC5" points="67.0299083 43.0935736 67.0299083 122.837958 0.182477064 82.1604204 0.182477064 2.40084084"></polygon>
                </g>
                <g id="Group" opacity="0.4" transform="translate(87.676606, 54.702703)">
                    <polygon id="Shape" fill="#8E24AA" points="0.322958716 2.93267267 2.9384633 0.303903904 168.049794 103.418498 168.110619 202.962222 165.495115 205.575796 165.419083 106.032072"></polygon>
                    <polygon id="Shape" fill="#CE93D8" points="165.297431 106.032072 165.312638 205.575796 0.0644495413 102.476396 0.0644495413 2.93267267"></polygon>
                </g>
                <polygon id="Shape" fill="#FFFFFF" points="252.046445 170.763604 89.0640138 67.649009 89.0640138 67.9377177 252.046445 171.067508"></polygon>
                <polygon id="Shape" fill="#FFFFFF" points="252.046445 255.34006 89.0640138 152.21027 89.0640138 152.514174 252.046445 255.628769"></polygon>
                <polygon id="Shape" fill="#FFFFFF" points="252.046445 247.651291 89.0640138 144.521502 89.0640138 144.825405 252.046445 247.94"></polygon>
                <polygon id="Shape" fill="#FFFFFF" points="252.046445 239.962523 89.0640138 136.832733 89.0640138 137.136637 252.046445 240.251231"></polygon>
                <polygon id="Shape" fill="#FFFFFF" points="252.046445 232.273754 89.0640138 129.159159 89.0640138 129.447868 252.046445 232.562462"></polygon>
                <polygon id="Shape" fill="#FFFFFF" points="252.046445 224.584985 89.0640138 121.47039 89.0640138 121.759099 252.046445 224.873694"></polygon>
                <polygon id="Shape" fill="#FFFFFF" points="252.046445 216.896216 89.0640138 113.781622 89.0640138 114.07033 252.046445 217.184925"></polygon>
                <polygon id="Shape" fill="#FFFFFF" points="252.046445 209.207447 89.0640138 106.092853 89.0640138 106.381562 252.046445 209.496156"></polygon>
                <polygon id="Shape" fill="#FFFFFF" points="252.046445 201.518679 89.0640138 98.4040841 89.0640138 98.6927928 252.046445 201.807387"></polygon>
                <polygon id="Shape" fill="#FFFFFF" points="252.046445 193.82991 89.0640138 90.7153153 89.0640138 91.004024 252.046445 194.118619"></polygon>
                <polygon id="Shape" fill="#FFFFFF" points="252.046445 186.141141 89.0640138 83.0265465 89.0640138 83.3152553 252.046445 186.42985"></polygon>
                <polygon id="Shape" fill="#FFFFFF" points="252.046445 178.452372 89.0640138 75.3377778 89.0640138 75.6264865 252.046445 178.756276"></polygon>
                <polygon id="Shape" fill="#FFFFFF" points="250.845138 254.732252 250.541009 254.534715 250.541009 169.973453 250.845138 170.155796"></polygon>
                <polygon id="Shape" fill="#FFFFFF" points="218.820413 234.461862 218.516284 234.27952 218.516284 149.703063 218.820413 149.900601"></polygon>
                <polygon id="Shape" fill="#FFFFFF" points="186.795688 214.206667 186.49156 214.009129 186.49156 129.447868 186.795688 129.63021"></polygon>
                <polygon id="Shape" fill="#FFFFFF" points="154.770963 193.936276 154.466835 193.738739 154.466835 109.177477 154.770963 109.375015"></polygon>
                <polygon id="Shape" fill="#FFFFFF" points="122.746239 173.681081 122.44211 173.483544 122.44211 88.9222823 122.746239 89.1198198"></polygon>
                <polygon id="Shape" fill="#FFFFFF" points="90.7215138 153.410691 90.4173853 153.228348 90.4173853 68.6518919 90.7215138 68.8494294"></polygon>
                <polygon id="Shape" fill="#FFFFFF" points="252.046445 207.900661 240.413532 203.828348 225.678509 185.837237 219.367844 199.467327 204.876124 169.851892 184.803647 182.12961 177.033165 164.001742 162.328555 174.152132 138.652156 136.863123 119.416032 138.868889 99.9366055 112.429249 89.0640138 110.514655 89.0640138 111.259219 99.8605734 113.173814 119.416032 139.71982 138.59133 137.729249 162.419794 175.230991 176.957133 165.186967 184.712408 183.269249 204.845711 170.961141 219.580734 201.062823 226.05867 187.083243 240.322294 204.512132 252.046445 208.614835"></polygon>
                <path d="M102.202362,114.313453 C102.202362,115.513874 101.229151,115.832973 100.027844,115.103604 C98.8080188,114.309336 98.00972,113.009572 97.8533257,111.563123 C97.8533257,110.362703 98.8265367,110.043604 100.027844,110.757778 C101.251542,111.555311 102.050349,112.861485 102.202362,114.313453 Z" id="Shape" fill="#FFFFFF"></path>
                <path d="M121.59055,140.677117 C121.59055,141.877538 120.617339,142.196637 119.416032,141.467267 C118.193005,140.676118 117.393676,139.374676 117.241514,137.926787 C117.241514,136.726366 118.214725,136.407267 119.416032,137.121441 C120.63973,137.918975 121.438537,139.225149 121.59055,140.677117 Z" id="Shape" fill="#FFFFFF"></path>
                <path d="M140.796261,138.671351 C140.796261,139.871772 139.82305,140.190871 138.621743,139.476697 C137.398046,138.679163 136.599238,137.372989 136.447225,135.921021 C136.447225,134.720601 137.420436,134.401502 138.621743,135.130871 C139.84477,135.92202 140.644099,137.223462 140.796261,138.671351 Z" id="Shape" fill="#FFFFFF"></path>
                <path d="M164.852821,175.823604 C164.852821,177.008829 163.87961,177.343123 162.678303,176.613754 C161.458478,175.819487 160.660179,174.519722 160.503784,173.073273 C160.503784,171.872853 161.476995,171.553754 162.678303,172.267928 C163.902,173.065462 164.700807,174.371635 164.852821,175.823604 L164.852821,175.823604 Z" id="Shape" fill="#FFFFFF"></path>
                <path d="M179.283716,166.676096 C179.283716,167.876517 178.310505,168.195616 177.109197,167.466246 C175.886171,166.675097 175.086841,165.373655 174.934679,163.925766 C174.934679,162.725345 175.90789,162.406246 177.109197,163.135616 C178.332224,163.926765 179.131553,165.228207 179.283716,166.676096 L179.283716,166.676096 Z" id="Shape" fill="#FFFFFF"></path>
                <path d="M186.932546,184.196156 C186.932546,185.381381 185.959335,185.715676 184.758028,184.986306 C183.53433,184.188773 182.735523,182.882599 182.583509,181.430631 C182.583509,180.245405 183.55672,179.911111 184.758028,180.64048 C185.981725,181.438014 186.780532,182.744188 186.932546,184.196156 L186.932546,184.196156 Z" id="Shape" fill="#FFFFFF"></path>
                <path d="M206.913784,172.267928 C206.913784,173.468348 205.940573,173.787447 204.739266,173.058078 C203.516239,172.266929 202.71691,170.965487 202.564748,169.517598 C202.564748,168.317177 203.537959,167.998078 204.739266,168.727447 C205.962293,169.518596 206.761622,170.820039 206.913784,172.267928 L206.913784,172.267928 Z" id="Shape" fill="#FFFFFF"></path>
                <path d="M221.29906,201.594655 C221.29906,202.795075 220.325849,203.114174 219.124541,202.384805 C217.901515,201.593656 217.102185,200.292214 216.950023,198.844324 C216.950023,197.643904 217.923234,197.324805 219.124541,198.054174 C220.347568,198.845323 221.146897,200.146765 221.29906,201.594655 L221.29906,201.594655 Z" id="Shape" fill="#FFFFFF"></path>
                <path d="M228.263601,187.964565 C228.263601,189.164985 227.29039,189.484084 226.104289,188.76991 C224.880591,187.972376 224.081784,186.666202 223.929771,185.214234 C223.929771,184.013814 224.902982,183.694715 226.104289,184.424084 C227.318333,185.221568 228.110742,186.520827 228.263601,187.964565 L228.263601,187.964565 Z" id="Shape" fill="#FFFFFF"></path>
                <path d="M242.770528,205.697357 C242.770528,206.897778 241.797317,207.216877 240.596009,206.502703 C239.372312,205.705169 238.573504,204.398995 238.421491,202.947027 C238.421491,201.761802 239.394702,201.427508 240.596009,202.156877 C241.815834,202.951144 242.614133,204.250908 242.770528,205.697357 L242.770528,205.697357 Z" id="Shape" fill="#FFFFFF"></path>
                <path d="M244.656124,193.191712 L252.046445,193.723544 L252.046445,192.933393 L244.306376,192.371171 C243.845846,191.464647 243.111735,190.725762 242.20789,190.259039 C241.447569,189.90955 240.854518,190.076697 240.596009,190.593333 L218.501078,171.979219 C218.514894,171.85805 218.514894,171.735704 218.501078,171.614535 C218.195398,170.185995 217.270634,168.966876 215.976812,168.286787 C214.790711,167.754955 214.015183,168.393153 214.228073,169.715135 L214.228073,169.715135 L197.501009,166.858438 C197.041286,166.08538 196.371658,165.458397 195.569794,165.05021 C194.763853,164.700721 194.155596,164.898258 193.912294,165.475676 L174.721789,151.146607 L174.721789,151.146607 C174.416818,149.709501 173.485536,148.483568 172.182317,147.803664 C171.011422,147.287027 170.235894,147.925225 170.448784,149.323183 L170.448784,149.551111 L159.469748,152.134294 C159.02563,151.475883 158.410616,150.950619 157.690596,150.614775 C157.221407,150.281 156.580073,150.332269 156.169954,150.736336 L147.654358,141.011411 C147.700155,140.765333 147.700155,140.512925 147.654358,140.266847 C147.349387,138.829741 146.418104,137.603808 145.114885,136.923904 C143.943991,136.407267 143.168463,137.045465 143.381353,138.443423 C143.381353,138.54979 143.381353,138.656156 143.472592,138.777718 L124.875138,139.507087 C124.418594,138.688791 123.731067,138.022911 122.898303,137.592492 C122.752021,137.525921 122.599107,137.474988 122.44211,137.440541 L117.195894,125.162823 C117.483491,124.786482 117.579075,124.29768 117.454404,123.840841 C117.149295,122.407567 116.21739,121.186391 114.914931,120.513093 C113.744037,119.981261 112.968509,120.619459 113.181399,121.941441 C113.252854,122.327857 113.380952,122.701629 113.56156,123.050691 L102.324014,128.201862 C101.928671,127.643516 101.40786,127.185541 100.803372,126.864685 C100.525937,126.742639 100.224287,126.685472 99.9213991,126.697538 L94.2341972,117.443664 C94.4201251,117.077636 94.4686774,116.65716 94.371055,116.258438 C94.0655527,114.826032 93.1413856,113.602136 91.846789,112.915495 C90.7215138,112.429249 89.9916055,112.915495 90.082844,114.146306 L89.1400459,114.146306 L89.1400459,114.951652 L90.2653211,114.951652 C90.689589,116.129375 91.5344336,117.108888 92.6375229,117.701982 C93.0209872,117.866736 93.455366,117.866736 93.8388303,117.701982 L99.4347936,126.819099 C99.0481269,127.185318 98.9061901,127.740826 99.0698394,128.247447 C99.3748105,129.684553 100.306093,130.910486 101.609312,131.59039 C102.780206,132.107027 103.555734,131.468829 103.342844,130.146847 C103.257257,129.717129 103.10866,129.302388 102.901858,128.916036 L114.124197,123.74967 C114.539628,124.393262 115.116275,124.9171 115.796904,125.269189 C116.107617,125.422499 116.458311,125.475595 116.800528,125.421141 L122.092362,137.197417 C121.529725,137.334174 121.240803,137.911592 121.377661,138.716937 C121.69048,140.15044 122.619496,141.37339 123.917133,142.05988 C125.103234,142.591712 125.878761,141.938318 125.650665,140.631532 C125.616316,140.418707 125.560268,140.209952 125.483394,140.008529 L144.004817,139.279159 C144.466813,140.222777 145.217897,140.994598 146.148922,141.482462 C146.633895,141.794289 147.272191,141.71775 147.669564,141.30012 L156.154748,150.979459 C156.10063,151.255414 156.10063,151.539241 156.154748,151.815195 C156.465627,153.249592 157.395201,154.473276 158.69422,155.158138 C159.865115,155.674775 160.655849,155.036577 160.427752,153.714595 C160.372861,153.387429 160.270402,153.070039 160.123624,152.772492 L170.950596,150.2197 C171.403314,151.198804 172.168024,152.000356 173.125115,152.498979 C174.052706,152.909249 174.721789,152.59015 174.858647,151.784805 L193.851468,166.18985 C193.836879,166.326218 193.836879,166.463752 193.851468,166.60012 C194.162348,168.034516 195.091921,169.2582 196.39094,169.943063 C197.561835,170.4597 198.352569,169.821502 198.124472,168.49952 C198.074532,168.260643 198.003284,168.026716 197.911583,167.800541 L214.425757,170.611652 C214.865625,171.694295 215.673247,172.587404 216.70672,173.134054 C217.527867,173.498739 218.15133,173.286006 218.379427,172.678198 L240.413532,191.246727 C240.398857,191.418627 240.398857,191.591463 240.413532,191.763363 C240.726352,193.196867 241.655368,194.419817 242.953005,195.106306 C244.139106,195.638138 244.914633,194.99994 244.686537,193.677958 C244.686381,193.515406 244.676224,193.353018 244.656124,193.191712 Z" id="Shape" fill="#FFFFFF"></path>
                <g id="Group" opacity="0.4" transform="translate(165.750000, 0.000000)">
                    <polygon id="Shape" fill="#BDBDBD" points="0.897178899 2.09693694 2.99566514 0 69.7366514 40.6927327 69.7822706 120.452312 67.6837844 122.549249 67.6229587 42.7896697"></polygon>
                    <polygon id="Shape" fill="#F5F5F5" points="67.5165138 42.7896697 67.5013073 122.549249 0.653876147 81.8565165 0.653876147 2.09693694"></polygon>
                </g>
                <polygon id="Shape" fill="#FFFFFF" points="231.609014 57.057958 168.030963 14.1163363 168.030963 14.2227027 231.609014 57.1795195"></polygon>
                <polygon id="Shape" fill="#FFFFFF" points="231.609014 116.820661 168.030963 73.8638438 168.030963 73.9702102 231.609014 116.927027"></polygon>
                <polygon id="Shape" fill="#FFFFFF" points="231.609014 106.867808 168.030963 63.910991 168.030963 64.0173574 231.609014 106.974174"></polygon>
                <polygon id="Shape" fill="#FFFFFF" points="231.609014 96.8997598 168.030963 53.9429429 168.030963 54.0493093 231.609014 97.0061261"></polygon>
                <polygon id="Shape" fill="#FFFFFF" points="231.609014 86.9469069 168.030963 43.9900901 168.030963 44.0964565 231.609014 87.0532733"></polygon>
                <polygon id="Shape" fill="#FFFFFF" points="231.609014 76.9788589 168.030963 34.022042 168.030963 34.1284084 231.609014 77.0852252"></polygon>
                <polygon id="Shape" fill="#FFFFFF" points="231.609014 67.026006 168.030963 24.0691892 168.030963 24.1755556 231.609014 67.1323724"></polygon>
                <polygon id="Shape" fill="#FFFFFF" points="169.475573 74.8971171 169.886147 75.1706306 169.886147 15.4079279 169.475573 15.1344144"></polygon>
                <polygon id="Shape" fill="#FFFFFF" points="199.629908 95.2586787 200.025275 95.5321922 200.025275 35.7846847 199.629908 35.5111712"></polygon>
                <polygon id="Shape" fill="#FFFFFF" points="229.769037 115.635435 230.17961 115.908949 230.17961 56.1462462 229.769037 55.8727327"></polygon>
                <polygon id="Shape" fill="#D5C2AC" points="231.609014 71.1287087 229.769037 71.4478078 214.015183 65.0962162 205.712477 79.5316517 194.809472 62.0875676 190.39961 49.2476276 169.886147 25.3151952 168.030963 24.8745345 168.030963 73.8638438 231.609014 116.820661"></polygon>
                <polygon id="Shape" fill="#E4D2BC" points="231.609014 79.6076276 229.769037 77.7538138 209.255573 71.538979 204.845711 76.0367568 193.942706 76.3406607 185.64 55.4928529 169.886147 41.6044444 168.030963 39.158018 168.030963 73.8638438 231.609014 116.820661"></polygon>
                <polygon id="Shape" fill="#F6E8D7" points="231.609014 96.3223423 229.769037 95.7753153 214.015183 87.0532733 205.712477 90.4418018 194.809472 78.543964 190.39961 71.1439039 169.886147 52.7729129 168.030963 51.8763964 168.030963 73.8638438 231.609014 116.820661"></polygon>
                <g id="Group" opacity="0.4" transform="translate(493.688073, 156.255991)">
                    <polygon id="Shape" fill="#F57F17" points="167.867317 2.86809309 165.251812 0.239324324 0.140481651 103.338724 0.0796559633 202.897643 2.69516055 205.511216 2.77119266 105.967492"></polygon>
                    <polygon id="Shape" fill="#FBC02D" points="2.89284404 105.967492 2.87763761 205.511216 168.110619 102.411817 168.110619 2.86809309"></polygon>
                </g>
                <g id="Group" opacity="0.4" transform="translate(428.565726, 331.255255)">
                    <polygon id="Shape" fill="#37474F" points="68.9884025 2.49201201 66.8899163 0.395075075 0.164136494 41.0726126 0.103310806 120.832192 2.20179704 122.929129 2.26262273 43.1695495"></polygon>
                    <polygon id="Shape" fill="#B0BEC5" points="2.38427411 43.1695495 2.38427411 122.929129 69.2469117 82.2515916 69.2469117 2.49201201"></polygon>
                </g>
                <g id="Group" opacity="0.4" transform="translate(452.630734, 128.639640)">
                    <polygon id="Shape" fill="#0D47A1" points="167.943349 2.84438438 165.327844 0.230810811 0.216513761 103.33021 0.140481651 274.488889 2.77119266 277.102462 2.83201835 105.943784"></polygon>
                    <polygon id="Shape" fill="#64B5F6" points="2.96887615 105.943784 2.95366972 277.102462 168.186651 174.003063 168.186651 2.84438438"></polygon>
                </g>
                <g id="Group" opacity="0.48" transform="translate(466.837156, 157.775511)" fill="#D6D5CA">
                    <polygon id="Shape" points="149.479128 10.4656907 0.684288991 104.463168 0.684288991 94.1608258 149.479128 0.178543544"></polygon>
                    <polygon id="Shape" points="149.463922 38.0297748 0.684288991 131.996862 0.684288991 121.709715 149.463922 27.7274324"></polygon>
                    <polygon id="Shape" points="149.418303 65.5938589 0.684288991 159.545751 0.684288991 149.243408 149.418303 55.3067117"></polygon>
                    <polygon id="Shape" points="149.631193 93.005991 0.684288991 187.09464 0.684288991 176.792297 149.631193 82.7188438"></polygon>
                    <polygon id="Shape" points="149.555161 117.698183 0.669082569 211.422147 0.699495413 201.10461 149.60078 107.380646"></polygon>
                </g>
                <g id="Group" opacity="0.57" transform="translate(459.233945, 186.900901)" fill="#FBC02D">
                    <polygon id="Shape" points="109.957638 11.1228829 0.608256881 80.185045 0.608256881 69.8827027 109.957638 0.820540541"></polygon>
                    <polygon id="Shape" points="88.1060092 52.4538138 0.608256881 107.733934 0.608256881 97.4315916 88.1060092 42.1666667"></polygon>
                    <polygon id="Shape" points="19.9508257 123.050691 0.608256881 135.267628 0.608256881 124.98048 19.9508257 112.763544"></polygon>
                    <polygon id="Shape" points="49.6641743 131.833514 0.608256881 162.816517 0.608256881 152.514174 49.6641743 121.531171"></polygon>
                    <polygon id="Shape" points="123.780275 109.663724 0.593050459 187.144024 0.623463303 176.826486 123.810688 99.3461862"></polygon>
                </g>
                <path d="M463.659014,178.346006 C451.919656,184.84955 442.370023,177.662222 442.370023,162.315075 C442.370023,146.967928 451.90445,129.204745 463.659014,122.701201 C475.413578,116.197658 484.948005,123.40018 484.948005,138.747327 C484.948005,154.094474 475.398372,171.872853 463.659014,178.346006 Z M463.659014,123.172252 C452.132546,129.569429 442.734977,147.028709 442.734977,162.117538 C442.734977,177.206366 452.132546,184.272132 463.659014,177.874955 C475.185482,171.477778 484.58305,154.018498 484.58305,138.944865 C484.58305,123.871231 475.200688,116.805465 463.659014,123.187447 L463.659014,123.172252 Z" id="Shape" fill="#FFFFFF"></path>
                <path d="M463.659014,119.662162 L463.233234,119.92048 L463.233234,126.5 L463.659014,126.256877 C473.908142,120.573874 482.256468,126.849489 482.256468,140.251652 C482.256468,153.653814 473.908142,169.122523 463.659014,174.835916 C463.522086,174.92087 463.379871,174.997001 463.233234,175.063844 L463.233234,181.643363 L463.659014,181.430631 C476.690917,174.212913 487.228968,154.48955 487.228968,137.470931 C487.228968,120.452312 476.690917,112.45964 463.659014,119.662162 Z" id="Shape" fill="#B0BEC5" opacity="0.64"></path>
                <path d="M456.131835,147.606126 C456.299106,147.49976 456.390344,147.606126 456.390344,147.803664 L456.390344,149.475135 C456.403707,149.677213 456.304251,149.870133 456.131835,149.976577 L453.09055,151.648048 L453.09055,154.413574 L456.283899,153.957718 C456.45117,153.957718 456.511995,153.957718 456.511995,154.216036 L456.511995,159.032913 C456.605068,160.458663 455.879959,161.813556 454.641606,162.527808 L453.029725,163.424324 C451.798005,164.092913 451.144128,163.606667 451.144128,162.011171 L451.144128,161.448949 C451.126199,161.242018 451.234028,161.044477 451.417844,160.947508 L452.695183,160.233333 C452.877661,160.126967 452.968899,160.233333 452.968899,160.430871 L452.968899,161.12985 L454.489541,160.324505 C454.673357,160.227535 454.781186,160.029994 454.763257,159.823063 L454.763257,156.601682 L451.569908,157.057538 C451.402638,157.057538 451.341812,157.057538 451.341812,156.799219 L451.341812,150.721141 C451.331768,150.519767 451.430405,150.328436 451.600321,150.2197 L456.131835,147.606126 Z" id="Shape" fill="#FFFFFF"></path>
                <path d="M458.808165,148.639399 C458.717815,147.166558 459.472479,145.770283 460.754587,145.038138 L462.275229,144.217598 C463.537362,143.518619 464.206445,144.02006 464.206445,145.737117 L464.206445,154.732673 C464.307177,156.203857 463.556884,157.602976 462.275229,158.333934 L460.754587,159.16967 C459.492454,159.868649 458.808165,159.367207 458.808165,157.65015 L458.808165,148.639399 Z M461.84945,156.236997 C462.211335,156.037291 462.424776,155.646271 462.396881,155.234114 L462.396881,147.11988 C462.396881,146.664024 462.199197,146.527267 461.84945,146.724805 L461.073922,147.15027 C460.720626,147.356738 460.514536,147.745077 460.541697,148.153153 L460.541697,156.267387 C460.541697,156.738438 460.724174,156.86 461.073922,156.677658 L461.84945,156.236997 Z" id="Shape" fill="#FFFFFF"></path>
                <path d="M471.110161,143.19952 C471.084647,144.763969 470.302641,146.219238 469.011674,147.104685 C467.810367,147.773273 466.867569,147.104685 466.867569,145.585165 C466.889288,143.983875 467.689063,142.493197 469.011674,141.588829 C470.167362,140.92024 471.110161,141.664805 471.110161,143.19952 Z M475.504817,138.033153 C475.7025,137.926787 475.839358,138.033153 475.717706,138.321862 L469.528693,153.942523 C469.437454,154.185646 469.391835,154.307207 469.224564,154.398378 L467.962431,155.097357 C467.764748,155.203724 467.62789,155.097357 467.749541,154.808649 L473.938555,139.172793 C473.978925,138.992061 474.087969,138.834064 474.242683,138.732132 L475.504817,138.033153 Z M468.251353,144.77982 C468.251353,145.296456 468.601101,145.53958 469.011674,145.311652 C469.456368,145.002512 469.727363,144.500413 469.741583,143.959279 C469.741583,143.427447 469.391835,143.169129 469.011674,143.381862 C468.546395,143.697099 468.262972,144.218211 468.251353,144.77982 L468.251353,144.77982 Z M476.401995,147.955616 C476.374121,149.515325 475.592091,150.964975 474.303509,151.845586 C473.102202,152.514174 472.159404,151.845586 472.159404,150.326066 C472.181123,148.724776 472.980898,147.234098 474.303509,146.32973 C475.459197,145.661141 476.401995,146.436096 476.401995,147.955616 Z M473.543188,149.475135 C473.543188,149.991772 473.892936,150.25009 474.303509,150.006967 C474.743983,149.700985 475.014442,149.20551 475.033417,148.66979 C475.033417,148.122763 474.68367,147.87964 474.303509,148.077177 C473.842043,148.395853 473.55977,148.914853 473.543188,149.475135 Z" id="Shape" fill="#FFFFFF"></path>
                <path d="M531.327592,175.048649 C519.60344,181.552192 510.038601,174.364865 510.038601,159.017718 C510.038601,143.670571 519.588234,125.907387 531.327592,119.403844 C543.06695,112.9003 552.616583,120.102823 552.616583,135.44997 C552.616583,150.797117 543.006124,168.5603 531.327592,175.048649 Z M531.327592,119.874895 C519.801124,126.272072 510.403555,143.731351 510.403555,158.82018 C510.403555,173.909009 519.801124,180.974775 531.327592,174.577598 C542.85406,168.18042 552.251628,150.721141 552.251628,135.647508 C552.251628,120.573874 542.80844,113.492913 531.327592,119.874895 Z" id="Shape" fill="#FFFFFF"></path>
                <g id="Group" opacity="0.64" transform="translate(530.704128, 113.444444)" fill="#B0BEC5">
                    <path d="M0.623463303,2.90516517 L0.319334862,3.08750751 L0.319334862,9.68222222 L0.623463303,9.48468468 C10.8725917,3.81687688 19.2209174,10.0924925 19.2209174,23.4946547 C19.2209174,24.2442843 19.1905046,24.9888488 19.1296789,25.7283483 L24.178211,22.9324324 C24.178211,22.1878679 24.2542431,21.4129129 24.2542431,20.7139339 C24.1934174,3.68012012 13.5945413,-4.29735736 0.623463303,2.90516517 Z" id="Shape"></path>
                </g>
                <path d="M520.226904,155.65958 C520.099823,155.80773 520.029737,155.996286 520.02922,156.191411 L520.02922,157.710931 C520.02922,157.938859 520.120459,157.99964 520.302936,157.908468 L521.747546,157.103123 L521.747546,156.388949 C521.729616,156.182018 521.837445,155.984477 522.021261,155.887508 L523.313807,155.173333 C523.481078,155.066967 523.572317,155.173333 523.572317,155.370871 L523.572317,158.06042 C523.582361,158.261795 523.483723,158.453126 523.313807,158.561862 L518.478165,161.236216 C518.295688,161.327387 518.20445,161.236216 518.20445,161.038679 L518.20445,155.857117 C518.203331,155.538319 518.329164,155.232169 518.554197,155.006186 L521.747546,150.994655 L521.747546,148.411471 C521.747546,147.955616 521.549862,147.818859 521.215321,148.001201 L520.561445,148.365886 C520.205428,148.569734 519.998363,148.959911 520.02922,149.368769 L520.02922,150.736336 C520.035692,150.896974 519.954102,151.048386 519.81633,151.131411 L518.417339,151.906366 C518.265275,151.982342 518.20445,151.906366 518.20445,151.739219 L518.20445,149.885405 C518.103717,148.414221 518.85401,147.015102 520.135665,146.284144 L521.656307,145.448408 C522.903234,144.749429 523.587523,145.250871 523.587523,146.967928 L523.587523,150.994655 C523.58231,151.312183 523.457412,151.616059 523.237775,151.845586 L520.226904,155.65958 Z" id="Shape" fill="#FFFFFF"></path>
                <path d="M530.82578,140.358018 C531.008257,140.266847 531.099495,140.358018 531.099495,140.555556 L531.099495,142.181441 C531.113443,142.38752 531.006722,142.58303 530.82578,142.682883 L527.784495,144.354354 L527.784495,147.104685 L530.977844,146.648829 C531.129908,146.648829 531.20594,146.74 531.20594,146.922342 L531.20594,151.724024 C531.303428,153.154643 530.569992,154.514045 529.320344,155.218919 L527.708463,156.115435 C526.49195,156.799219 525.838073,156.297778 525.838073,154.702282 L525.838073,154.14006 C525.82471,153.937983 525.924167,153.745063 526.096583,153.638619 L527.389128,152.924444 C527.556399,152.833273 527.662844,152.924444 527.662844,153.121982 L527.662844,153.836156 L529.183486,153.015616 C529.361743,152.913116 529.467469,152.719429 529.457202,152.514174 L529.457202,149.307988 L526.248647,149.763844 C526.096583,149.763844 526.02055,149.687868 526.02055,149.505526 L526.02055,143.427447 C526.012563,143.226716 526.118447,143.038618 526.294266,142.941201 L530.82578,140.358018 Z" id="Shape" fill="#FFFFFF"></path>
                <path d="M538.155275,140.206066 C538.122257,141.768555 537.341975,143.220617 536.056789,144.111231 C534.855482,144.764625 533.92789,144.111231 533.92789,142.591712 C533.943589,140.992574 534.737981,139.501355 536.056789,138.595375 C537.212477,137.911592 538.155275,138.656156 538.155275,140.206066 Z M542.549931,135.0397 C542.747615,134.918138 542.884472,135.0397 542.762821,135.313213 L536.573807,150.994655 C536.482569,151.237778 536.43695,151.344144 536.269679,151.435315 L535.007546,152.134294 C534.809862,152.255856 534.673005,152.134294 534.794656,151.860781 L540.98367,136.224925 C541.074908,135.981802 541.135734,135.86024 541.303005,135.769069 L542.549931,135.0397 Z M535.311674,141.786366 C535.311674,142.287808 535.646216,142.546126 536.056789,142.318198 C536.494261,142.002672 536.76317,141.504438 536.786697,140.965826 C536.786697,140.418799 536.43695,140.175676 536.056789,140.388408 C535.597284,140.707003 535.319828,141.227555 535.311674,141.786366 L535.311674,141.786366 Z M543.492729,144.916577 C543.464694,146.480369 542.683269,147.934557 541.394243,148.821742 C540.192936,149.475135 539.265344,148.821742 539.265344,147.302222 C539.28083,145.707159 540.075844,144.220445 541.394243,143.321081 C542.504312,142.652492 543.492729,143.397057 543.492729,144.916577 Z M540.649128,146.436096 C540.649128,146.937538 540.98367,147.195856 541.394243,146.967928 C541.831715,146.652402 542.100624,146.154168 542.124151,145.615556 C542.124151,145.068529 541.774404,144.825405 541.394243,145.038138 C540.890432,145.364234 540.5913,145.927567 540.603509,146.527267 L540.649128,146.436096 Z" id="Shape" fill="#FFFFFF"></path>
                <path d="M573.145252,90.4266066 C561.421101,96.9301502 551.856261,89.7276276 551.856261,74.3804805 C551.856261,59.0333333 561.405894,41.2701502 573.145252,34.7818018 C584.88461,28.2934535 594.434243,35.4807808 594.434243,50.8127327 C594.434243,66.1446847 584.88461,83.9230631 573.145252,90.4266066 Z M573.145252,35.2528529 C561.618784,41.6348348 552.221216,59.1093093 552.221216,74.1829429 C552.221216,89.2565766 561.618784,96.3375375 573.145252,89.9555556 C584.67172,83.5735736 594.084495,66.0990991 594.084495,51.0102703 C594.084495,35.9214414 584.686927,28.8556757 573.145252,35.2528529 L573.145252,35.2528529 Z" id="Shape" fill="#FFFFFF"></path>
                <path d="M573.145252,31.7275676 L572.841124,31.9099099 L572.841124,38.5502102 L573.145252,38.3678679 C583.394381,32.6848649 591.742706,38.9756757 591.742706,52.3626426 C591.742706,65.7496096 583.394381,81.2335135 573.145252,86.9621021 C568.370436,89.6060661 564.021399,89.6516517 560.721606,87.5851051 L557.178509,94.1494294 C561.390688,96.8997598 567.017064,96.8997598 573.175665,93.4808408 C586.207569,86.2631231 596.806445,66.5397598 596.806445,49.5211411 C596.806445,32.5025225 586.177156,24.5098498 573.145252,31.7275676 Z" id="Shape" fill="#B0BEC5" opacity="0.64"></path>
                <path d="M564.447179,65.7344144 C565.663693,65.0506306 566.332775,65.5520721 566.332775,67.1475676 L566.332775,70.8551952 C566.422834,72.2841972 565.691391,73.6399029 564.447179,74.3500901 L562.835298,75.2466066 C561.618784,75.9303904 560.949702,75.4289489 560.949702,73.8334535 L560.949702,69.2748949 C560.952412,68.9511262 560.998439,68.6291737 561.08656,68.3175976 L562.987362,61.3278078 C563.029883,61.1438538 563.145064,60.9849111 563.306697,60.8871471 L564.705688,60.1273874 C564.903372,60.0058258 564.979404,60.1273874 564.903372,60.4160961 L563.261078,66.3726126 L564.447179,65.7344144 Z M564.021399,72.2683483 C564.377778,72.0723847 564.586072,71.6858384 564.553624,71.2806607 L564.553624,68.6974775 C564.553624,68.2416216 564.371147,68.0896697 564.021399,68.2872072 L563.261078,68.6974775 C562.907781,68.903945 562.701692,69.2922839 562.728853,69.7003604 L562.728853,72.2835435 C562.728853,72.7393994 562.91133,72.8913514 563.261078,72.6938138 L564.021399,72.2683483 Z" id="Shape" fill="#FFFFFF"></path>
                <path d="M570.620986,66.3118318 C570.498199,66.461448 570.433424,66.6502378 570.438509,66.8436637 L570.438509,68.3631832 C570.438509,68.5911111 570.529748,68.6670871 570.712225,68.5759159 L572.232867,67.7705706 L572.232867,67.0412012 C572.218919,66.8351228 572.32564,66.6396129 572.506583,66.5397598 L573.783922,65.8255856 C573.966399,65.7344144 574.057638,65.8255856 574.057638,66.0383183 L574.057638,68.7278679 C574.071585,68.9339462 573.964865,69.1294562 573.783922,69.2293093 L568.872248,71.9796396 C568.704977,72.0708108 568.613739,71.9796396 568.613739,71.7669069 L568.613739,66.5093694 C568.614982,66.1955045 568.740762,65.8949478 568.963486,65.6736336 L572.156835,61.6621021 L572.156835,59.0637237 C572.156835,58.6078679 571.959151,58.4711111 571.62461,58.6534535 L570.970734,59.0029429 C570.614717,59.2067911 570.407652,59.5969684 570.438509,60.0058258 L570.438509,61.3733934 C570.447319,61.5386235 570.365837,61.6956503 570.225619,61.7836637 L568.826628,62.5586186 C568.674564,62.5586186 568.613739,62.5586186 568.613739,62.3914715 L568.613739,60.5224625 C568.515286,59.0557862 569.265749,57.6622534 570.544954,56.9363964 L572.065596,56.1006607 C573.312523,55.4016817 573.996812,55.9031231 573.996812,57.6201802 L573.996812,61.7532733 C573.995635,62.0746272 573.863922,62.3817291 573.631858,62.6042042 L570.620986,66.3118318 Z" id="Shape" fill="#FFFFFF"></path>
                <path d="M580.900528,55.0977778 C580.872653,56.657487 580.090624,58.1071369 578.802041,58.9877477 C577.61594,59.6563363 576.673142,58.9877477 576.673142,57.4682282 C576.69646,55.8710399 577.489105,54.3830981 578.802041,53.4718919 C579.988142,52.8033033 580.900528,53.5478679 580.900528,55.0977778 Z M585.295183,49.9162162 C585.492867,49.8098498 585.629725,49.9162162 585.508073,50.2049249 L579.334266,65.9015616 C579.227821,66.1598799 579.182202,66.2662462 579.014931,66.3574174 L577.752798,67.0563964 C577.555115,67.1627628 577.418257,67.0563964 577.539908,66.7676877 L583.728922,51.147027 C583.835367,50.8887087 583.880986,50.7823423 584.048257,50.6911712 L585.295183,49.9162162 Z M578.056927,56.6628829 C578.056927,57.1795195 578.391468,57.4378378 578.802041,57.1947147 C579.242515,56.8887329 579.512974,56.3932574 579.53195,55.8575375 C579.53195,55.3105105 579.182202,55.0673874 578.802041,55.2649249 C578.344456,55.585222 578.067566,56.1047143 578.056927,56.6628829 Z M586.192362,59.8386787 C586.164488,61.3983879 585.382458,62.8480378 584.093876,63.7286486 C582.907775,64.3972372 581.964977,63.7286486 581.964977,62.2091291 C581.988295,60.6119408 582.78094,59.123999 584.093876,58.2127928 C585.249564,57.5442042 586.192362,58.303964 586.192362,59.8234835 L586.192362,59.8386787 Z M583.348761,61.3581982 C583.348761,61.8596396 583.683303,62.117958 584.093876,61.89003 C584.531348,61.5745041 584.800257,61.0762697 584.823784,60.5376577 C584.823784,59.9906306 584.474037,59.7475075 584.093876,59.945045 C583.618377,60.2842977 583.339873,60.8352162 583.348761,61.418979 L583.348761,61.3581982 Z" id="Shape" fill="#FFFFFF"></path>
                <g id="Group" opacity="0.4" transform="translate(530.704128, 247.681682)">
                    <polygon id="Shape" fill="#FF1744" points="117.484817 2.14252252 115.644839 0.303903904 0.0760321101 72.4810811 0.015206422 142.166246 1.85518349 144.004865 1.90080275 74.3196997"></polygon>
                    <polygon id="Shape" fill="#FF8A80" points="2.02245413 74.3196997 2.03766055 144.004865 117.728119 71.8276877 117.728119 2.14252252"></polygon>
                </g>
            </g>
        </g>
    </g>
</svg>