<?xml version="1.0" encoding="UTF-8"?>
<svg width="100px" height="96px" viewBox="0 0 100 96" version="1.1" xmlns="http://www.w3.org/2000/svg" xmlns:xlink="http://www.w3.org/1999/xlink">
    <!-- Generator: Sketch 43.2 (39069) - http://www.bohemiancoding.com/sketch -->
    <title>Shape</title>
    <desc>Created with Sketch.</desc>
    <defs></defs>
    <g id="Page-1" stroke="none" stroke-width="1" fill="none" fill-rule="evenodd" opacity="0.123018569">
        <g id="Desktop-Portrait" transform="translate(-179.000000, -1233.000000)" fill-rule="nonzero" fill="#2575FC">
            <g id="blob-shape-(1)" transform="translate(179.000000, 1233.000000)">
                <path d="M78.7096774,6.37571157 C87.1726755,10.341556 94.9525617,16.8311195 98.1214421,25.0474383 C101.290323,33.2637571 99.829222,43.2068311 97.2296015,52.1442125 C94.629981,61.0815939 90.8728653,69.0132827 85.5787476,76.1480076 C80.2656546,83.3017078 73.3965844,89.658444 65.142315,92.7324478 C56.8880455,95.8254269 47.2485769,95.654649 38.0834915,93.2258065 C28.9184061,90.8159393 20.2466793,86.1669829 13.4724858,79.3358634 C6.67931689,72.4857685 1.82163188,63.4535104 0.45540797,53.9089184 C-0.929791271,44.345351 1.19544592,34.3074004 5.42694497,25.2941176 C9.65844402,16.2998102 15.9962049,8.33017078 24.1176471,4.19354839 C32.2201139,0.0569259962 42.1062619,-0.265654649 51.6129032,0.322580645 C61.1195446,0.910815939 70.2466793,2.39089184 78.7096774,6.37571157 Z" id="Shape"></path>
            </g>
        </g>
    </g>
</svg>