<?xml version="1.0" encoding="UTF-8"?>
<svg width="701px" height="107px" viewBox="0 0 701 107" version="1.1" xmlns="http://www.w3.org/2000/svg" xmlns:xlink="http://www.w3.org/1999/xlink">
    <!-- Generator: Sketch 43.2 (39069) - http://www.bohemiancoding.com/sketch -->
    <title>Group</title>
    <desc>Created with Sketch.</desc>
    <defs></defs>
    <g id="Page-1" stroke="none" stroke-width="1" fill="none" fill-rule="evenodd">
        <g id="Desktop-Portrait" transform="translate(-220.000000, -1499.000000)">
            <g id="Group" transform="translate(222.000000, 1501.000000)">
                <rect id="Rectangle-5" fill="#D8D8D8" x="348" y="16" width="2" height="71"></rect>
                <circle id="Oval-2" stroke="#D8D8D8" stroke-width="2" cx="349" cy="4" r="5"></circle>
                <circle id="Oval-2-Copy" stroke="#D8D8D8" stroke-width="2" cx="349" cy="99" r="5"></circle>
                <circle id="Oval-2-Copy-2" stroke="#D8D8D8" stroke-width="2" cx="535" cy="99" r="5"></circle>
                <circle id="Oval-2-Copy-3" stroke="#D8D8D8" stroke-width="2" cx="693" cy="4" r="5"></circle>
                <path d="M538.898437,88.3046875 C538.898437,88.3046875 579.09375,4.3046875 681.695312,4.3046875" id="Path-2" stroke="#D8D8D8" stroke-width="2"></path>
                <circle id="Oval-2-Copy-2" stroke="#D8D8D8" stroke-width="2" transform="translate(163.000000, 99.000000) scale(-1, 1) translate(-163.000000, -99.000000) " cx="163" cy="99" r="5"></circle>
                <circle id="Oval-2-Copy-3" stroke="#D8D8D8" stroke-width="2" transform="translate(4.000000, 4.000000) scale(-1, 1) translate(-4.000000, -4.000000) " cx="4" cy="4" r="5"></circle>
                <path d="M16.8984375,88.3046875 C16.8984375,88.3046875 57.09375,4.3046875 159.695312,4.3046875" id="Path-2" stroke="#D8D8D8" stroke-width="2" transform="translate(88.296875, 46.304688) scale(-1, 1) translate(-88.296875, -46.304688) "></path>
            </g>
        </g>
    </g>
</svg>