<?xml version="1.0" encoding="UTF-8"?>
<svg width="104px" height="100px" viewBox="0 0 104 100" version="1.1" xmlns="http://www.w3.org/2000/svg" xmlns:xlink="http://www.w3.org/1999/xlink">
    <!-- Generator: Sketch 43.2 (39069) - http://www.bohemiancoding.com/sketch -->
    <title>Shape</title>
    <desc>Created with Sketch.</desc>
    <defs></defs>
    <g id="Page-1" stroke="none" stroke-width="1" fill="none" fill-rule="evenodd" opacity="0.121546649">
        <g id="Desktop-Portrait" transform="translate(-516.000000, -1231.000000)" fill-rule="nonzero" fill="#00E676">
            <g id="blob-shape-(2)" transform="translate(516.000000, 1231.000000)">
                <path d="M77.2008114,7.93103448 C85.7606491,12.3123732 93.6713996,18.7829615 98.4178499,27.2616633 C103.1643,35.7403651 104.74645,46.2474645 102.900609,55.9432049 C101.034483,65.6592292 95.7606491,74.5638945 89.1075051,82.4137931 C82.474645,90.2434077 74.4827586,96.9979716 65.4563895,99.0872211 C56.4503043,101.156187 46.4300203,98.5801217 37.1196755,95.1318458 C27.8093306,91.68357 19.2089249,87.3833671 12.9817444,80.7302231 C6.77484787,74.0770791 2.94117647,65.0507099 1.15618661,55.4969574 C-0.60851927,45.9229209 -0.344827586,35.801217 3.06288032,26.5720081 C6.45030426,17.3630832 12.9614604,9.04665314 21.3590264,4.60446247 C29.7565923,0.14198783 40.040568,-0.425963489 49.7565923,0.425963489 C59.4726166,1.27789047 68.6612576,3.56997972 77.2008114,7.93103448 Z" id="Shape"></path>
            </g>
        </g>
    </g>
</svg>