<svg xmlns="http://www.w3.org/2000/svg" xmlns:xlink="http://www.w3.org/1999/xlink" width="1440" height="1179" viewBox="0 0 1440 1179">
    <defs>
        <path id="a" d="M0 0h1440l-1.404 1491H0z"/>
    </defs>
    <g fill="none" fill-rule="evenodd" transform="translate(0 -248)">
        <mask id="b" fill="#fff">
            <use xlink:href="#a"/>
        </mask>
        <g stroke="#E1E9EE" stroke-linecap="round" stroke-linejoin="round" mask="url(#b)">
            <path d="M-187 1248.258l135.071-193.637 167.096-34.976 156.546-92.272 145.62 46.55 144.543 135.188 157.624-43.744 147.231-158.28 154.936 21.113 137.987-79.024 164.18-16.977 162.327 87.381L1626 809.338"/>
            <path d="M-187 1273.629l135.071-193.637 167.096-34.976 156.546-92.272 145.62 46.55 144.543 135.188 157.624-43.743 147.231-158.28 154.936 21.112 137.987-79.024 164.18-16.977 162.327 87.382L1626 834.709"/>
            <path d="M-187 1299l135.071-193.637 167.096-34.976 156.546-92.272 145.62 46.55 144.543 135.188L719.5 1116.11l147.231-158.28 154.936 21.112 137.987-79.024 164.18-16.977 162.327 87.382L1626 860.08"/>
            <path d="M-187 1324.371l135.071-193.637 167.096-34.976 156.546-92.272 145.62 46.55 144.543 135.188 157.624-43.743L866.731 983.2l154.936 21.112 137.987-79.024 164.18-16.977 162.327 87.382L1626 885.45"/>
            <path d="M-187 1349.742l135.071-193.637 167.096-34.976 156.546-92.272 145.62 46.55 144.543 135.188 157.624-43.743 147.231-158.28 154.936 21.112 137.987-79.024 164.18-16.976 162.327 87.38L1626 910.823"/>
            <path d="M-187 1375.113l135.071-193.637 167.096-34.976 156.546-92.272 145.62 46.55 144.543 135.188 157.624-43.743 147.231-158.28 154.936 21.112 137.987-79.024 164.18-16.976 162.327 87.381L1626 936.193"/>
            <path d="M-187 1400.484l135.071-193.637 167.096-34.976 156.546-92.271 145.62 46.549 144.543 135.188 157.624-43.743 147.231-158.28 154.936 21.112 137.987-79.023 164.18-16.977 162.327 87.381L1626 961.564"/>
            <path d="M-187 1425.855l135.071-193.637 167.096-34.975 156.546-92.272 145.62 46.549 144.543 135.188 157.624-43.743 147.231-158.28 154.936 21.112 137.987-79.023 164.18-16.977 162.327 87.381L1626 986.936"/>
            <path d="M-187 1451.227l135.071-193.638 167.096-34.975 156.546-92.272 145.62 46.549 144.543 135.189 157.624-43.744 147.231-158.28 154.936 21.112 137.987-79.023 164.18-16.977 162.327 87.381L1626 1012.307"/>
            <path d="M-187 1476.598l135.071-193.638 167.096-34.975 156.546-92.272 145.62 46.55 144.543 135.188 157.624-43.744 147.231-158.28 154.936 21.113 137.987-79.024 164.18-16.977 162.327 87.381L1626 1037.678"/>
            <path d="M-187 1501.969l135.071-193.638 167.096-34.975 156.546-92.272 145.62 46.55 144.543 135.188 157.624-43.744 147.231-158.28 154.936 21.113 137.987-79.024 164.18-16.977 162.327 87.381L1626 1063.05"/>
            <path d="M-187 1527.34l135.071-193.637 167.096-34.976 156.546-92.272 145.62 46.55 144.543 135.188 157.624-43.744 147.231-158.28 154.936 21.113 137.987-79.024 164.18-16.977 162.327 87.382L1626 1088.42"/>
            <path d="M-187 1552.71l135.071-193.636 167.096-34.976 156.546-92.272 145.62 46.55 144.543 135.188L719.5 1369.82l147.231-158.28 154.936 21.112 137.987-79.024 164.18-16.977 162.327 87.382L1626 1113.79"/>
            <path d="M-187 1501.969l135.071-193.638 167.096-34.975 156.546-92.272 145.62 46.55 144.543 135.188 157.624-43.744 147.231-158.28 154.936 21.113 137.987-79.024 164.18-16.977 162.327 87.381L1626 1063.05"/>
            <path d="M-187 1527.34l135.071-193.637 167.096-34.976 156.546-92.272 145.62 46.55 144.543 135.188 157.624-43.744 147.231-158.28 154.936 21.113 137.987-79.024 164.18-16.977 162.327 87.382L1626 1088.42"/>
            <path d="M-187 1552.71l135.071-193.636 167.096-34.976 156.546-92.272 145.62 46.55 144.543 135.188L719.5 1369.82l147.231-158.28 154.936 21.112 137.987-79.024 164.18-16.977 162.327 87.382L1626 1113.79M-187 1210.201l135.071-193.637 167.096-34.976 156.546-92.272 145.62 46.55 144.543 135.188 157.624-43.743 147.231-158.28 154.936 21.112 137.987-79.024 164.18-16.976 162.327 87.38L1626 771.282"/>
            <path d="M-187 1235.572l135.071-193.637 167.096-34.976 156.546-92.272 145.62 46.55 144.543 135.188 157.624-43.743 147.231-158.28 154.936 21.112 137.987-79.024 164.18-16.976 162.327 87.38L1626 796.653"/>
            <path d="M-187 1260.943l135.071-193.637 167.096-34.976 156.546-92.271 145.62 46.549 144.543 135.188 157.624-43.743 147.231-158.28 154.936 21.112 137.987-79.023 164.18-16.977 162.327 87.381L1626 822.023"/>
            <path d="M-187 1286.314l135.071-193.637 167.096-34.976 156.546-92.271 145.62 46.549 144.543 135.188 157.624-43.743 147.231-158.28 154.936 21.112 137.987-79.023 164.18-16.977 162.327 87.381L1626 847.395"/>
            <path d="M-187 1311.686l135.071-193.638 167.096-34.975L271.713 990.8l145.62 46.549 144.543 135.189 157.624-43.744 147.231-158.28 154.936 21.112 137.987-79.023 164.18-16.977 162.327 87.381L1626 872.766"/>
            <path d="M-187 1337.057l135.071-193.638 167.096-34.975 156.546-92.272 145.62 46.55 144.543 135.188 157.624-43.744 147.231-158.28 154.936 21.113 137.987-79.024 164.18-16.977 162.327 87.381L1626 898.137"/>
            <path d="M-187 1362.428l135.071-193.638 167.096-34.975 156.546-92.272 145.62 46.55 144.543 135.188 157.624-43.744 147.231-158.28 154.936 21.113 137.987-79.024 164.18-16.977 162.327 87.381L1626 923.508"/>
            <path d="M-187 1387.799l135.071-193.637 167.096-34.976 156.546-92.272 145.62 46.55 144.543 135.188 157.624-43.744 147.231-158.28 154.936 21.113 137.987-79.024 164.18-16.977 162.327 87.382L1626 948.879"/>
            <path d="M-187 1413.17l135.071-193.637 167.096-34.976 156.546-92.272 145.62 46.55 144.543 135.188L719.5 1230.28 866.731 1072l154.936 21.112 137.987-79.024 164.18-16.977 162.327 87.382L1626 974.25"/>
            <path d="M-187 1438.541l135.071-193.637 167.096-34.976 156.546-92.272 145.62 46.55 144.543 135.188 157.624-43.743 147.231-158.28 154.936 21.112 137.987-79.024 164.18-16.977 162.327 87.382L1626 999.62"/>
            <path d="M-187 1463.912l135.071-193.637 167.096-34.976 156.546-92.272 145.62 46.55 144.543 135.188 157.624-43.743 147.231-158.28 154.936 21.112 137.987-79.024 164.18-16.977 162.327 87.382L1626 1024.992"/>
            <path d="M-187 1489.283l135.071-193.637 167.096-34.976 156.546-92.272 145.62 46.55 144.543 135.188 157.624-43.743 147.231-158.28 154.936 21.112 137.987-79.024 164.18-16.976 162.327 87.38L1626 1050.364"/>
            <path d="M-187 1514.654l135.071-193.637 167.096-34.976 156.546-92.272 145.62 46.55 144.543 135.188 157.624-43.743 147.231-158.28 154.936 21.112 137.987-79.024 164.18-16.976 162.327 87.381L1626 1075.734"/>
            <path d="M-187 1540.025l135.071-193.637 167.096-34.976 156.546-92.271 145.62 46.549 144.543 135.188 157.624-43.743 147.231-158.28 154.936 21.112 137.987-79.023 164.18-16.977 162.327 87.381L1626 1101.105"/>
            <path d="M-187 1565.396l135.071-193.637 167.096-34.975 156.546-92.272 145.62 46.549 144.543 135.188 157.624-43.743 147.231-158.28 154.936 21.112 137.987-79.023 164.18-16.977 162.327 87.381L1626 1126.477"/>
            <path d="M-187 1514.654l135.071-193.637 167.096-34.976 156.546-92.272 145.62 46.55 144.543 135.188 157.624-43.743 147.231-158.28 154.936 21.112 137.987-79.024 164.18-16.976 162.327 87.381L1626 1075.734M-187 778.893l135.071-193.638 167.096-34.975 156.546-92.272 145.62 46.549 144.543 135.189L719.5 596.002l147.231-158.28 154.936 21.112 137.987-79.023 164.18-16.977 162.327 87.381L1626 339.973"/>
            <path d="M-187 728.15l135.071-193.637 167.096-34.976 156.546-92.271 145.62 46.549 144.543 135.188L719.5 545.26l147.231-158.28 154.936 21.112 137.987-79.023 164.18-16.977 162.327 87.381L1626 289.23"/>
            <path d="M-187 664.723l135.071-193.638 167.096-34.975 156.546-92.272 145.62 46.55 144.543 135.188L719.5 481.832l147.231-158.28 154.936 21.113 137.987-79.024 164.18-16.977 162.327 87.381L1626 225.803"/>
            <path d="M-187 880.377L-51.929 686.74l167.096-34.976 156.546-92.272 145.62 46.55L561.876 741.23 719.5 697.487l147.231-158.28 154.936 21.112 137.987-79.024 164.18-16.977L1486.16 551.7 1626 441.457"/>
            <path d="M-187 918.434l135.071-193.638 167.096-34.975 156.546-92.272 145.62 46.549 144.543 135.189L719.5 735.543l147.231-158.28 154.936 21.112 137.987-79.023 164.18-16.977 162.327 87.381L1626 479.514"/>
            <path d="M-187 943.805l135.071-193.638 167.096-34.975 156.546-92.272 145.62 46.55 144.543 135.188L719.5 760.914l147.231-158.28 154.936 21.113 137.987-79.024 164.18-16.977 162.327 87.381L1626 504.885"/>
            <path d="M-187 969.176l135.071-193.638 167.096-34.975 156.546-92.272 145.62 46.55 144.543 135.188L719.5 786.285l147.231-158.28 154.936 21.113 137.987-79.024 164.18-16.977 162.327 87.381L1626 530.256"/>
            <path d="M-187 994.547L-51.929 800.91l167.096-34.976 156.546-92.272 145.62 46.55L561.876 855.4 719.5 811.657l147.231-158.28 154.936 21.112 137.987-79.024 164.18-16.977 162.327 87.382L1626 555.627"/>
            <path d="M-187 1019.918l135.071-193.637 167.096-34.976 156.546-92.272 145.62 46.55L561.876 880.77 719.5 837.028l147.231-158.28 154.936 21.112 137.987-79.024 164.18-16.977 162.327 87.382L1626 580.998"/>
            <path d="M-187 1045.29l135.071-193.638 167.096-34.976 156.546-92.272 145.62 46.55 144.543 135.188L719.5 862.399l147.231-158.28 154.936 21.112 137.987-79.024 164.18-16.977 162.327 87.382L1626 606.369"/>
            <path d="M-187 1070.66l135.071-193.637 167.096-34.976 156.546-92.272 145.62 46.55 144.543 135.188L719.5 887.77l147.231-158.28 154.936 21.112 137.987-79.024 164.18-16.976 162.327 87.38L1626 631.74"/>
            <path d="M-187 1096.031l135.071-193.637 167.096-34.976 156.546-92.272 145.62 46.55 144.543 135.188L719.5 913.141l147.231-158.28 154.936 21.112 137.987-79.024 164.18-16.976 162.327 87.38L1626 657.112"/>
            <path d="M-187 1121.402l135.071-193.637 167.096-34.976 156.546-92.271 145.62 46.549 144.543 135.188L719.5 938.512l147.231-158.28 154.936 21.112 137.987-79.023 164.18-16.977 162.327 87.381L1626 682.482"/>
            <path d="M-187 1146.773l135.071-193.637 167.096-34.976 156.546-92.271 145.62 46.549 144.543 135.188L719.5 963.883l147.231-158.28 154.936 21.112 137.987-79.023 164.18-16.977 162.327 87.381L1626 707.854"/>
            <path d="M-187 1172.145l135.071-193.638 167.096-34.975 156.546-92.272 145.62 46.549 144.543 135.188L719.5 989.254l147.231-158.28 154.936 21.112 137.987-79.023 164.18-16.977 162.327 87.381L1626 733.225"/>
            <path d="M-187 1197.516l135.071-193.638 167.096-34.975 156.546-92.272 145.62 46.55 144.543 135.188 157.624-43.744 147.231-158.28 154.936 21.112 137.987-79.023 164.18-16.977 162.327 87.381L1626 758.596"/>
            <path d="M-187 1222.887l135.071-193.638 167.096-34.975 156.546-92.272 145.62 46.55 144.543 135.188 157.624-43.744 147.231-158.28 154.936 21.113 137.987-79.024 164.18-16.977 162.327 87.381L1626 783.967M-187 829.635l135.071-193.638 167.096-34.975 156.546-92.272 145.62 46.55 144.543 135.188L719.5 646.744l147.231-158.28 154.936 21.113 137.987-79.024 164.18-16.977 162.327 87.381L1626 390.715"/>
            <path d="M-187 905.748l135.071-193.637 167.096-34.976 156.546-92.272 145.62 46.55L561.876 766.6 719.5 722.858l147.231-158.28 154.936 21.112 137.987-79.024 164.18-16.977 162.327 87.382L1626 466.828"/>
            <path d="M-187 931.12l135.071-193.638 167.096-34.976 156.546-92.272 145.62 46.55 144.543 135.188L719.5 748.23l147.231-158.28 154.936 21.112 137.987-79.024 164.18-16.976 162.327 87.38L1626 492.2"/>
            <path d="M-187 956.49l135.071-193.637 167.096-34.976 156.546-92.272 145.62 46.55 144.543 135.188L719.5 773.6l147.231-158.28 154.936 21.112 137.987-79.024 164.18-16.976 162.327 87.38L1626 517.57"/>
            <path d="M-187 981.861l135.071-193.637 167.096-34.976 156.546-92.271 145.62 46.549 144.543 135.188L719.5 798.971l147.231-158.28 154.936 21.112 137.987-79.024 164.18-16.976 162.327 87.381L1626 542.941"/>
            <path d="M-187 1007.232l135.071-193.637 167.096-34.976 156.546-92.271 145.62 46.549 144.543 135.188L719.5 824.342l147.231-158.28 154.936 21.112 137.987-79.023 164.18-16.977 162.327 87.381L1626 568.312"/>
            <path d="M-187 1032.604l135.071-193.638 167.096-34.975 156.546-92.272 145.62 46.549 144.543 135.188L719.5 849.713l147.231-158.28 154.936 21.112 137.987-79.023 164.18-16.977 162.327 87.381L1626 593.684"/>
            <path d="M-187 1057.975l135.071-193.638 167.096-34.975 156.546-92.272 145.62 46.55 144.543 135.188L719.5 875.084l147.231-158.28 154.936 21.112 137.987-79.023 164.18-16.977 162.327 87.381L1626 619.055"/>
            <path d="M-187 1083.346l135.071-193.638 167.096-34.975 156.546-92.272 145.62 46.55 144.543 135.188L719.5 900.455l147.231-158.28 154.936 21.113 137.987-79.024 164.18-16.977 162.327 87.381L1626 644.426"/>
            <path d="M-187 1108.717L-51.929 915.08l167.096-34.976 156.546-92.272 145.62 46.55L561.876 969.57 719.5 925.826l147.231-158.28 154.936 21.113 137.987-79.024 164.18-16.977 162.327 87.381L1626 669.797"/>
            <path d="M-187 1134.088L-51.929 940.45l167.096-34.976 156.546-92.272 145.62 46.55L561.876 994.94 719.5 951.198l147.231-158.28 154.936 21.112 137.987-79.024 164.18-16.977 162.327 87.382L1626 695.168"/>
            <path d="M-187 1159.459l135.071-193.637 167.096-34.976 156.546-92.272 145.62 46.55 144.543 135.188L719.5 976.569l147.231-158.28 154.936 21.112 137.987-79.024 164.18-16.977 162.327 87.382L1626 720.539"/>
            <path d="M-187 1184.83l135.071-193.637 167.096-34.976 156.546-92.272 145.62 46.55 144.543 135.188L719.5 1001.94l147.231-158.28 154.936 21.112 137.987-79.024 164.18-16.977 162.327 87.382L1626 745.91"/>
        </g>
    </g>
</svg>
