<?xml version="1.0" encoding="UTF-8"?>
<svg width="110px" height="100px" viewBox="0 0 110 100" version="1.1" xmlns="http://www.w3.org/2000/svg" xmlns:xlink="http://www.w3.org/1999/xlink">
    <!-- Generator: Sketch 43.2 (39069) - http://www.bohemiancoding.com/sketch -->
    <title>Shape</title>
    <desc>Created with Sketch.</desc>
    <defs></defs>
    <g id="Page-1" stroke="none" stroke-width="1" fill="none" fill-rule="evenodd" opacity="0.12279212">
        <g id="Desktop-Portrait" transform="translate(-867.000000, -1231.000000)" fill-rule="nonzero" fill="#6A11CB">
            <g id="blob-shape-(3)" transform="translate(867.000000, 1231.000000)">
                <path d="M82.7385892,8.29875519 C90.4979253,13.3609959 96.8672199,20.5186722 101.950207,29.0248963 C107.012448,37.5518672 110.788382,47.4273859 109.439834,56.5352697 C108.112033,65.6639004 101.659751,74.0248963 94.5435685,81.2655602 C87.4273859,88.5062241 79.626556,94.6058091 70.6639004,97.6556017 C61.7012448,100.726141 51.5767635,100.726141 42.3858921,97.8630705 C33.1742739,95.0207469 24.9170124,89.3153527 17.5518672,82.1161826 C10.2074689,74.8962656 3.75518672,66.2033195 1.26556017,56.2448133 C-1.22406639,46.2863071 0.248962656,35.0829876 5.5186722,26.473029 C10.7883817,17.8630705 19.8547718,11.8672199 29.0248963,7.42738589 C38.1742739,3.00829876 47.406639,0.145228216 56.5975104,0.20746888 C65.8091286,0.269709544 74.9585062,3.23651452 82.7385892,8.29875519 Z" id="Shape"></path>
            </g>
        </g>
    </g>
</svg>